<svg width="91" height="96" viewBox="0 0 91 96" fill="none" xmlns="http://www.w3.org/2000/svg">
<path d="M6.13287 43.0375V89.1088L58.9165 56.391V10.3197L6.13287 43.0375Z" fill="url(#paint0_linear_1_380)"/>
<path d="M0.85498 39.7653L53.6387 7.04749L58.9165 10.3195L6.13285 43.0372L0.85498 39.7653Z" fill="#8781F7"/>
<path d="M0.855011 85.8368L6.13288 89.1087V43.0374L0.855011 39.7655V85.8368Z" fill="#8781F7"/>
<path opacity="0.3" d="M0.85498 39.7653L53.6387 7.04749L58.9165 10.3195L6.13285 43.0372L0.85498 39.7653Z" fill="#8781F7"/>
<path opacity="0.3" d="M0.855011 85.8368L6.13288 89.1087V43.0374L0.855011 39.7655V85.8368Z" fill="#8781F7"/>
<path d="M6.1329 36.4933V43.0372L58.9166 10.3195V3.77557L6.1329 36.4933Z" fill="url(#paint1_linear_1_380)"/>
<path d="M0.855042 33.2215L53.6388 0.503723L58.9166 3.77569L6.13291 36.4935L0.855042 33.2215Z" fill="url(#paint2_linear_1_380)"/>
<path d="M0.85498 39.7653L6.13285 43.0372V36.4933L0.85498 33.2214V39.7653Z" fill="url(#paint3_linear_1_380)"/>
<path opacity="0.3" d="M0.855042 33.2215L53.6388 0.503723L58.9166 3.77569L6.13291 36.4935L0.855042 33.2215Z" fill="url(#paint4_linear_1_380)"/>
<path opacity="0.3" d="M0.85498 39.7653L6.13285 43.0372V36.4933L0.85498 33.2214V39.7653Z" fill="url(#paint5_linear_1_380)"/>
<path d="M8.37494 37.2351L10.1308 36.1462V38.3258L8.37494 39.4147V37.2351Z" fill="url(#paint6_linear_1_380)"/>
<path d="M8.05365 39.2149L8.37491 39.4147V37.2351L8.05365 37.0371V39.2149Z" fill="url(#paint7_linear_1_380)"/>
<path d="M8.05368 37.0372L9.81642 35.9517L10.1308 36.1463L8.37495 37.2352L8.05368 37.0372Z" fill="url(#paint8_linear_1_380)"/>
<path opacity="0.3" d="M8.05365 39.2149L8.37491 39.4147V37.2351L8.05365 37.0371V39.2149Z" fill="url(#paint9_linear_1_380)"/>
<path opacity="0.3" d="M8.05368 37.0372L9.81642 35.9517L10.1308 36.1463L8.37495 37.2352L8.05368 37.0372Z" fill="url(#paint10_linear_1_380)"/>
<path d="M11.468 35.5035L13.2256 34.4146V36.5942L11.468 37.6831V35.5035Z" fill="url(#paint11_linear_1_380)"/>
<path d="M11.1467 37.4835L11.468 37.6832V35.5037L11.1467 35.3057V37.4835Z" fill="url(#paint12_linear_1_380)"/>
<path d="M11.1468 35.3056L12.9096 34.2184L13.2256 34.4147L11.4681 35.5036L11.1468 35.3056Z" fill="url(#paint13_linear_1_380)"/>
<path opacity="0.3" d="M11.1467 37.4835L11.468 37.6832V35.5037L11.1467 35.3057V37.4835Z" fill="url(#paint14_linear_1_380)"/>
<path opacity="0.3" d="M11.1468 35.3056L12.9096 34.2184L13.2256 34.4147L11.4681 35.5036L11.1468 35.3056Z" fill="url(#paint15_linear_1_380)"/>
<path d="M11.2404 46.2571L16.1848 43.1936V49.3224L11.2404 52.3877V46.2571Z" fill="#3068D6"/>
<path d="M10.3391 51.8285L11.2404 52.3877V46.2571L10.3391 45.6979V51.8285Z" fill="#3068D6"/>
<path d="M10.3391 45.698L15.2974 42.6431L16.1848 43.1937L11.2405 46.2572L10.3391 45.698Z" fill="#3068D6"/>
<path opacity="0.3" d="M10.3391 51.8285L11.2404 52.3877V46.2571L10.3391 45.6979V51.8285Z" fill="#3068D6"/>
<path opacity="0.3" d="M10.3391 45.698L15.2974 42.6431L16.1848 43.1937L11.2405 46.2572L10.3391 45.698Z" fill="#3068D6"/>
<path d="M11.6922 55.7795L16.6366 52.7159V58.8448L11.6922 61.9101V55.7795Z" fill="url(#paint16_linear_1_380)"/>
<path d="M10.7908 61.3508L11.6921 61.9101V55.7795L10.7908 55.2203V61.3508Z" fill="url(#paint17_linear_1_380)"/>
<path d="M10.7908 55.2203L15.7473 52.1637L16.6365 52.716L11.6921 55.7795L10.7908 55.2203Z" fill="url(#paint18_linear_1_380)"/>
<path opacity="0.3" d="M10.7908 61.3508L11.6921 61.9101V55.7795L10.7908 55.2203V61.3508Z" fill="url(#paint19_linear_1_380)"/>
<path d="M12.1437 65.3019L17.0881 62.2384V68.3672L12.1437 71.4325V65.3019Z" fill="#3068D6"/>
<path d="M11.2406 70.8733L12.1436 71.4325V65.3019L11.2406 64.7427V70.8733Z" fill="#3068D6"/>
<path d="M11.2406 64.7427L16.1989 61.6862L17.0881 62.2384L12.1437 65.3019L11.2406 64.7427Z" fill="#3068D6"/>
<path opacity="0.3" d="M11.2406 70.8733L12.1436 71.4325V65.3019L11.2406 64.7427V70.8733Z" fill="#3068D6"/>
<path opacity="0.3" d="M11.2406 64.7427L16.1989 61.6862L17.0881 62.2384L12.1437 65.3019L11.2406 64.7427Z" fill="#3068D6"/>
<path d="M12.5951 74.8244L17.5395 71.7591V77.8897L12.5951 80.9549V74.8244Z" fill="url(#paint20_linear_1_380)"/>
<path d="M11.692 80.3957L12.5951 80.9549V74.8243L11.692 74.2651V80.3957Z" fill="url(#paint21_linear_1_380)"/>
<path d="M11.692 74.2651L16.6503 71.2084L17.5395 71.759L12.5951 74.8243L11.692 74.2651Z" fill="url(#paint22_linear_1_380)"/>
<path opacity="0.3" d="M11.692 80.3957L12.5951 80.9549V74.8243L11.692 74.2651V80.3957Z" fill="url(#paint23_linear_1_380)"/>
<path opacity="0.3" d="M11.692 74.2651L16.6503 71.2084L17.5395 71.759L12.5951 74.8243L11.692 74.2651Z" fill="url(#paint24_linear_1_380)"/>
<path d="M14.5629 33.772L16.3187 32.683V34.8609L14.5629 35.9515V33.772Z" fill="url(#paint25_linear_1_380)"/>
<path d="M14.2416 35.7518L14.5629 35.9515V33.772L14.2416 33.574V35.7518Z" fill="url(#paint26_linear_1_380)"/>
<path d="M14.2416 33.5739L16.0026 32.4868L16.3187 32.683L14.5629 33.7719L14.2416 33.5739Z" fill="url(#paint27_linear_1_380)"/>
<path opacity="0.3" d="M14.2416 35.7518L14.5629 35.9515V33.772L14.2416 33.574V35.7518Z" fill="url(#paint28_linear_1_380)"/>
<path opacity="0.3" d="M14.2416 33.5739L16.0026 32.4868L16.3187 32.683L14.5629 33.7719L14.2416 33.5739Z" fill="url(#paint29_linear_1_380)"/>
<path d="M28.1646 49.4249V95.4962L80.9483 62.7784V16.7071L28.1646 49.4249Z" fill="url(#paint30_linear_1_380)"/>
<path d="M22.8868 46.153L75.6705 13.4352L80.9483 16.7072L28.1646 49.425L22.8868 46.153Z" fill="url(#paint31_linear_1_380)"/>
<path d="M22.8868 92.2242L28.1647 95.4962V49.4249L22.8868 46.1529V92.2242Z" fill="url(#paint32_linear_1_380)"/>
<path opacity="0.3" d="M22.8868 46.153L75.6705 13.4352L80.9483 16.7072L28.1646 49.425L22.8868 46.153Z" fill="url(#paint33_linear_1_380)"/>
<path opacity="0.3" d="M22.8868 92.2242L28.1647 95.4962V49.4249L22.8868 46.1529V92.2242Z" fill="url(#paint34_linear_1_380)"/>
<path d="M42.9927 50.9028V74.6575L70.2086 57.7889V34.0342L42.9927 50.9028Z" fill="url(#paint35_linear_1_380)"/>
<path d="M47.5551 59.7895L65.6463 48.5757V42.9001L47.5551 54.114V59.7895Z" fill="url(#paint36_radial_1_380)"/>
<path d="M47.5551 67.2124L65.6463 55.9985V50.3212L47.5551 61.5351V67.2124Z" fill="url(#paint37_radial_1_380)"/>
<path d="M70.2087 34.0342L67.4856 32.3478L40.2714 49.2165L42.9928 50.9028L70.2087 34.0342Z" fill="#427AE6"/>
<path opacity="0.3" d="M70.2087 34.0342L67.4856 32.3478L40.2714 49.2165L42.9928 50.9028L70.2087 34.0342Z" fill="#427AE6"/>
<path d="M40.2714 49.2166V72.9695L42.9928 74.6575V50.9029L40.2714 49.2166Z" fill="#3068D6"/>
<path opacity="0.3" d="M40.2714 49.2166V72.9695L42.9928 74.6575V50.9029L40.2714 49.2166Z" fill="#3068D6"/>
<path d="M28.1647 42.8811V49.425L80.9484 16.7073V10.1633L28.1647 42.8811Z" fill="url(#paint38_linear_1_380)"/>
<path d="M22.8868 39.6091L75.6705 6.89136L80.9483 10.1633L28.1646 42.8811L22.8868 39.6091Z" fill="url(#paint39_linear_1_380)"/>
<path d="M22.8868 46.153L28.1646 49.425V42.8811L22.8868 39.6091V46.153Z" fill="url(#paint40_linear_1_380)"/>
<path opacity="0.3" d="M22.8868 39.6091L75.6705 6.89136L80.9483 10.1633L28.1646 42.8811L22.8868 39.6091Z" fill="url(#paint41_linear_1_380)"/>
<path opacity="0.3" d="M22.8868 46.153L28.1646 49.425V42.8811L22.8868 39.6091V46.153Z" fill="url(#paint42_linear_1_380)"/>
<path d="M50.523 54.656C50.9398 54.6959 51.1395 55.1266 50.9676 55.6198C50.7957 56.113 50.3181 56.4813 49.9013 56.4413C49.4845 56.4014 49.2847 55.9707 49.4567 55.4774C49.6286 54.9842 50.1062 54.616 50.523 54.656Z" fill="#3E7BDE"/>
<path d="M52.687 53.2804C53.1038 53.3203 53.3035 53.751 53.1315 54.2443C52.9596 54.7375 52.482 55.1057 52.0652 55.0657C51.6484 55.0258 51.4487 54.5951 51.6206 54.1018C51.7926 53.6086 52.2684 53.2404 52.687 53.2804Z" fill="#3E7BDE"/>
<path d="M54.8509 51.9068C55.2677 51.9468 55.4675 52.3775 55.2955 52.8707C55.1236 53.3639 54.646 53.7321 54.2292 53.6922C53.8124 53.6522 53.6126 53.2215 53.7846 52.7283C53.9548 52.2351 54.4324 51.8669 54.8509 51.9068Z" fill="#3E7BDE"/>
<path d="M57.0131 50.5312C57.43 50.5712 57.6297 51.0018 57.4578 51.4951C57.2858 51.9883 56.8082 52.3565 56.3914 52.3166C55.9746 52.2766 55.7749 51.8459 55.9468 51.3527C56.1188 50.8595 56.5963 50.4913 57.0131 50.5312Z" fill="#3E7BDE"/>
<path d="M59.1771 49.1574C59.5939 49.1974 59.7936 49.6281 59.6217 50.1213C59.4497 50.6146 58.9721 50.9827 58.5553 50.9428C58.1385 50.9028 57.9388 50.4721 58.1107 49.9789C58.2827 49.4857 58.7602 49.1175 59.1771 49.1574Z" fill="#3E7BDE"/>
<path d="M61.3409 47.7821C61.7577 47.8221 61.9575 48.2528 61.7855 48.746C61.6136 49.2392 61.136 49.6074 60.7192 49.5675C60.3024 49.5275 60.1027 49.0968 60.2746 48.6036C60.4465 48.1104 60.9241 47.7422 61.3409 47.7821Z" fill="#3E7BDE"/>
<path d="M51.9194 61.0488C52.3362 61.0887 52.5359 61.5194 52.364 62.0126C52.192 62.5059 51.7145 62.874 51.2976 62.8341C50.8808 62.7941 50.6811 62.3634 50.853 61.8702C51.025 61.377 51.5025 61.0105 51.9194 61.0488Z" fill="#3E7BDE"/>
<path d="M54.0833 59.675C54.5001 59.715 54.6998 60.1457 54.5279 60.6389C54.3559 61.1321 53.8784 61.5003 53.4616 61.4604C53.0447 61.4204 52.845 60.9897 53.0169 60.4965C53.1889 60.0033 53.6665 59.6351 54.0833 59.675Z" fill="#3E7BDE"/>
<path d="M56.2473 58.2996C56.6641 58.3395 56.8637 58.7703 56.6918 59.2635C56.5199 59.7567 56.0423 60.1249 55.6255 60.0849C55.2087 60.045 55.009 59.6143 55.1809 59.1211C55.3528 58.6296 55.8287 58.2614 56.2473 58.2996Z" fill="#3E7BDE"/>
<path d="M58.4111 56.9258C58.8279 56.9657 59.0277 57.3964 58.8557 57.8896C58.6838 58.3829 58.2062 58.751 57.7894 58.7111C57.3726 58.6712 57.1728 58.2404 57.3448 57.7472C57.515 57.254 57.9926 56.8858 58.4111 56.9258Z" fill="#3E7BDE"/>
<path d="M60.5734 55.5503C60.9902 55.5903 61.1899 56.021 61.018 56.5142C60.846 57.0074 60.3684 57.3756 59.9516 57.3357C59.5348 57.2957 59.3351 56.865 59.507 56.3718C59.679 55.8803 60.1565 55.5121 60.5734 55.5503Z" fill="#3E7BDE"/>
<path d="M62.7373 54.1767C63.1541 54.2166 63.3538 54.6473 63.1819 55.1405C63.01 55.6337 62.5324 56.002 62.1155 55.962C61.6987 55.9221 61.499 55.4914 61.671 54.9981C61.8429 54.5049 62.3205 54.1367 62.7373 54.1767Z" fill="#3E7BDE"/>
<path d="M30.4068 43.6227L32.1626 42.5338V44.7134L30.4068 45.8023V43.6227Z" fill="url(#paint43_linear_1_380)"/>
<path d="M30.0855 45.6024L30.4068 45.8021V43.6226L30.0855 43.4246V45.6024Z" fill="url(#paint44_linear_1_380)"/>
<path d="M30.0855 43.4246L31.8466 42.3392L32.1626 42.5337L30.4068 43.6226L30.0855 43.4246Z" fill="url(#paint45_linear_1_380)"/>
<path opacity="0.3" d="M30.0855 45.6024L30.4068 45.8021V43.6226L30.0855 43.4246V45.6024Z" fill="url(#paint46_linear_1_380)"/>
<path opacity="0.3" d="M30.0855 43.4246L31.8466 42.3392L32.1626 42.5337L30.4068 43.6226L30.0855 43.4246Z" fill="url(#paint47_linear_1_380)"/>
<path d="M33.4999 41.8912L35.2574 40.8022V42.9801L33.4999 44.0707V41.8912Z" fill="url(#paint48_linear_1_380)"/>
<path d="M33.1786 43.8708L33.4999 44.0705V41.891L33.1786 41.693V43.8708Z" fill="url(#paint49_linear_1_380)"/>
<path d="M33.1786 41.6931L34.9413 40.606L35.2574 40.8022L33.4999 41.8911L33.1786 41.6931Z" fill="url(#paint50_linear_1_380)"/>
<path opacity="0.3" d="M33.1786 43.8708L33.4999 44.0705V41.891L33.1786 41.693V43.8708Z" fill="url(#paint51_linear_1_380)"/>
<path opacity="0.3" d="M33.1786 41.6931L34.9413 40.606L35.2574 40.8022L33.4999 41.8911L33.1786 41.6931Z" fill="url(#paint52_linear_1_380)"/>
<path d="M36.5946 40.1598L38.3504 39.0709V41.2487L36.5946 42.3393V40.1598Z" fill="url(#paint53_linear_1_380)"/>
<path d="M36.2734 42.1396L36.5946 42.3393V40.1598L36.2734 39.9618V42.1396Z" fill="url(#paint54_linear_1_380)"/>
<path d="M36.2734 39.9617L38.0344 38.8745L38.3505 39.0708L36.5946 40.1597L36.2734 39.9617Z" fill="url(#paint55_linear_1_380)"/>
<path opacity="0.3" d="M36.2734 42.1396L36.5946 42.3393V40.1598L36.2734 39.9618V42.1396Z" fill="url(#paint56_linear_1_380)"/>
<path opacity="0.3" d="M36.2734 39.9617L38.0344 38.8745L38.3505 39.0708L36.5946 40.1597L36.2734 39.9617Z" fill="url(#paint57_linear_1_380)"/>
<path d="M85.707 74.4544L84.9741 74.998L77.5566 66.7469L78.2895 66.2051L85.707 74.4544Z" fill="url(#paint58_linear_1_380)"/>
<path d="M70.9207 60.7692L70.1878 61.3127L67.9596 51.2208L68.6907 50.6789L70.9207 60.7692Z" fill="url(#paint59_linear_1_380)"/>
<path d="M73.1471 70.861L72.4142 71.4029L70.1878 61.3126L70.9207 60.769L73.1471 70.861Z" fill="url(#paint60_linear_1_380)"/>
<path d="M68.6907 50.6789L78.4666 53.937L88.2391 57.1985L83.0967 61.8546L90.5124 70.104L85.7069 74.4544L78.2895 66.2051L73.1471 70.8611L70.9206 60.7692L68.6907 50.6789Z" fill="url(#paint61_linear_1_380)"/>
<path d="M45.3512 55.4861V61.1633L48.4338 59.2512V53.5687L45.3512 55.4861Z" fill="url(#paint62_linear_1_380)"/>
<path d="M45.3512 62.8984V68.6348L48.4338 66.7227V60.9863L45.3512 62.8984Z" fill="url(#paint63_linear_1_380)"/>
<defs>
<linearGradient id="paint0_linear_1_380" x1="3.40708" y1="111.803" x2="51.7788" y2="38.3555" gradientUnits="userSpaceOnUse">
<stop stop-color="#7B6EFF"/>
<stop offset="0.0834" stop-color="#7A6DFF"/>
<stop offset="0.3708" stop-color="#36B9DB"/>
<stop offset="0.6295" stop-color="#239AD3"/>
<stop offset="0.848" stop-color="#796CFF"/>
<stop offset="1" stop-color="#5647FF"/>
</linearGradient>
<linearGradient id="paint1_linear_1_380" x1="37.2516" y1="-5.00057" x2="-3.81841" y2="21.214" gradientUnits="userSpaceOnUse">
<stop stop-color="#766AFF"/>
<stop offset="1" stop-color="#9C84FD"/>
</linearGradient>
<linearGradient id="paint2_linear_1_380" x1="35.0854" y1="-7.54105" x2="-4.98743" y2="23.1524" gradientUnits="userSpaceOnUse">
<stop stop-color="#6A82FF"/>
<stop offset="1" stop-color="#84BBFD"/>
</linearGradient>
<linearGradient id="paint3_linear_1_380" x1="3.96656" y1="31.0272" x2="-1.45954" y2="32.4124" gradientUnits="userSpaceOnUse">
<stop stop-color="#6A82FF"/>
<stop offset="1" stop-color="#84BBFD"/>
</linearGradient>
<linearGradient id="paint4_linear_1_380" x1="-2.1433" y1="46.8597" x2="10.0964" y2="2.10559" gradientUnits="userSpaceOnUse">
<stop stop-color="#7B6EFF"/>
<stop offset="0.0834" stop-color="#7A6DFF"/>
<stop offset="0.3708" stop-color="#36B9DB"/>
<stop offset="0.6295" stop-color="#239AD3"/>
<stop offset="0.848" stop-color="#796CFF"/>
<stop offset="1" stop-color="#5647FF"/>
</linearGradient>
<linearGradient id="paint5_linear_1_380" x1="0.582427" y1="45.8645" x2="7.01585" y2="38.0244" gradientUnits="userSpaceOnUse">
<stop stop-color="#7B6EFF"/>
<stop offset="0.0834" stop-color="#7A6DFF"/>
<stop offset="0.3708" stop-color="#36B9DB"/>
<stop offset="0.6295" stop-color="#239AD3"/>
<stop offset="0.848" stop-color="#796CFF"/>
<stop offset="1" stop-color="#5647FF"/>
</linearGradient>
<linearGradient id="paint6_linear_1_380" x1="8.28427" y1="40.3561" x2="10.4269" y2="37.7474" gradientUnits="userSpaceOnUse">
<stop stop-color="#7B6EFF"/>
<stop offset="0.0834" stop-color="#7A6DFF"/>
<stop offset="0.3708" stop-color="#36B9DB"/>
<stop offset="0.6295" stop-color="#239AD3"/>
<stop offset="0.848" stop-color="#796CFF"/>
<stop offset="1" stop-color="#5647FF"/>
</linearGradient>
<linearGradient id="paint7_linear_1_380" x1="8.03706" y1="40.0995" x2="8.92679" y2="39.827" gradientUnits="userSpaceOnUse">
<stop stop-color="#7B6EFF"/>
<stop offset="0.0834" stop-color="#7A6DFF"/>
<stop offset="0.3708" stop-color="#36B9DB"/>
<stop offset="0.6295" stop-color="#239AD3"/>
<stop offset="0.848" stop-color="#796CFF"/>
<stop offset="1" stop-color="#5647FF"/>
</linearGradient>
<linearGradient id="paint8_linear_1_380" x1="7.94642" y1="37.6048" x2="8.38172" y2="36.0081" gradientUnits="userSpaceOnUse">
<stop stop-color="#7B6EFF"/>
<stop offset="0.0834" stop-color="#7A6DFF"/>
<stop offset="0.3708" stop-color="#36B9DB"/>
<stop offset="0.6295" stop-color="#239AD3"/>
<stop offset="0.848" stop-color="#796CFF"/>
<stop offset="1" stop-color="#5647FF"/>
</linearGradient>
<linearGradient id="paint9_linear_1_380" x1="8.03706" y1="40.0995" x2="8.92679" y2="39.827" gradientUnits="userSpaceOnUse">
<stop stop-color="#7B6EFF"/>
<stop offset="0.0834" stop-color="#7A6DFF"/>
<stop offset="0.3708" stop-color="#36B9DB"/>
<stop offset="0.6295" stop-color="#239AD3"/>
<stop offset="0.848" stop-color="#796CFF"/>
<stop offset="1" stop-color="#5647FF"/>
</linearGradient>
<linearGradient id="paint10_linear_1_380" x1="7.94642" y1="37.6048" x2="8.38172" y2="36.0081" gradientUnits="userSpaceOnUse">
<stop stop-color="#7B6EFF"/>
<stop offset="0.0834" stop-color="#7A6DFF"/>
<stop offset="0.3708" stop-color="#36B9DB"/>
<stop offset="0.6295" stop-color="#239AD3"/>
<stop offset="0.848" stop-color="#796CFF"/>
<stop offset="1" stop-color="#5647FF"/>
</linearGradient>
<linearGradient id="paint11_linear_1_380" x1="11.3773" y1="38.6245" x2="13.5195" y2="36.0138" gradientUnits="userSpaceOnUse">
<stop stop-color="#7B6EFF"/>
<stop offset="0.0834" stop-color="#7A6DFF"/>
<stop offset="0.3708" stop-color="#36B9DB"/>
<stop offset="0.6295" stop-color="#239AD3"/>
<stop offset="0.848" stop-color="#796CFF"/>
<stop offset="1" stop-color="#5647FF"/>
</linearGradient>
<linearGradient id="paint12_linear_1_380" x1="11.1301" y1="38.3681" x2="12.02" y2="38.0955" gradientUnits="userSpaceOnUse">
<stop stop-color="#7B6EFF"/>
<stop offset="0.0834" stop-color="#7A6DFF"/>
<stop offset="0.3708" stop-color="#36B9DB"/>
<stop offset="0.6295" stop-color="#239AD3"/>
<stop offset="0.848" stop-color="#796CFF"/>
<stop offset="1" stop-color="#5647FF"/>
</linearGradient>
<linearGradient id="paint13_linear_1_380" x1="11.0394" y1="35.8737" x2="11.4755" y2="34.275" gradientUnits="userSpaceOnUse">
<stop stop-color="#7B6EFF"/>
<stop offset="0.0834" stop-color="#7A6DFF"/>
<stop offset="0.3708" stop-color="#36B9DB"/>
<stop offset="0.6295" stop-color="#239AD3"/>
<stop offset="0.848" stop-color="#796CFF"/>
<stop offset="1" stop-color="#5647FF"/>
</linearGradient>
<linearGradient id="paint14_linear_1_380" x1="11.1301" y1="38.3681" x2="12.02" y2="38.0955" gradientUnits="userSpaceOnUse">
<stop stop-color="#7B6EFF"/>
<stop offset="0.0834" stop-color="#7A6DFF"/>
<stop offset="0.3708" stop-color="#36B9DB"/>
<stop offset="0.6295" stop-color="#239AD3"/>
<stop offset="0.848" stop-color="#796CFF"/>
<stop offset="1" stop-color="#5647FF"/>
</linearGradient>
<linearGradient id="paint15_linear_1_380" x1="11.0394" y1="35.8737" x2="11.4755" y2="34.275" gradientUnits="userSpaceOnUse">
<stop stop-color="#7B6EFF"/>
<stop offset="0.0834" stop-color="#7A6DFF"/>
<stop offset="0.3708" stop-color="#36B9DB"/>
<stop offset="0.6295" stop-color="#239AD3"/>
<stop offset="0.848" stop-color="#796CFF"/>
<stop offset="1" stop-color="#5647FF"/>
</linearGradient>
<linearGradient id="paint16_linear_1_380" x1="14.6072" y1="50.6608" x2="9.52402" y2="51.9586" gradientUnits="userSpaceOnUse">
<stop stop-color="#6A82FF"/>
<stop offset="1" stop-color="#84BBFD"/>
</linearGradient>
<linearGradient id="paint17_linear_1_380" x1="11.3222" y1="53.7249" x2="10.3392" y2="53.7878" gradientUnits="userSpaceOnUse">
<stop stop-color="#766AFF"/>
<stop offset="1" stop-color="#9C84FD"/>
</linearGradient>
<linearGradient id="paint18_linear_1_380" x1="14.2371" y1="51.3555" x2="10.2089" y2="54.4474" gradientUnits="userSpaceOnUse">
<stop stop-color="#766AFF"/>
<stop offset="1" stop-color="#9C84FD"/>
</linearGradient>
<linearGradient id="paint19_linear_1_380" x1="11.3222" y1="53.7249" x2="10.3392" y2="53.7878" gradientUnits="userSpaceOnUse">
<stop stop-color="#766AFF"/>
<stop offset="1" stop-color="#9C84FD"/>
</linearGradient>
<linearGradient id="paint20_linear_1_380" x1="15.5101" y1="69.7036" x2="10.4268" y2="71.0012" gradientUnits="userSpaceOnUse">
<stop stop-color="#6A82FF"/>
<stop offset="1" stop-color="#84BBFD"/>
</linearGradient>
<linearGradient id="paint21_linear_1_380" x1="12.2245" y1="72.7697" x2="11.2396" y2="72.8328" gradientUnits="userSpaceOnUse">
<stop stop-color="#6A82FF"/>
<stop offset="1" stop-color="#84BBFD"/>
</linearGradient>
<linearGradient id="paint22_linear_1_380" x1="15.1394" y1="70.4002" x2="11.1108" y2="73.4933" gradientUnits="userSpaceOnUse">
<stop stop-color="#6A82FF"/>
<stop offset="1" stop-color="#84BBFD"/>
</linearGradient>
<linearGradient id="paint23_linear_1_380" x1="12.2245" y1="72.7697" x2="11.2396" y2="72.8328" gradientUnits="userSpaceOnUse">
<stop stop-color="#6A82FF"/>
<stop offset="1" stop-color="#84BBFD"/>
</linearGradient>
<linearGradient id="paint24_linear_1_380" x1="15.1394" y1="70.4002" x2="11.1108" y2="73.4933" gradientUnits="userSpaceOnUse">
<stop stop-color="#6A82FF"/>
<stop offset="1" stop-color="#84BBFD"/>
</linearGradient>
<linearGradient id="paint25_linear_1_380" x1="14.4722" y1="36.8929" x2="16.6148" y2="34.2843" gradientUnits="userSpaceOnUse">
<stop stop-color="#7B6EFF"/>
<stop offset="0.0834" stop-color="#7A6DFF"/>
<stop offset="0.3708" stop-color="#36B9DB"/>
<stop offset="0.6295" stop-color="#239AD3"/>
<stop offset="0.848" stop-color="#796CFF"/>
<stop offset="1" stop-color="#5647FF"/>
</linearGradient>
<linearGradient id="paint26_linear_1_380" x1="14.225" y1="36.6363" x2="15.1148" y2="36.3638" gradientUnits="userSpaceOnUse">
<stop stop-color="#7B6EFF"/>
<stop offset="0.0834" stop-color="#7A6DFF"/>
<stop offset="0.3708" stop-color="#36B9DB"/>
<stop offset="0.6295" stop-color="#239AD3"/>
<stop offset="0.848" stop-color="#796CFF"/>
<stop offset="1" stop-color="#5647FF"/>
</linearGradient>
<linearGradient id="paint27_linear_1_380" x1="14.1343" y1="34.1421" x2="14.5707" y2="32.5436" gradientUnits="userSpaceOnUse">
<stop stop-color="#7B6EFF"/>
<stop offset="0.0834" stop-color="#7A6DFF"/>
<stop offset="0.3708" stop-color="#36B9DB"/>
<stop offset="0.6295" stop-color="#239AD3"/>
<stop offset="0.848" stop-color="#796CFF"/>
<stop offset="1" stop-color="#5647FF"/>
</linearGradient>
<linearGradient id="paint28_linear_1_380" x1="14.225" y1="36.6363" x2="15.1148" y2="36.3638" gradientUnits="userSpaceOnUse">
<stop stop-color="#7B6EFF"/>
<stop offset="0.0834" stop-color="#7A6DFF"/>
<stop offset="0.3708" stop-color="#36B9DB"/>
<stop offset="0.6295" stop-color="#239AD3"/>
<stop offset="0.848" stop-color="#796CFF"/>
<stop offset="1" stop-color="#5647FF"/>
</linearGradient>
<linearGradient id="paint29_linear_1_380" x1="14.1343" y1="34.1421" x2="14.5707" y2="32.5436" gradientUnits="userSpaceOnUse">
<stop stop-color="#7B6EFF"/>
<stop offset="0.0834" stop-color="#7A6DFF"/>
<stop offset="0.3708" stop-color="#36B9DB"/>
<stop offset="0.6295" stop-color="#239AD3"/>
<stop offset="0.848" stop-color="#796CFF"/>
<stop offset="1" stop-color="#5647FF"/>
</linearGradient>
<linearGradient id="paint30_linear_1_380" x1="25.4388" y1="118.19" x2="73.8105" y2="44.7428" gradientUnits="userSpaceOnUse">
<stop stop-color="#7B6EFF"/>
<stop offset="0.0834" stop-color="#7A6DFF"/>
<stop offset="0.3708" stop-color="#36B9DB"/>
<stop offset="0.6295" stop-color="#239AD3"/>
<stop offset="0.848" stop-color="#796CFF"/>
<stop offset="1" stop-color="#5647FF"/>
</linearGradient>
<linearGradient id="paint31_linear_1_380" x1="57.1171" y1="5.39047" x2="17.0443" y2="36.0839" gradientUnits="userSpaceOnUse">
<stop stop-color="#6A82FF"/>
<stop offset="1" stop-color="#84BBFD"/>
</linearGradient>
<linearGradient id="paint32_linear_1_380" x1="25.9984" y1="35.1232" x2="20.2336" y2="35.416" gradientUnits="userSpaceOnUse">
<stop stop-color="#766AFF"/>
<stop offset="1" stop-color="#9C84FD"/>
</linearGradient>
<linearGradient id="paint33_linear_1_380" x1="57.1171" y1="5.39047" x2="17.0443" y2="36.0839" gradientUnits="userSpaceOnUse">
<stop stop-color="#6A82FF"/>
<stop offset="1" stop-color="#84BBFD"/>
</linearGradient>
<linearGradient id="paint34_linear_1_380" x1="22.6143" y1="109.709" x2="37.7146" y2="106.048" gradientUnits="userSpaceOnUse">
<stop stop-color="#7B6EFF"/>
<stop offset="0.0834" stop-color="#7A6DFF"/>
<stop offset="0.3708" stop-color="#36B9DB"/>
<stop offset="0.6295" stop-color="#239AD3"/>
<stop offset="0.848" stop-color="#796CFF"/>
<stop offset="1" stop-color="#5647FF"/>
</linearGradient>
<linearGradient id="paint35_linear_1_380" x1="59.0379" y1="24.9537" x2="31.9726" y2="33.5627" gradientUnits="userSpaceOnUse">
<stop stop-color="#766AFF"/>
<stop offset="1" stop-color="#9C84FD"/>
</linearGradient>
<radialGradient id="paint36_radial_1_380" cx="0" cy="0" r="1" gradientUnits="userSpaceOnUse" gradientTransform="translate(56.6005 51.3447) scale(8.75016 8.75016)">
<stop stop-color="#27328A"/>
<stop offset="1" stop-color="#0F1142"/>
</radialGradient>
<radialGradient id="paint37_radial_1_380" cx="0" cy="0" r="1" gradientUnits="userSpaceOnUse" gradientTransform="translate(56.6005 58.7667) scale(8.75016 8.75016)">
<stop stop-color="#27328A"/>
<stop offset="1" stop-color="#0F1142"/>
</radialGradient>
<linearGradient id="paint38_linear_1_380" x1="59.2835" y1="1.38718" x2="18.2134" y2="27.6017" gradientUnits="userSpaceOnUse">
<stop stop-color="#766AFF"/>
<stop offset="1" stop-color="#9C84FD"/>
</linearGradient>
<linearGradient id="paint39_linear_1_380" x1="57.1171" y1="-1.15341" x2="17.0443" y2="29.54" gradientUnits="userSpaceOnUse">
<stop stop-color="#6A82FF"/>
<stop offset="1" stop-color="#84BBFD"/>
</linearGradient>
<linearGradient id="paint40_linear_1_380" x1="25.9984" y1="37.415" x2="20.5723" y2="38.8001" gradientUnits="userSpaceOnUse">
<stop stop-color="#766AFF"/>
<stop offset="1" stop-color="#9C84FD"/>
</linearGradient>
<linearGradient id="paint41_linear_1_380" x1="19.8885" y1="53.2473" x2="32.1282" y2="8.49323" gradientUnits="userSpaceOnUse">
<stop stop-color="#7B6EFF"/>
<stop offset="0.0834" stop-color="#7A6DFF"/>
<stop offset="0.3708" stop-color="#36B9DB"/>
<stop offset="0.6295" stop-color="#239AD3"/>
<stop offset="0.848" stop-color="#796CFF"/>
<stop offset="1" stop-color="#5647FF"/>
</linearGradient>
<linearGradient id="paint42_linear_1_380" x1="25.9984" y1="37.415" x2="20.5723" y2="38.8001" gradientUnits="userSpaceOnUse">
<stop stop-color="#766AFF"/>
<stop offset="1" stop-color="#9C84FD"/>
</linearGradient>
<linearGradient id="paint43_linear_1_380" x1="30.3161" y1="46.7437" x2="32.4587" y2="44.1351" gradientUnits="userSpaceOnUse">
<stop stop-color="#7B6EFF"/>
<stop offset="0.0834" stop-color="#7A6DFF"/>
<stop offset="0.3708" stop-color="#36B9DB"/>
<stop offset="0.6295" stop-color="#239AD3"/>
<stop offset="0.848" stop-color="#796CFF"/>
<stop offset="1" stop-color="#5647FF"/>
</linearGradient>
<linearGradient id="paint44_linear_1_380" x1="30.0689" y1="46.487" x2="30.9587" y2="46.2144" gradientUnits="userSpaceOnUse">
<stop stop-color="#7B6EFF"/>
<stop offset="0.0834" stop-color="#7A6DFF"/>
<stop offset="0.3708" stop-color="#36B9DB"/>
<stop offset="0.6295" stop-color="#239AD3"/>
<stop offset="0.848" stop-color="#796CFF"/>
<stop offset="1" stop-color="#5647FF"/>
</linearGradient>
<linearGradient id="paint45_linear_1_380" x1="29.9782" y1="43.9923" x2="30.4136" y2="42.3956" gradientUnits="userSpaceOnUse">
<stop stop-color="#7B6EFF"/>
<stop offset="0.0834" stop-color="#7A6DFF"/>
<stop offset="0.3708" stop-color="#36B9DB"/>
<stop offset="0.6295" stop-color="#239AD3"/>
<stop offset="0.848" stop-color="#796CFF"/>
<stop offset="1" stop-color="#5647FF"/>
</linearGradient>
<linearGradient id="paint46_linear_1_380" x1="30.0689" y1="46.487" x2="30.9587" y2="46.2144" gradientUnits="userSpaceOnUse">
<stop stop-color="#7B6EFF"/>
<stop offset="0.0834" stop-color="#7A6DFF"/>
<stop offset="0.3708" stop-color="#36B9DB"/>
<stop offset="0.6295" stop-color="#239AD3"/>
<stop offset="0.848" stop-color="#796CFF"/>
<stop offset="1" stop-color="#5647FF"/>
</linearGradient>
<linearGradient id="paint47_linear_1_380" x1="29.9782" y1="43.9923" x2="30.4136" y2="42.3956" gradientUnits="userSpaceOnUse">
<stop stop-color="#7B6EFF"/>
<stop offset="0.0834" stop-color="#7A6DFF"/>
<stop offset="0.3708" stop-color="#36B9DB"/>
<stop offset="0.6295" stop-color="#239AD3"/>
<stop offset="0.848" stop-color="#796CFF"/>
<stop offset="1" stop-color="#5647FF"/>
</linearGradient>
<linearGradient id="paint48_linear_1_380" x1="33.4091" y1="45.0121" x2="35.5513" y2="42.4014" gradientUnits="userSpaceOnUse">
<stop stop-color="#7B6EFF"/>
<stop offset="0.0834" stop-color="#7A6DFF"/>
<stop offset="0.3708" stop-color="#36B9DB"/>
<stop offset="0.6295" stop-color="#239AD3"/>
<stop offset="0.848" stop-color="#796CFF"/>
<stop offset="1" stop-color="#5647FF"/>
</linearGradient>
<linearGradient id="paint49_linear_1_380" x1="33.162" y1="44.7553" x2="34.0518" y2="44.4828" gradientUnits="userSpaceOnUse">
<stop stop-color="#7B6EFF"/>
<stop offset="0.0834" stop-color="#7A6DFF"/>
<stop offset="0.3708" stop-color="#36B9DB"/>
<stop offset="0.6295" stop-color="#239AD3"/>
<stop offset="0.848" stop-color="#796CFF"/>
<stop offset="1" stop-color="#5647FF"/>
</linearGradient>
<linearGradient id="paint50_linear_1_380" x1="33.0712" y1="42.2613" x2="33.5073" y2="40.6626" gradientUnits="userSpaceOnUse">
<stop stop-color="#7B6EFF"/>
<stop offset="0.0834" stop-color="#7A6DFF"/>
<stop offset="0.3708" stop-color="#36B9DB"/>
<stop offset="0.6295" stop-color="#239AD3"/>
<stop offset="0.848" stop-color="#796CFF"/>
<stop offset="1" stop-color="#5647FF"/>
</linearGradient>
<linearGradient id="paint51_linear_1_380" x1="33.162" y1="44.7553" x2="34.0518" y2="44.4828" gradientUnits="userSpaceOnUse">
<stop stop-color="#7B6EFF"/>
<stop offset="0.0834" stop-color="#7A6DFF"/>
<stop offset="0.3708" stop-color="#36B9DB"/>
<stop offset="0.6295" stop-color="#239AD3"/>
<stop offset="0.848" stop-color="#796CFF"/>
<stop offset="1" stop-color="#5647FF"/>
</linearGradient>
<linearGradient id="paint52_linear_1_380" x1="33.0712" y1="42.2613" x2="33.5073" y2="40.6626" gradientUnits="userSpaceOnUse">
<stop stop-color="#7B6EFF"/>
<stop offset="0.0834" stop-color="#7A6DFF"/>
<stop offset="0.3708" stop-color="#36B9DB"/>
<stop offset="0.6295" stop-color="#239AD3"/>
<stop offset="0.848" stop-color="#796CFF"/>
<stop offset="1" stop-color="#5647FF"/>
</linearGradient>
<linearGradient id="paint53_linear_1_380" x1="36.5039" y1="43.2807" x2="38.6465" y2="40.672" gradientUnits="userSpaceOnUse">
<stop stop-color="#7B6EFF"/>
<stop offset="0.0834" stop-color="#7A6DFF"/>
<stop offset="0.3708" stop-color="#36B9DB"/>
<stop offset="0.6295" stop-color="#239AD3"/>
<stop offset="0.848" stop-color="#796CFF"/>
<stop offset="1" stop-color="#5647FF"/>
</linearGradient>
<linearGradient id="paint54_linear_1_380" x1="36.2568" y1="43.0241" x2="37.1465" y2="42.7517" gradientUnits="userSpaceOnUse">
<stop stop-color="#7B6EFF"/>
<stop offset="0.0834" stop-color="#7A6DFF"/>
<stop offset="0.3708" stop-color="#36B9DB"/>
<stop offset="0.6295" stop-color="#239AD3"/>
<stop offset="0.848" stop-color="#796CFF"/>
<stop offset="1" stop-color="#5647FF"/>
</linearGradient>
<linearGradient id="paint55_linear_1_380" x1="36.1661" y1="40.5299" x2="36.6025" y2="38.9313" gradientUnits="userSpaceOnUse">
<stop stop-color="#7B6EFF"/>
<stop offset="0.0834" stop-color="#7A6DFF"/>
<stop offset="0.3708" stop-color="#36B9DB"/>
<stop offset="0.6295" stop-color="#239AD3"/>
<stop offset="0.848" stop-color="#796CFF"/>
<stop offset="1" stop-color="#5647FF"/>
</linearGradient>
<linearGradient id="paint56_linear_1_380" x1="36.2568" y1="43.0241" x2="37.1465" y2="42.7517" gradientUnits="userSpaceOnUse">
<stop stop-color="#7B6EFF"/>
<stop offset="0.0834" stop-color="#7A6DFF"/>
<stop offset="0.3708" stop-color="#36B9DB"/>
<stop offset="0.6295" stop-color="#239AD3"/>
<stop offset="0.848" stop-color="#796CFF"/>
<stop offset="1" stop-color="#5647FF"/>
</linearGradient>
<linearGradient id="paint57_linear_1_380" x1="36.1661" y1="40.5299" x2="36.6025" y2="38.9313" gradientUnits="userSpaceOnUse">
<stop stop-color="#7B6EFF"/>
<stop offset="0.0834" stop-color="#7A6DFF"/>
<stop offset="0.3708" stop-color="#36B9DB"/>
<stop offset="0.6295" stop-color="#239AD3"/>
<stop offset="0.848" stop-color="#796CFF"/>
<stop offset="1" stop-color="#5647FF"/>
</linearGradient>
<linearGradient id="paint58_linear_1_380" x1="82.3617" y1="64.2396" x2="74.8845" y2="67.5302" gradientUnits="userSpaceOnUse">
<stop stop-color="#6A82FF"/>
<stop offset="1" stop-color="#84BBFD"/>
</linearGradient>
<linearGradient id="paint59_linear_1_380" x1="69.7053" y1="48.3019" x2="66.5184" y2="48.7232" gradientUnits="userSpaceOnUse">
<stop stop-color="#6A82FF"/>
<stop offset="1" stop-color="#84BBFD"/>
</linearGradient>
<linearGradient id="paint60_linear_1_380" x1="71.9324" y1="58.3921" x2="68.7474" y2="58.8129" gradientUnits="userSpaceOnUse">
<stop stop-color="#6A82FF"/>
<stop offset="1" stop-color="#84BBFD"/>
</linearGradient>
<linearGradient id="paint61_linear_1_380" x1="81.5557" y1="45.3644" x2="61.4726" y2="54.1157" gradientUnits="userSpaceOnUse">
<stop stop-color="#766AFF"/>
<stop offset="1" stop-color="#9C84FD"/>
</linearGradient>
<linearGradient id="paint62_linear_1_380" x1="47.1686" y1="51.8711" x2="43.9137" y2="52.4984" gradientUnits="userSpaceOnUse">
<stop stop-color="#6A82FF"/>
<stop offset="1" stop-color="#84BBFD"/>
</linearGradient>
<linearGradient id="paint63_linear_1_380" x1="47.1686" y1="59.2767" x2="43.9121" y2="59.8998" gradientUnits="userSpaceOnUse">
<stop stop-color="#6A82FF"/>
<stop offset="1" stop-color="#84BBFD"/>
</linearGradient>
</defs>
</svg>
