<svg width="75" height="98" viewBox="0 0 75 98" fill="none" xmlns="http://www.w3.org/2000/svg">
<path d="M0.557144 76.9736L45.8554 48.8943L74.1684 66.4432L28.9594 94.4658L0.557144 76.9736Z" fill="url(#paint0_linear_1_509)"/>
<path d="M28.9594 97.9999L74.1684 69.8656V66.4431L28.9594 94.4657V97.9999Z" fill="#3E7BDE"/>
<path d="M0.512421 80.4235L28.9594 97.9999V94.4657L0.557135 76.9734L0.512421 80.4235Z" fill="#3E7BDE"/>
<path opacity="0.3" d="M0.512421 80.4235L28.9594 97.9999V94.4657L0.557135 76.9734L0.512421 80.4235Z" fill="#3E7BDE"/>
<path d="M7.98459 19.5711L13.2472 22.8338V81.5472L7.98459 78.2845V19.5711Z" fill="#3E7BDE"/>
<path d="M44.8211 3.26099L13.2472 22.8339L7.98459 19.5711L39.5585 0L44.8211 3.26099Z" fill="#3E7BDE"/>
<path d="M44.8211 61.5741L13.2472 81.5473V22.8339L44.8211 3.26105V61.5741Z" fill="#3E7BDE"/>
<path opacity="0.3" d="M7.98459 19.5711L13.2472 22.8338V81.5472L7.98459 78.2845V19.5711Z" fill="#3E7BDE"/>
<path opacity="0.3" d="M44.8211 3.26099L13.2472 22.8339L7.98459 19.5711L39.5585 0L44.8211 3.26099Z" fill="#3E7BDE"/>
<path d="M16.0443 25.2701L41.6546 9.3964C41.8883 9.25208 42.1907 9.42045 42.1907 9.69535V21.9164C42.1907 22.0383 42.1271 22.1517 42.0223 22.2153L16.412 37.8554C16.1783 37.998 15.8777 37.8296 15.8777 37.5564V25.5708C15.8777 25.4471 15.9413 25.3354 16.0443 25.2701Z" fill="url(#paint1_linear_1_509)"/>
<path d="M16.68 25.6498L42.189 9.83798V9.69364C42.189 9.41874 41.8866 9.25037 41.6529 9.39469L16.0426 25.2684C15.9395 25.332 15.876 25.4454 15.876 25.5674V37.553C15.876 37.8262 16.1766 37.9946 16.4103 37.852L16.5134 37.7884V25.9454C16.5151 25.8268 16.5769 25.7134 16.68 25.6498Z" fill="url(#paint2_linear_1_509)"/>
<path d="M16.979 42.1972L20.5818 39.9637V44.4308L16.979 46.6644V42.1972Z" fill="#7EE2F4"/>
<path d="M16.3209 46.2556L16.979 46.6645V42.1974L16.3209 41.7902V46.2556Z" fill="#7EE2F4"/>
<path d="M16.3209 41.79L19.9341 39.5616L20.5818 39.9636L16.979 42.1972L16.3209 41.79Z" fill="#7EE2F4"/>
<path opacity="0.3" d="M16.3209 46.2556L16.979 46.6645V42.1974L16.3209 41.7902V46.2556Z" fill="#7EE2F4"/>
<path opacity="0.3" d="M16.3209 41.79L19.9341 39.5616L20.5818 39.9636L16.979 42.1972L16.3209 41.79Z" fill="#7EE2F4"/>
<path d="M22.2708 39.0478L25.8737 36.8142V41.2813L22.2708 43.5149V39.0478Z" fill="#7EE2F4"/>
<path d="M21.6127 43.106L22.2708 43.5149V39.0478L21.6127 38.6389V43.106Z" fill="#7EE2F4"/>
<path d="M21.6127 38.6389L25.226 36.4122L25.8737 36.8142L22.2708 39.0478L21.6127 38.6389Z" fill="#7EE2F4"/>
<path opacity="0.3" d="M21.6127 43.106L22.2708 43.5149V39.0478L21.6127 38.6389V43.106Z" fill="#7EE2F4"/>
<path opacity="0.3" d="M21.6127 38.6389L25.226 36.4122L25.8737 36.8142L22.2708 39.0478L21.6127 38.6389Z" fill="#7EE2F4"/>
<path d="M27.5609 35.8984L31.1638 33.6648V38.1319L27.5609 40.3638V35.8984Z" fill="#7EE2F4"/>
<path d="M26.9028 39.9566L27.5609 40.3638V35.8984L26.9028 35.4895V39.9566Z" fill="#7EE2F4"/>
<path d="M26.9028 35.4896L30.5161 33.2629L31.1638 33.665L27.5609 35.8985L26.9028 35.4896Z" fill="#7EE2F4"/>
<path opacity="0.3" d="M26.9028 39.9566L27.5609 40.3638V35.8984L26.9028 35.4895V39.9566Z" fill="#7EE2F4"/>
<path opacity="0.3" d="M26.9028 35.4896L30.5161 33.2629L31.1638 33.665L27.5609 35.8985L26.9028 35.4896Z" fill="#7EE2F4"/>
<path d="M32.851 32.749L36.4556 30.5154V34.9808L32.851 37.2144V32.749Z" fill="#7EE2F4"/>
<path d="M32.1947 36.8073L32.851 37.2145V32.7491L32.1947 32.3401V36.8073Z" fill="#7EE2F4"/>
<path d="M32.1947 32.3402L35.8079 30.1135L36.4556 30.5156L32.851 32.7491L32.1947 32.3402Z" fill="#7EE2F4"/>
<path opacity="0.3" d="M32.1947 36.8073L32.851 37.2145V32.7491L32.1947 32.3401V36.8073Z" fill="#7EE2F4"/>
<path opacity="0.3" d="M32.1947 32.3402L35.8079 30.1135L36.4556 30.5156L32.851 32.7491L32.1947 32.3402Z" fill="#7EE2F4"/>
<path d="M17.0649 50.403L21.7742 47.4839V53.3221L17.0649 56.2412V50.403Z" fill="#8781F7"/>
<path d="M16.2058 55.7086L17.0649 56.2412V50.403L16.2058 49.8704V55.7086Z" fill="#8781F7"/>
<path d="M16.2058 49.8703L20.9272 46.9598L21.7742 47.4838L17.0649 50.4029L16.2058 49.8703Z" fill="#8781F7"/>
<path opacity="0.3" d="M16.2058 55.7086L17.0649 56.2412V50.403L16.2058 49.8704V55.7086Z" fill="#8781F7"/>
<path opacity="0.3" d="M16.2058 49.8703L20.9272 46.9598L21.7742 47.4838L17.0649 50.4029L16.2058 49.8703Z" fill="#8781F7"/>
<path d="M23.9804 46.2864L28.6897 43.3672V49.2054L23.9804 52.1245V46.2864Z" fill="#8781F7"/>
<path d="M23.1213 51.5919L23.9804 52.1245V46.2864L23.1213 45.7537V51.5919Z" fill="#8781F7"/>
<path d="M23.1213 45.7537L27.8427 42.8432L28.6897 43.3672L23.9803 46.2863L23.1213 45.7537Z" fill="#8781F7"/>
<path opacity="0.3" d="M23.1213 51.5919L23.9804 52.1245V46.2864L23.1213 45.7537V51.5919Z" fill="#8781F7"/>
<path opacity="0.3" d="M23.1213 45.7537L27.8427 42.8432L28.6897 43.3672L23.9803 46.2863L23.1213 45.7537Z" fill="#8781F7"/>
<path d="M30.8958 42.1696L35.6051 39.2505V45.0887L30.8958 48.0078V42.1696Z" fill="#8781F7"/>
<path d="M30.035 47.4751L30.8958 48.0078V42.1696L30.035 41.637V47.4751Z" fill="#8781F7"/>
<path d="M30.035 41.6371L34.7581 38.7266L35.6051 39.2506L30.8958 42.1697L30.035 41.6371Z" fill="#8781F7"/>
<path opacity="0.3" d="M30.035 47.4751L30.8958 48.0078V42.1696L30.035 41.637V47.4751Z" fill="#8781F7"/>
<path opacity="0.3" d="M30.035 41.6371L34.7581 38.7266L35.6051 39.2506L30.8958 42.1697L30.035 41.6371Z" fill="#8781F7"/>
<path d="M37.8095 38.055L42.5189 35.1359V40.974L37.8095 43.8931V38.055Z" fill="#8781F7"/>
<path d="M36.9504 43.3587L37.8095 43.8931V38.0549L36.9504 37.5223V43.3587Z" fill="#8781F7"/>
<path d="M36.9504 37.5222L41.6736 34.61L42.5189 35.1357L37.8095 38.0548L36.9504 37.5222Z" fill="#8781F7"/>
<path opacity="0.3" d="M36.9504 43.3587L37.8095 43.8931V38.0549L36.9504 37.5223V43.3587Z" fill="#8781F7"/>
<path opacity="0.3" d="M36.9504 37.5222L41.6736 34.61L42.5189 35.1357L37.8095 38.0548L36.9504 37.5222Z" fill="#8781F7"/>
<path d="M17.0649 59.1068L21.7742 56.1877V62.0259L17.0649 64.9449V59.1068Z" fill="#8781F7"/>
<path d="M16.2058 64.4107L17.0649 64.945V59.1069L16.2058 58.5725V64.4107Z" fill="#8781F7"/>
<path d="M16.2058 58.5725L20.9272 55.662L21.7742 56.1877L17.0649 59.1068L16.2058 58.5725Z" fill="#8781F7"/>
<path opacity="0.3" d="M16.2058 64.4107L17.0649 64.945V59.1069L16.2058 58.5725V64.4107Z" fill="#8781F7"/>
<path opacity="0.3" d="M16.2058 58.5725L20.9272 55.662L21.7742 56.1877L17.0649 59.1068L16.2058 58.5725Z" fill="#8781F7"/>
<path d="M23.9804 54.9904L28.6897 52.0713V57.9095L23.9804 60.8286V54.9904Z" fill="#8781F7"/>
<path d="M23.1213 60.296L23.9804 60.8286V54.9904L23.1213 54.4578V60.296Z" fill="#8781F7"/>
<path d="M23.1213 54.4576L27.8427 51.5453L28.6897 52.0711L23.9803 54.9902L23.1213 54.4576Z" fill="#8781F7"/>
<path opacity="0.3" d="M23.1213 60.296L23.9804 60.8286V54.9904L23.1213 54.4578V60.296Z" fill="#8781F7"/>
<path opacity="0.3" d="M23.1213 54.4576L27.8427 51.5453L28.6897 52.0711L23.9803 54.9902L23.1213 54.4576Z" fill="#8781F7"/>
<path d="M30.8958 50.8737L35.6051 47.9546V53.7928L30.8958 56.7119V50.8737Z" fill="#8781F7"/>
<path d="M30.035 56.1792L30.8958 56.7118V50.8736L30.035 50.341V56.1792Z" fill="#8781F7"/>
<path d="M30.035 50.341L34.7581 47.4305L35.6051 47.9545L30.8958 50.8736L30.035 50.341Z" fill="#8781F7"/>
<path opacity="0.3" d="M30.035 56.1792L30.8958 56.7118V50.8736L30.035 50.341V56.1792Z" fill="#8781F7"/>
<path opacity="0.3" d="M30.035 50.341L34.7581 47.4305L35.6051 47.9545L30.8958 50.8736L30.035 50.341Z" fill="#8781F7"/>
<path d="M36.9504 52.8048L37.8095 52.6657V46.7571L36.9504 46.2244V52.8048Z" fill="url(#paint3_linear_1_509)"/>
<path d="M36.9504 46.2243L41.6736 43.3138L42.5189 43.8379L37.8095 46.757L36.9504 46.2243Z" fill="url(#paint4_linear_1_509)"/>
<path opacity="0.3" d="M36.9504 46.2243L41.6736 43.3138L42.5189 43.8379L37.8095 46.757L36.9504 46.2243Z" fill="url(#paint5_linear_1_509)"/>
<path d="M37.8095 46.757V51.8976V52.6982V61.5569L42.5189 58.6378V49.6761V48.9785V43.8379L37.8095 46.757Z" fill="url(#paint6_linear_1_509)"/>
<path d="M36.9504 61.0243L37.8095 61.5569V52.6141L36.9504 52.0815V61.0243Z" fill="url(#paint7_linear_1_509)"/>
<path opacity="0.3" d="M36.9504 46.2244V52.0815V52.8048V61.0243L37.8095 61.557V52.6262V52.6141V46.7571L36.9504 46.2244Z" fill="url(#paint8_linear_1_509)"/>
<path d="M17.0649 67.809L21.7742 64.89V70.7281L17.0649 73.6472V67.809Z" fill="#8781F7"/>
<path d="M16.2058 73.1145L17.0649 73.6472V67.809L16.2058 67.2764V73.1145Z" fill="#8781F7"/>
<path d="M16.2058 67.2765L20.9272 64.366L21.7742 64.8901L17.0649 67.8092L16.2058 67.2765Z" fill="#8781F7"/>
<path opacity="0.3" d="M16.2058 73.1145L17.0649 73.6472V67.809L16.2058 67.2764V73.1145Z" fill="#8781F7"/>
<path opacity="0.3" d="M16.2058 67.2765L20.9272 64.366L21.7742 64.8901L17.0649 67.8092L16.2058 67.2765Z" fill="#8781F7"/>
<path d="M23.9804 63.6924L28.6897 60.7733V66.6115L23.9804 69.5306V63.6924Z" fill="#8781F7"/>
<path d="M23.1213 68.998L23.9804 69.5306V63.6924L23.1213 63.1598V68.998Z" fill="#8781F7"/>
<path d="M23.1213 63.1599L27.8427 60.2494L28.6897 60.7734L23.9803 63.6925L23.1213 63.1599Z" fill="#8781F7"/>
<path opacity="0.3" d="M23.1213 68.998L23.9804 69.5306V63.6924L23.1213 63.1598V68.998Z" fill="#8781F7"/>
<path opacity="0.3" d="M23.1213 63.1599L27.8427 60.2494L28.6897 60.7734L23.9803 63.6925L23.1213 63.1599Z" fill="#8781F7"/>
<path d="M30.8958 59.5759L35.6051 56.6568V62.495L30.8958 65.414V59.5759Z" fill="#8781F7"/>
<path d="M30.035 64.8815L30.8958 65.4141V59.5759L30.035 59.0433V64.8815Z" fill="#8781F7"/>
<path d="M30.035 59.0433L34.7581 56.1328L35.6051 56.6568L30.8958 59.5759L30.035 59.0433Z" fill="#8781F7"/>
<path opacity="0.3" d="M30.035 64.8815L30.8958 65.4141V59.5759L30.035 59.0433V64.8815Z" fill="#8781F7"/>
<path opacity="0.3" d="M30.035 59.0433L34.7581 56.1328L35.6051 56.6568L30.8958 59.5759L30.035 59.0433Z" fill="#8781F7"/>
<path d="M38.1428 29.5982L41.7457 27.3646V31.8317L38.1428 34.0653V29.5982Z" fill="#7EE2F4"/>
<path d="M37.4847 33.658L38.1428 34.0652V29.5981L37.4847 29.1909V33.658Z" fill="#7EE2F4"/>
<path d="M37.4847 29.1909L41.098 26.9642L41.7457 27.3645L38.1428 29.5981L37.4847 29.1909Z" fill="#7EE2F4"/>
<path opacity="0.3" d="M37.4847 33.658L38.1428 34.0652V29.5981L37.4847 29.1909V33.658Z" fill="#7EE2F4"/>
<path opacity="0.3" d="M37.4847 29.1909L41.098 26.9642L41.7457 27.3645L38.1428 29.5981L37.4847 29.1909Z" fill="#7EE2F4"/>
<path d="M29.0333 74.6353L38.897 68.5222V80.7484L29.0333 86.8632V74.6353Z" fill="#427AE6"/>
<path d="M19.1713 68.5222L29.0333 74.6353V86.8632L19.1713 80.7484V68.5222Z" fill="#427AE6"/>
<path d="M29.0333 62.4091L38.8971 68.5222L29.0333 74.6352L19.1713 68.5222L29.0333 62.4091Z" fill="#427AE6"/>
<path opacity="0.3" d="M19.1713 68.5222L29.0333 74.6353V86.8632L19.1713 80.7484V68.5222Z" fill="#427AE6"/>
<path opacity="0.3" d="M29.0333 62.4091L38.8971 68.5222L29.0333 74.6352L19.1713 68.5222L29.0333 62.4091Z" fill="#427AE6"/>
<path opacity="0.3" d="M29.0333 65.3728L34.1138 68.5221L29.0333 71.6715L23.9528 68.5221L29.0333 65.3728Z" fill="#427AE6"/>
<path opacity="0.3" d="M31.6483 77.0218L35.8199 74.436V79.6093L31.6483 82.195V77.0218Z" fill="#427AE6"/>
<path opacity="0.3" d="M26.42 77.0218L22.2467 74.436V79.6093L26.42 82.195V77.0218Z" fill="#427AE6"/>
<path d="M29.0333 57.9299L33.8733 54.9301V68.6647L29.0333 71.6646V57.9299Z" fill="url(#paint9_linear_1_509)"/>
<path d="M24.1933 54.9301L29.0333 57.9299V71.6646L24.1933 68.6647V54.9301Z" fill="url(#paint10_linear_1_509)"/>
<path d="M24.1933 54.9301L29.0333 57.9299V71.6646L24.1933 68.6647V54.9301Z" fill="url(#paint11_linear_1_509)"/>
<path d="M66.2736 17.9835C62.133 15.5936 55.6231 19.1157 51.7349 25.8525C47.8451 32.5892 48.0496 39.9875 52.1902 42.3774L54.9289 43.9581C54.4616 43.6883 54.0458 43.3516 53.6798 42.9615C53.2881 42.5458 52.9548 42.0664 52.6781 41.5338C50.9205 38.1457 51.4927 32.5961 54.4736 27.4331C57.4546 22.2702 61.975 18.9989 65.7875 18.8271C66.3871 18.7996 66.9678 18.8494 67.5245 18.9817C68.0451 19.1054 68.545 19.2961 69.0123 19.5659L66.2736 17.9835Z" fill="#8781F7"/>
<path d="M69.0123 19.5643C68.5449 19.2945 68.045 19.1038 67.5244 18.9801C66.9695 18.8495 66.3871 18.7997 65.7874 18.8255C61.9749 18.9973 57.4545 22.2686 54.4736 27.4315C51.4926 32.5945 50.9188 38.1441 52.6781 41.5322C52.9547 42.0648 53.2881 42.5442 53.6798 42.9599C54.0475 43.35 54.4615 43.6867 54.9289 43.9565C59.0695 46.3464 65.5795 42.8242 69.4676 36.0874C73.3575 29.3541 73.1529 21.9559 69.0123 19.5643Z" fill="#8781F7"/>
<g opacity="0.3">
<path d="M53.3362 23.4438L56.0404 25.0708C56.4339 24.552 56.8429 24.0606 57.2621 23.5984L54.5818 21.9542C54.1523 22.4198 53.7365 22.918 53.3362 23.4438Z" fill="#8781F7"/>
</g>
<g opacity="0.3">
<path d="M48.9481 35.225L51.6885 36.8727C51.6919 36.1871 51.7469 35.4775 51.8517 34.7491L49.1284 33.0773C49.0167 33.8144 48.9549 34.5326 48.9481 35.225Z" fill="#8781F7"/>
</g>
<g opacity="0.3">
<path d="M49.3123 38.3296L52.0785 39.9928C51.8672 39.2385 51.7417 38.419 51.7022 37.5513L48.9584 35.8676C48.9893 36.7421 49.1079 37.5685 49.3123 38.3296Z" fill="#8781F7"/>
</g>
<g opacity="0.3">
<path d="M54.9718 21.5436L57.6693 23.1655C58.1349 22.6844 58.6125 22.2377 59.0987 21.8305L56.4288 20.1914C55.9322 20.6038 55.4443 21.0556 54.9718 21.5436Z" fill="#8781F7"/>
</g>
<g opacity="0.3">
<path d="M49.223 32.507L51.9497 34.1478C52.0665 33.5087 52.2211 32.8575 52.4135 32.2012L49.7006 30.5363C49.503 31.2012 49.3433 31.8593 49.223 32.507Z" fill="#8781F7"/>
</g>
<g opacity="0.3">
<path d="M51.9497 25.4935L54.6574 27.1223C54.989 26.5691 55.3361 26.0382 55.6986 25.5331L53.0114 23.8837C52.6403 24.3957 52.2864 24.9334 51.9497 25.4935Z" fill="#8781F7"/>
</g>
<g opacity="0.3">
<path d="M49.8673 30.0105L52.5871 31.6461C52.7829 31.0431 53.0097 30.4383 53.2709 29.8318L50.5683 28.1738C50.3003 28.7872 50.0666 29.4006 49.8673 30.0105Z" fill="#8781F7"/>
</g>
<g opacity="0.3">
<path d="M66.2736 17.9836C65.107 17.3101 63.7514 17.1056 62.3202 17.3118L64.9764 18.9096C65.2496 18.8684 65.5194 18.8392 65.7874 18.8272C66.3871 18.7997 66.9678 18.8495 67.5244 18.9818C68.045 19.1055 68.5449 19.2962 69.0123 19.566L66.2736 17.9836Z" fill="#8781F7"/>
</g>
<g opacity="0.3">
<path d="M52.1902 42.3776L54.9289 43.9582C54.4615 43.6885 54.0457 43.3517 53.6798 42.9617C53.288 42.5459 52.9547 42.0666 52.6781 41.534C52.5647 41.3158 52.4616 41.0907 52.3689 40.8553L49.5786 39.1423C50.1112 40.5529 50.9823 41.68 52.1902 42.3776Z" fill="#8781F7"/>
</g>
<g opacity="0.3">
<path d="M59.2242 18.3342L61.9045 19.9458C62.6329 19.5729 63.3614 19.2877 64.0795 19.0987L61.4508 17.4854C60.7189 17.6693 59.9716 17.9562 59.2242 18.3342Z" fill="#8781F7"/>
</g>
<g opacity="0.3">
<path d="M56.8961 19.8169L59.5884 21.4354C60.1485 20.999 60.7189 20.6124 61.291 20.2791L58.6366 18.6503C58.0507 18.9854 57.4683 19.3737 56.8961 19.8169Z" fill="#8781F7"/>
</g>
<g opacity="0.3">
<path d="M50.7865 27.6789L53.5011 29.3111C53.7622 28.7424 54.0526 28.1754 54.3721 27.6119L51.6764 25.9573C51.35 26.5278 51.0545 27.1033 50.7865 27.6789Z" fill="#8781F7"/>
</g>
<path d="M49.5769 39.144L52.3671 40.857C52.2571 40.5804 52.161 40.2934 52.0785 39.9945L49.3123 38.3314C49.3896 38.6114 49.479 38.8812 49.5769 39.144Z" fill="#8781F7"/>
<path d="M48.9566 35.8693L51.7005 37.5531C51.6902 37.3297 51.685 37.1047 51.6867 36.8744L48.9464 35.2267C48.9464 35.4432 48.9497 35.6563 48.9566 35.8693Z" fill="#8781F7"/>
<path d="M49.1268 33.0791L51.85 34.7508C51.8792 34.5515 51.9118 34.3505 51.9479 34.1478L49.2212 32.507C49.1886 32.6994 49.156 32.8884 49.1268 33.0791Z" fill="#8781F7"/>
<path d="M49.7023 30.5362L52.4153 32.201C52.4702 32.0172 52.5269 31.8317 52.5871 31.6461L49.8673 30.0104C49.8089 30.1857 49.7539 30.3609 49.7023 30.5362Z" fill="#8781F7"/>
<path d="M50.5665 28.1721L53.2691 29.8301C53.343 29.6566 53.4203 29.483 53.5011 29.3112L50.7865 27.679C50.7109 27.844 50.6387 28.0072 50.5665 28.1721Z" fill="#8781F7"/>
<path d="M51.7349 25.8525C51.7143 25.8886 51.6954 25.923 51.6747 25.9591L54.3705 27.6136C54.4048 27.5535 54.4374 27.4933 54.4718 27.4332C54.5319 27.3284 54.5938 27.227 54.6557 27.124L51.9479 25.4952C51.8774 25.612 51.8053 25.7306 51.7349 25.8525Z" fill="#8781F7"/>
<path d="M53.0114 23.8837L55.6986 25.5331C55.8103 25.3767 55.9253 25.2221 56.0404 25.0709L53.3362 23.4438C53.2262 23.5882 53.1179 23.7359 53.0114 23.8837Z" fill="#8781F7"/>
<path d="M54.5818 21.9526L57.2621 23.5968C57.3961 23.449 57.5318 23.3047 57.6675 23.1638L54.97 21.5419C54.8412 21.6777 54.7106 21.8134 54.5818 21.9526Z" fill="#8781F7"/>
<path d="M56.427 20.1914L59.097 21.8305C59.2585 21.6947 59.4234 21.5642 59.5867 21.437L56.8944 19.8185C56.7397 19.9371 56.5834 20.0625 56.427 20.1914Z" fill="#8781F7"/>
<path d="M58.6348 18.652L61.2893 20.2808C61.4938 20.1622 61.7 20.0506 61.9044 19.9458L59.2242 18.3342C59.0283 18.4338 58.8324 18.5386 58.6348 18.652Z" fill="#8781F7"/>
<path d="M61.4508 17.4854L64.0795 19.0987C64.3819 19.0196 64.6809 18.9561 64.9764 18.9097L62.3202 17.3118C62.0333 17.3513 61.7429 17.4115 61.4508 17.4854Z" fill="#8781F7"/>
<g opacity="0.3">
<path d="M64.7685 35.2473C64.8544 34.9123 64.8836 34.5876 64.8544 34.2749C64.8252 33.9622 64.7444 33.6666 64.6121 33.3883C64.4799 33.11 64.3046 32.8626 64.0847 32.6426C64.3441 32.6873 64.5984 32.6942 64.8458 32.6598C65.0932 32.6255 65.3269 32.555 65.5468 32.4485C65.7667 32.342 65.9729 32.2028 66.1637 32.031C66.3544 31.8592 66.5262 31.6599 66.6791 31.4314C66.9334 31.0517 67.1017 30.6702 67.1842 30.2888C67.2667 29.9074 67.2598 29.5346 67.1619 29.1686C67.064 28.8026 66.8749 28.447 66.5949 28.1016C66.478 27.9573 66.3303 27.8096 66.1653 27.6601L66.9075 26.5519L65.9179 25.8887L65.2153 26.9385L64.796 26.6567L65.4987 25.6069L64.509 24.9437L63.8064 25.9935L63.2411 25.6155C63.1311 25.5416 63.0023 25.5107 62.8528 25.521C62.7034 25.5313 62.5642 25.6344 62.4353 25.8268L56.7088 34.3779C56.5799 34.5704 56.5387 34.737 56.5851 34.8796C56.6315 35.0222 56.7105 35.1288 56.8204 35.2027L57.5867 35.7164L56.9029 36.7369L57.8926 37.4001L58.5764 36.3796L58.9956 36.6613L58.3118 37.6819L59.3015 38.3451L60.0179 37.2764C60.0867 37.3091 60.1536 37.34 60.2189 37.3692C60.523 37.4981 60.8289 37.5891 61.1347 37.6441C61.4405 37.6991 61.7395 37.7128 62.0298 37.6853C62.3202 37.6578 62.6002 37.5891 62.8699 37.4757C63.1397 37.3623 63.3958 37.2043 63.6397 36.9998C63.8837 36.7953 64.107 36.5428 64.308 36.2404C64.5297 35.9139 64.6826 35.5841 64.7685 35.2473ZM65.6568 30.0173C65.5932 30.2459 65.4832 30.4778 65.3286 30.7098C65.1894 30.9176 65.0245 31.098 64.8356 31.2544C64.6448 31.409 64.4369 31.5173 64.2118 31.5757C63.985 31.6358 63.7462 31.6427 63.4919 31.598C63.2394 31.5533 62.9524 31.4245 62.6329 31.2114L61.2326 30.2733L63.3116 27.1687L64.583 28.0209C64.9352 28.2563 65.1946 28.4814 65.363 28.6944C65.5314 28.9074 65.6379 29.1239 65.6843 29.3438C65.7307 29.562 65.7203 29.7871 65.6568 30.0173ZM62.3579 36.0583C62.1312 36.2009 61.8941 36.2851 61.6433 36.3143C61.3924 36.3435 61.1399 36.3211 60.8839 36.2507C60.6279 36.1785 60.3598 36.0497 60.078 35.8607L58.2912 34.6632L60.5539 31.2853L62.0264 32.2715C62.413 32.5292 62.7068 32.7835 62.9112 33.0309C63.114 33.2784 63.2514 33.5326 63.3219 33.7938C63.3923 34.0549 63.3974 34.3247 63.3408 34.6013C63.2841 34.8779 63.1586 35.1597 62.9662 35.4449C62.7875 35.7129 62.5847 35.9174 62.3579 36.0583Z" fill="white"/>
</g>
<g opacity="0.3">
<path d="M58.3531 43.5716C58.3411 43.3998 58.4699 43.252 58.6417 43.24C58.8135 43.228 58.9613 43.3551 58.9733 43.5287C58.9854 43.6988 58.8565 43.8482 58.6847 43.8603C58.6778 43.8603 58.6709 43.8603 58.664 43.8603C58.5008 43.8585 58.3634 43.7348 58.3531 43.5716ZM56.5198 43.6146C56.3583 43.5613 56.269 43.3843 56.3206 43.2228C56.3738 43.0596 56.549 42.9703 56.7123 43.0218C56.8755 43.0751 56.9648 43.2503 56.9133 43.4135C56.8703 43.5458 56.7484 43.6283 56.6178 43.6283C56.5834 43.6283 56.5525 43.6249 56.5198 43.6146ZM60.3874 43.2074C60.3289 43.0459 60.4131 42.8672 60.5746 42.8088C60.7361 42.7503 60.9148 42.8328 60.9715 42.9961C61.0299 43.1576 60.9457 43.3362 60.7859 43.3947C60.7498 43.4067 60.7155 43.4135 60.6811 43.4135C60.554 43.4135 60.4337 43.3345 60.3874 43.2074ZM54.6333 42.4995C54.5062 42.381 54.5011 42.1851 54.6196 42.0597C54.7348 41.9325 54.934 41.9274 55.0594 42.0459C55.1831 42.161 55.1917 42.3586 55.0732 42.4858C55.013 42.5493 54.9306 42.5837 54.8481 42.5837C54.7708 42.582 54.6935 42.5562 54.6333 42.4995ZM62.2773 42.3621C62.1879 42.2143 62.236 42.0236 62.3821 41.936C62.5298 41.8466 62.7205 41.8947 62.8082 42.0408C62.8958 42.1885 62.8494 42.3792 62.7034 42.4669C62.6536 42.4978 62.5968 42.5098 62.5436 42.5098C62.4388 42.5115 62.3357 42.46 62.2773 42.3621ZM63.9868 41.1937C63.8768 41.0615 63.8958 40.8656 64.0264 40.7556C64.1587 40.6457 64.3562 40.6628 64.4661 40.7951C64.5761 40.9274 64.5572 41.1233 64.4266 41.2333C64.3665 41.2814 64.2961 41.3054 64.2274 41.3054C64.138 41.3054 64.0486 41.2676 63.9868 41.1937ZM53.3603 40.7367C53.2864 40.5838 53.3499 40.3965 53.5045 40.3226C53.6575 40.2488 53.8448 40.3123 53.9186 40.467C53.9925 40.6216 53.9289 40.8072 53.7743 40.881C53.7313 40.9017 53.685 40.912 53.6403 40.912C53.5235 40.912 53.4118 40.8484 53.3603 40.7367ZM65.516 39.7952C65.3923 39.6784 65.3854 39.4825 65.5022 39.3571C65.5022 39.3571 65.5022 39.3571 65.5022 39.3553C65.619 39.2316 65.8166 39.2231 65.9421 39.3416C66.0692 39.4602 66.0744 39.6543 65.9558 39.7814C65.8957 39.8484 65.8132 39.8811 65.7307 39.8811C65.6534 39.8811 65.5761 39.8519 65.516 39.7952ZM52.7056 38.6921C52.673 38.5221 52.7847 38.3606 52.953 38.3296C53.1231 38.297 53.2847 38.4087 53.3173 38.577C53.3482 38.7471 53.2365 38.9086 53.0681 38.9413C53.0475 38.943 53.0286 38.9447 53.0097 38.9447C52.862 38.9447 52.7314 38.8399 52.7056 38.6921ZM66.8681 38.2248C66.7289 38.1235 66.6998 37.9293 66.8046 37.7901C66.8046 37.7901 66.8046 37.7901 66.8046 37.7919C66.9059 37.6527 67.1018 37.6235 67.2392 37.7283C67.3767 37.8297 67.4059 38.0238 67.3028 38.163C67.2409 38.2437 67.1482 38.2867 67.052 38.2867C66.9884 38.2867 66.9248 38.2661 66.8681 38.2248ZM52.8311 36.883C52.6592 36.8812 52.52 36.7421 52.5217 36.5703C52.5217 36.3985 52.6626 36.2593 52.8327 36.261C53.0045 36.261 53.1437 36.4019 53.1437 36.5737C53.142 36.7438 53.0028 36.883 52.8327 36.883C52.831 36.883 52.8311 36.883 52.8311 36.883ZM68.0433 36.5204C67.8956 36.4311 67.8458 36.2404 67.9351 36.0926C68.0227 35.9449 68.2134 35.895 68.3612 35.9844C68.5089 36.072 68.5553 36.2627 68.4694 36.4105C68.411 36.5084 68.3079 36.5617 68.2014 36.5617C68.1498 36.5634 68.0931 36.5496 68.0433 36.5204ZM52.953 34.8144C52.7829 34.7869 52.6661 34.6305 52.6919 34.4604C52.7194 34.2903 52.8757 34.1752 53.0458 34.1993C53.2159 34.2267 53.331 34.3831 53.307 34.5532C53.2829 34.7061 53.1523 34.8161 52.9994 34.8161C52.984 34.8161 52.9702 34.8161 52.953 34.8144ZM69.0398 34.7027C68.8852 34.6305 68.8181 34.445 68.8903 34.2903C68.9625 34.1357 69.148 34.067 69.3044 34.1391C69.459 34.2113 69.5261 34.3986 69.4539 34.5532C69.4006 34.6649 69.2889 34.7319 69.1721 34.7319C69.1291 34.7319 69.0845 34.7233 69.0398 34.7027ZM69.8508 32.7938C69.6876 32.7371 69.6016 32.5619 69.6583 32.4004C69.715 32.2372 69.8903 32.1513 70.0518 32.208C70.215 32.2647 70.3009 32.4399 70.2442 32.6014C70.2013 32.7303 70.081 32.8127 69.9505 32.8127C69.9161 32.8127 69.8834 32.8076 69.8508 32.7938ZM53.3585 32.7818C53.1936 32.7354 53.0974 32.5636 53.1455 32.3987C53.1902 32.2337 53.3637 32.1375 53.5286 32.1839C53.6918 32.232 53.7897 32.4038 53.7416 32.5688C53.7021 32.7062 53.5784 32.7938 53.4427 32.7938C53.4135 32.7938 53.386 32.7904 53.3585 32.7818ZM53.9993 30.8111C53.8396 30.7476 53.7622 30.5672 53.8275 30.4074C53.8911 30.2476 54.0715 30.1703 54.2313 30.2356C54.3911 30.2991 54.4684 30.4812 54.4031 30.6393C54.3533 30.7613 54.2382 30.8335 54.1144 30.8335C54.0766 30.8352 54.0371 30.8283 53.9993 30.8111ZM70.4469 30.8111C70.2786 30.7733 70.1738 30.6084 70.2116 30.44C70.2494 30.2716 70.4143 30.1668 70.5827 30.2046C70.7493 30.2424 70.8558 30.4056 70.8197 30.574C70.7871 30.7183 70.66 30.818 70.5174 30.818C70.4933 30.818 70.4693 30.8163 70.4469 30.8111ZM54.8446 28.9195C54.6935 28.8404 54.635 28.6514 54.7158 28.5003C54.7965 28.3473 54.9856 28.2889 55.1368 28.3697C55.288 28.4504 55.3464 28.6394 55.2656 28.7906C55.2089 28.8971 55.1024 28.9573 54.9907 28.9573C54.9426 28.9573 54.8928 28.9452 54.8446 28.9195ZM70.8009 28.7683C70.6291 28.7562 70.5019 28.6051 70.5174 28.435C70.5311 28.2632 70.6807 28.136 70.8525 28.1498C71.0226 28.1652 71.1514 28.3147 71.1359 28.4848V28.4865C71.1222 28.648 70.9864 28.77 70.8266 28.77C70.818 28.7717 70.8095 28.7717 70.8009 28.7683ZM55.879 27.124C55.7364 27.0313 55.6969 26.8354 55.7914 26.6928C55.8859 26.5502 56.08 26.5124 56.2226 26.6052C56.3652 26.6997 56.4048 26.8938 56.3103 27.0381C56.2501 27.1275 56.1521 27.1756 56.0508 27.1756C55.9941 27.1756 55.9322 27.1584 55.879 27.124ZM70.526 26.4145C70.5122 26.2426 70.6377 26.0931 70.8095 26.0794C70.9813 26.0657 71.1308 26.1928 71.1445 26.3629C71.1582 26.5347 71.0311 26.6842 70.861 26.6979C70.8507 26.6979 70.8421 26.6997 70.8335 26.6997C70.6754 26.7014 70.538 26.576 70.526 26.4145ZM57.0885 25.442C56.9562 25.332 56.9391 25.1379 57.049 25.0056H57.0473C57.1573 24.875 57.3532 24.8561 57.4872 24.9661C57.6178 25.076 57.6367 25.2702 57.5267 25.4025C57.4666 25.4764 57.3772 25.5142 57.2879 25.5142C57.2174 25.5142 57.1469 25.4918 57.0885 25.442ZM70.1549 24.4506C70.1034 24.2874 70.1944 24.1104 70.3576 24.0606C70.5208 24.0091 70.6961 24.1001 70.7476 24.2634C70.7991 24.4266 70.7081 24.6018 70.5449 24.6534C70.514 24.6637 70.4831 24.6671 70.4521 24.6671C70.3181 24.6688 70.1961 24.5829 70.1549 24.4506ZM58.4751 23.9026C58.3566 23.7789 58.3617 23.5813 58.4871 23.4627C58.6108 23.3442 58.8067 23.351 58.927 23.473C59.0455 23.6002 59.0387 23.7943 58.915 23.9146C58.8548 23.9713 58.7775 23.9988 58.7019 23.9988C58.6177 23.9988 58.537 23.9661 58.4751 23.9026ZM69.2958 22.681C69.2958 22.681 69.2958 22.681 69.2975 22.681C69.1961 22.5418 69.2288 22.3477 69.368 22.248C69.5089 22.1484 69.7013 22.1793 69.8026 22.3202C69.9023 22.4593 69.8697 22.6535 69.7305 22.7531C69.6738 22.7926 69.612 22.8116 69.5501 22.8116C69.4522 22.8116 69.3577 22.7669 69.2958 22.681ZM60.042 22.5452C59.9406 22.4061 59.9733 22.2119 60.1124 22.1123C60.2516 22.0109 60.4458 22.0435 60.5454 22.1827C60.6468 22.3219 60.6141 22.516 60.4749 22.6157C60.4217 22.6552 60.3564 22.6741 60.2946 22.6741C60.1966 22.6724 60.1021 22.6294 60.042 22.5452ZM61.7876 21.4319C61.7103 21.2773 61.7756 21.09 61.9302 21.0161C62.0831 20.9422 62.2704 21.0058 62.3443 21.1587C62.4216 21.3134 62.3563 21.5006 62.2017 21.5745C62.1588 21.5951 62.1123 21.6054 62.0642 21.6054C61.9525 21.6054 61.8409 21.5419 61.7876 21.4319ZM67.8835 21.3683C67.8801 21.3683 67.8767 21.3666 67.8749 21.3649C67.8732 21.3649 67.8732 21.3649 67.8715 21.3632C67.722 21.2755 67.6739 21.0848 67.7615 20.9388C67.8491 20.7893 68.0399 20.7412 68.1859 20.8271V20.8288C68.1877 20.8288 68.1877 20.8288 68.1894 20.8306C68.1911 20.8323 68.1962 20.8323 68.1996 20.8357C68.3474 20.9251 68.3938 21.1158 68.3079 21.2618C68.2495 21.3597 68.1464 21.413 68.0399 21.413C67.9883 21.4113 67.9333 21.3993 67.8835 21.3683ZM63.7119 20.6656C63.6724 20.5007 63.7789 20.3323 63.9456 20.2945C64.114 20.2567 64.2789 20.3615 64.3167 20.5282C64.3562 20.6965 64.2497 20.8615 64.083 20.901C64.0607 20.9062 64.0366 20.9079 64.0143 20.9079C63.8717 20.9079 63.7429 20.8099 63.7119 20.6656ZM66.0383 20.7687C65.8682 20.7498 65.7445 20.5969 65.7634 20.4251C65.7823 20.255 65.9352 20.1313 66.107 20.1502C66.2771 20.1691 66.4008 20.322 66.3801 20.4938C66.363 20.6536 66.229 20.7721 66.0744 20.7721C66.0606 20.7704 66.0503 20.7687 66.0383 20.7687Z" fill="#8781F7"/>
</g>
<path d="M68.6155 65.3365C68.6155 65.2867 68.6103 65.2369 68.6086 65.1871L68.5278 62.146C68.5278 62.6632 68.4041 63.1665 68.1773 63.651C67.8732 64.2988 67.3767 64.9104 66.7203 65.4705C64.4146 67.4326 60.1365 68.7522 55.2347 68.7522C50.3329 68.7522 46.0531 67.4326 43.7491 65.4705C43.122 64.9379 42.6426 64.3572 42.3351 63.7421C42.0791 63.2301 41.9416 62.6958 41.9416 62.146V65.3348V65.4688H41.9485C42.0928 69.0545 48.0049 71.9393 55.2794 71.9393C62.5539 71.9393 68.466 69.0545 68.6103 65.4688H68.6172L68.6155 65.3812C68.6138 65.3674 68.6155 65.352 68.6155 65.3365Z" fill="#8781F7"/>
<path d="M55.233 55.5434C47.8914 55.5434 41.9398 58.5003 41.9398 62.1478C41.9398 62.6976 42.0773 63.232 42.3333 63.744C42.6408 64.3591 43.1219 64.9381 43.7473 65.4724C46.053 67.4345 50.3312 68.7541 55.233 68.7541C60.1348 68.7541 64.4146 67.4345 66.7186 65.4724C67.3767 64.9123 67.8715 64.3007 68.1756 63.6529C68.4024 63.1701 68.5261 62.6667 68.5261 62.1478C68.5261 58.5003 62.5745 55.5434 55.233 55.5434Z" fill="#8781F7"/>
<path opacity="0.3" d="M55.154 56.8869C48.7574 56.8869 43.5738 59.2424 43.5738 62.1478C43.5738 62.5859 43.694 63.012 43.9157 63.4192C44.1837 63.9089 44.6029 64.371 45.1476 64.7954C47.1561 66.3589 50.8827 67.4087 55.154 67.4087C59.4235 67.4087 63.1518 66.3572 65.1603 64.7954C65.7324 64.3504 66.1654 63.8625 66.43 63.3453C66.6276 62.9605 66.7358 62.5601 66.7358 62.1478C66.734 59.2424 61.5488 56.8869 55.154 56.8869Z" stroke="url(#paint12_linear_1_509)" stroke-width="2.63041" stroke-miterlimit="10" stroke-linecap="round" stroke-linejoin="round"/>
<path opacity="0.3" d="M68.6155 65.3365C68.6155 65.2867 68.6103 65.2369 68.6086 65.1871L68.5278 62.146C68.5278 62.6632 68.4041 63.1665 68.1773 63.651C67.8732 64.2988 67.3767 64.9104 66.7203 65.4705C64.4146 67.4326 60.1365 68.7522 55.2347 68.7522C50.3329 68.7522 46.0531 67.4326 43.7491 65.4705C43.122 64.9379 42.6426 64.3572 42.3351 63.7421C42.0791 63.2301 41.9416 62.6958 41.9416 62.146V65.3348V65.4688H41.9485C42.0928 69.0545 48.0049 71.9393 55.2794 71.9393C62.5539 71.9393 68.466 69.0545 68.6103 65.4688H68.6172L68.6155 65.3812C68.6138 65.3674 68.6155 65.352 68.6155 65.3365Z" fill="#8781F7"/>
<path d="M43.7473 65.4724C43.536 65.2937 43.3436 65.1081 43.1666 64.9191V68.1011C43.3453 68.2918 43.5411 68.4791 43.7542 68.6595V65.4775C43.7525 65.4758 43.749 65.4741 43.7473 65.4724Z" fill="#8781F7"/>
<path d="M45.4946 66.6425V69.8261C45.6836 69.9275 45.8812 70.0237 46.0822 70.1199V66.938C45.8795 66.8418 45.6836 66.7438 45.4946 66.6425Z" fill="#8781F7"/>
<path d="M47.821 67.632V70.814C48.0134 70.8776 48.2092 70.9411 48.4085 71.0012V67.8175C48.211 67.7574 48.0134 67.6956 47.821 67.632Z" fill="#8781F7"/>
<path d="M50.1491 68.2523V71.4377C50.3432 71.4772 50.5391 71.5151 50.7367 71.5511V68.3657C50.5391 68.3297 50.3432 68.2918 50.1491 68.2523Z" fill="#8781F7"/>
<path d="M52.4771 68.6115V71.7969C52.6712 71.8175 52.8671 71.8364 53.0647 71.8519V68.6665C52.8671 68.6493 52.6712 68.6321 52.4771 68.6115Z" fill="#8781F7"/>
<path d="M55.233 68.7539C55.0887 68.7539 54.946 68.7522 54.8034 68.7505V71.9376C54.9615 71.9411 55.1178 71.9427 55.2776 71.9427C55.3154 71.9427 55.3532 71.941 55.391 71.941V68.7522C55.3378 68.7522 55.2862 68.7539 55.233 68.7539Z" fill="#8781F7"/>
<path d="M57.1315 68.6869V71.8791C57.329 71.8654 57.5249 71.8499 57.719 71.831V68.637C57.5249 68.6559 57.329 68.6714 57.1315 68.6869Z" fill="#8781F7"/>
<path d="M59.4578 68.4121V71.6112C59.6554 71.5786 59.8512 71.5443 60.0454 71.5082V68.309C59.853 68.3451 59.6554 68.3795 59.4578 68.4121Z" fill="#8781F7"/>
<path d="M61.7859 67.8949V71.1026C61.9852 71.0477 62.1811 70.9892 62.3735 70.9291V67.7197C62.1811 67.7798 61.9852 67.8382 61.7859 67.8949Z" fill="#8781F7"/>
<path d="M64.1123 67.0616V70.2848C64.3133 70.1972 64.5091 70.1044 64.6998 70.0099V66.7816C64.5108 66.8778 64.315 66.9705 64.1123 67.0616Z" fill="#8781F7"/>
<path d="M66.7186 65.4723C66.6293 65.5479 66.5348 65.6235 66.4403 65.6974V68.9481C66.6499 68.79 66.8457 68.6268 67.0279 68.4584V65.1906C66.9282 65.2868 66.8269 65.3812 66.7186 65.4723Z" fill="#8781F7"/>
<path opacity="0.3" d="M56.6676 58.6445C56.3704 58.7493 56.1092 58.8919 55.8876 59.0723C55.666 59.2527 55.4821 59.464 55.3395 59.7045C55.1952 59.9451 55.0973 60.2045 55.0423 60.4828C54.9444 60.2629 54.8206 60.0671 54.6677 59.897C54.5165 59.7269 54.343 59.586 54.1523 59.4726C53.9599 59.3609 53.7503 59.275 53.5217 59.2166C53.295 59.1582 53.0561 59.1307 52.807 59.1307C52.3895 59.1307 52.015 59.196 51.6851 59.3265C51.3552 59.4571 51.0751 59.653 50.8483 59.9124C50.6215 60.1719 50.448 60.4949 50.3277 60.8832C50.2779 61.0464 50.2418 61.2319 50.2126 61.433H48.9979V62.5188H50.1508V62.9793H48.9979V64.0651H50.1508V64.6854C50.1508 64.8056 50.192 64.9207 50.2762 65.0273C50.3604 65.1355 50.5082 65.1888 50.7195 65.1888H60.1021C60.3135 65.1888 60.4612 65.1355 60.5454 65.0273C60.6296 64.9207 60.6708 64.8056 60.6708 64.6854V63.8435H61.7911V62.7576H60.6708V62.2972H61.7911V61.2113H60.6176C60.6073 61.1426 60.597 61.0756 60.5849 61.012C60.5282 60.7165 60.4424 60.4382 60.329 60.1787C60.2156 59.9193 60.0746 59.6856 59.9062 59.4795C59.7379 59.2733 59.5438 59.0963 59.3204 58.9486C59.0988 58.8008 58.8479 58.6874 58.5679 58.6067C58.2896 58.5259 57.9837 58.4847 57.6538 58.4847C57.293 58.4864 56.9666 58.5396 56.6676 58.6445ZM52.2538 60.6255C52.46 60.5567 52.6902 60.5241 52.9445 60.5241C53.1713 60.5241 53.3929 60.5567 53.6077 60.622C53.8224 60.6873 54.0079 60.7904 54.1677 60.9313C54.3275 61.0722 54.4546 61.2509 54.5509 61.4639C54.6454 61.6787 54.6935 61.9604 54.6935 62.3109V63.8487H51.2864V62.4535C51.2864 62.0669 51.3243 61.756 51.3998 61.5206C51.4754 61.2852 51.5854 61.0945 51.7297 60.9485C51.8723 60.799 52.0476 60.6925 52.2538 60.6255ZM58.5043 60.0585C58.7259 60.1581 58.9115 60.2956 59.0609 60.4708C59.2104 60.6461 59.3221 60.8488 59.3977 61.079C59.4733 61.3093 59.5111 61.579 59.5111 61.8866V63.8469H55.8034V62.2302C55.8034 61.8075 55.8463 61.4553 55.9288 61.1752C56.013 60.8952 56.1367 60.6633 56.2982 60.4777C56.4614 60.2921 56.6607 60.1512 56.8995 60.0533C57.1383 59.9571 57.415 59.909 57.7294 59.909C58.0249 59.909 58.2827 59.9588 58.5043 60.0585Z" fill="#8781F7"/>
<path d="M68.703 61.6721C68.703 61.6223 68.6979 61.5725 68.6962 61.5243L68.6154 58.4833C68.6154 59.0004 68.4917 59.5038 68.2649 59.9884C67.9608 60.6361 67.4643 61.2477 66.808 61.8078C64.5023 63.7699 60.2241 65.0895 55.3223 65.0895C50.4205 65.0895 46.1406 63.7699 43.8366 61.8078C43.2095 61.2752 42.7285 60.6945 42.4226 60.0794C42.1666 59.5674 42.0292 59.0331 42.0292 58.4833V61.6721V61.8061H42.0361C42.1804 65.3918 48.0924 68.2766 55.3669 68.2766C62.6415 68.2766 68.5536 65.3918 68.6979 61.8061H68.7048L68.703 61.7185C68.7013 61.703 68.703 61.6876 68.703 61.6721Z" fill="#8781F7"/>
<path d="M55.3205 51.877C47.979 51.877 42.0275 54.8339 42.0275 58.4814C42.0275 59.0312 42.165 59.5655 42.421 60.0775C42.7285 60.6926 43.2096 61.2716 43.835 61.806C46.1407 63.7681 50.4187 65.0876 55.3205 65.0876C60.2223 65.0876 64.5022 63.7681 66.8062 61.806C67.4643 61.2459 67.9591 60.6342 68.2632 59.9865C68.49 59.5037 68.6137 59.0003 68.6137 58.4814C68.6137 54.8339 62.6638 51.877 55.3205 51.877Z" fill="#8781F7"/>
<path opacity="0.3" d="M55.2415 53.2205C48.8467 53.2205 43.6614 55.5761 43.6614 58.4814C43.6614 58.9195 43.7817 59.3456 44.0034 59.7528C44.2714 60.2425 44.6906 60.7046 45.2352 61.129C47.2437 62.6908 50.9703 63.7423 55.2415 63.7423C59.5111 63.7423 63.2394 62.6908 65.2479 61.129C65.8201 60.684 66.253 60.1961 66.5176 59.6789C66.7152 59.2941 66.8234 58.8938 66.8234 58.4814C66.8217 55.5761 61.6364 53.2205 55.2415 53.2205Z" stroke="url(#paint13_linear_1_509)" stroke-width="2.63041" stroke-miterlimit="10" stroke-linecap="round" stroke-linejoin="round"/>
<path opacity="0.3" d="M68.703 61.6721C68.703 61.6223 68.6979 61.5725 68.6962 61.5243L68.6154 58.4833C68.6154 59.0004 68.4917 59.5038 68.2649 59.9884C67.9608 60.6361 67.4643 61.2477 66.808 61.8078C64.5023 63.7699 60.2241 65.0895 55.3223 65.0895C50.4205 65.0895 46.1406 63.7699 43.8366 61.8078C43.2095 61.2752 42.7285 60.6945 42.4226 60.0794C42.1666 59.5674 42.0292 59.0331 42.0292 58.4833V61.6721V61.8061H42.0361C42.1804 65.3918 48.0924 68.2766 55.3669 68.2766C62.6415 68.2766 68.5536 65.3918 68.6979 61.8061H68.7048L68.703 61.7185C68.7013 61.703 68.703 61.6876 68.703 61.6721Z" fill="#8781F7"/>
<path d="M43.835 61.8077C43.6236 61.629 43.4311 61.4434 43.2542 61.2545V64.4364C43.4329 64.6271 43.6287 64.8144 43.8418 64.9948V61.8128C43.84 61.8111 43.8384 61.8094 43.835 61.8077Z" fill="#8781F7"/>
<path d="M45.5823 62.9759V66.1596C45.7713 66.2609 45.9688 66.3572 46.1699 66.4534V63.2714C45.9688 63.1752 45.773 63.0773 45.5823 62.9759Z" fill="#8781F7"/>
<path d="M47.9103 63.9655V67.1475C48.1027 67.2128 48.2986 67.2746 48.4979 67.3348V64.1511C48.2986 64.091 48.1027 64.0291 47.9103 63.9655Z" fill="#8781F7"/>
<path d="M50.2366 64.5858V67.7712C50.4308 67.8107 50.6266 67.8485 50.8242 67.8845V64.6991C50.6266 64.6648 50.4308 64.627 50.2366 64.5858Z" fill="#8781F7"/>
<path d="M52.5647 64.9449V68.1303C52.7588 68.1509 52.9548 68.1698 53.1523 68.1853V64.9999C52.9548 64.9844 52.7588 64.9655 52.5647 64.9449Z" fill="#8781F7"/>
<path d="M55.3206 65.0875C55.1762 65.0875 55.0336 65.0858 54.891 65.084V68.2712C55.0491 68.2746 55.2055 68.2763 55.3653 68.2763C55.4031 68.2763 55.4409 68.2746 55.4787 68.2746V65.0858C55.4271 65.0875 55.3738 65.0875 55.3206 65.0875Z" fill="#8781F7"/>
<path d="M57.2191 65.0205V68.2128C57.4167 68.199 57.6126 68.1836 57.8067 68.1647V64.9707C57.6126 64.9896 57.4167 65.0068 57.2191 65.0205Z" fill="#8781F7"/>
<path d="M59.5471 64.7456V67.943C59.7447 67.9104 59.9406 67.876 60.1347 67.8399V64.6407C59.9406 64.6785 59.7447 64.7129 59.5471 64.7456Z" fill="#8781F7"/>
<path d="M61.8735 64.2284V67.4361C62.0728 67.3812 62.2686 67.3227 62.4611 67.2626V64.0532C62.2686 64.115 62.0728 64.1734 61.8735 64.2284Z" fill="#8781F7"/>
<path d="M64.2015 63.3951V66.6183C64.4025 66.529 64.5985 66.438 64.7892 66.3435V63.1151C64.5985 63.213 64.4025 63.3058 64.2015 63.3951Z" fill="#8781F7"/>
<path d="M66.8062 61.8075C66.7169 61.8831 66.6224 61.9587 66.5279 62.0326V65.2833C66.7375 65.1252 66.9334 64.962 67.1155 64.7936V61.5275C67.0176 61.622 66.9145 61.7147 66.8062 61.8075Z" fill="#8781F7"/>
<path opacity="0.3" d="M56.7552 54.9782C56.458 55.083 56.1968 55.2256 55.9752 55.406C55.7535 55.5864 55.5697 55.7977 55.4271 56.0383C55.2828 56.2788 55.1849 56.5383 55.1299 56.8166C55.0319 56.5967 54.9082 56.4008 54.7553 56.2307C54.6041 56.0606 54.4323 55.9197 54.2399 55.8063C54.0474 55.6947 53.8378 55.6088 53.6093 55.5503C53.3808 55.4936 53.1438 55.4644 52.8946 55.4644C52.4771 55.4644 52.1025 55.5297 51.7727 55.6603C51.4428 55.7909 51.1627 55.9868 50.9359 56.2462C50.7091 56.5056 50.5356 56.8286 50.4154 57.2169C50.3655 57.3802 50.3277 57.5657 50.3003 57.7667H49.0855V58.8526H50.2384V59.313H49.0855V60.3989H50.2384V61.0191C50.2384 61.1394 50.2814 61.2545 50.3638 61.361C50.448 61.4693 50.5957 61.5225 50.807 61.5225H60.1898C60.4011 61.5225 60.5489 61.4693 60.6331 61.361C60.7173 61.2545 60.7585 61.1394 60.7585 61.0191V60.1773H61.8787V59.0914H60.7585V58.6309H61.8787V57.5451H60.7052C60.6949 57.4764 60.6846 57.4094 60.6726 57.3458C60.6159 57.0503 60.5299 56.7719 60.4165 56.5125C60.3031 56.2531 60.1623 56.0194 59.9939 55.8132C59.8255 55.607 59.6313 55.4301 59.408 55.2823C59.1863 55.1363 58.9355 55.0212 58.6555 54.9404C58.3771 54.8597 58.0713 54.8184 57.7415 54.8184C57.3824 54.8219 57.0542 54.8734 56.7552 54.9782ZM52.3414 56.9592C52.5475 56.8905 52.7778 56.8578 53.0321 56.8578C53.2588 56.8578 53.4805 56.8905 53.6952 56.9558C53.91 57.0211 54.0956 57.1241 54.2554 57.265C54.4152 57.4059 54.5423 57.5846 54.6385 57.7977C54.733 58.0124 54.7811 58.2942 54.7811 58.6447V60.1824H51.3741V58.7856C51.3741 58.399 51.4118 58.088 51.4874 57.8526C51.563 57.6172 51.673 57.4265 51.8174 57.2805C51.96 57.1345 52.1352 57.0279 52.3414 56.9592ZM58.5936 56.3939C58.8153 56.4936 59.0008 56.6311 59.1503 56.8063C59.2997 56.9815 59.4114 57.1843 59.487 57.4145C59.5626 57.6447 59.6004 57.9145 59.6004 58.222V60.1841H55.8927V58.5674C55.8927 58.1447 55.9357 57.7925 56.0181 57.5124C56.1023 57.2324 56.226 57.0004 56.3875 56.8149C56.5507 56.6293 56.75 56.4884 56.9889 56.3905C57.2277 56.2943 57.5043 56.2462 57.8187 56.2462C58.1142 56.2445 58.3703 56.2943 58.5936 56.3939Z" fill="#8781F7"/>
<path d="M68.703 58.0554C68.703 58.0056 68.6979 57.9558 68.6962 57.9059L68.6154 54.8649C68.6154 55.382 68.4917 55.8854 68.2649 56.3699C67.9608 57.0177 67.4643 57.6293 66.808 58.1894C64.5023 60.1515 60.2241 61.471 55.3223 61.471C50.4205 61.471 46.1406 60.1515 43.8366 58.1894C43.2095 57.6568 42.7285 57.0761 42.4226 56.461C42.1666 55.949 42.0292 55.4147 42.0292 54.8649V58.0537V58.1877H42.0361C42.1804 61.7734 48.0924 64.6582 55.3669 64.6582C62.6415 64.6582 68.5536 61.7734 68.6979 58.1877H68.7048L68.703 58.1001C68.7013 58.0863 68.703 58.0709 68.703 58.0554Z" fill="#8781F7"/>
<path d="M55.3205 48.2604C47.979 48.2604 42.0275 51.2173 42.0275 54.8648C42.0275 55.4146 42.165 55.949 42.421 56.461C42.7285 57.0761 43.2096 57.6551 43.835 58.1894C46.1407 60.1515 50.4187 61.471 55.3205 61.471C60.2223 61.471 64.5022 60.1515 66.8062 58.1894C67.4643 57.6293 67.9591 57.0176 68.2632 56.3699C68.49 55.8871 68.6137 55.3837 68.6137 54.8648C68.6137 51.2173 62.6638 48.2604 55.3205 48.2604Z" fill="#8781F7"/>
<path opacity="0.3" d="M55.2415 49.6039C48.8467 49.6039 43.6614 51.9595 43.6614 54.8648C43.6614 55.303 43.7817 55.7291 44.0034 56.1362C44.2714 56.6259 44.6906 57.0881 45.2352 57.5125C47.2437 59.076 50.9703 60.1257 55.2415 60.1257C59.5111 60.1257 63.2394 59.0742 65.2479 57.5125C65.8201 57.0675 66.253 56.5795 66.5176 56.0624C66.7152 55.6775 66.8234 55.2772 66.8234 54.8648C66.8217 51.9595 61.6364 49.6039 55.2415 49.6039Z" stroke="url(#paint14_linear_1_509)" stroke-width="2.63041" stroke-miterlimit="10" stroke-linecap="round" stroke-linejoin="round"/>
<path opacity="0.3" d="M68.703 58.0554C68.703 58.0056 68.6979 57.9558 68.6962 57.9059L68.6154 54.8649C68.6154 55.382 68.4917 55.8854 68.2649 56.3699C67.9608 57.0177 67.4643 57.6293 66.808 58.1894C64.5023 60.1515 60.2241 61.471 55.3223 61.471C50.4205 61.471 46.1406 60.1515 43.8366 58.1894C43.2095 57.6568 42.7285 57.0761 42.4226 56.461C42.1666 55.949 42.0292 55.4147 42.0292 54.8649V58.0537V58.1877H42.0361C42.1804 61.7734 48.0924 64.6582 55.3669 64.6582C62.6415 64.6582 68.5536 61.7734 68.6979 58.1877H68.7048L68.703 58.1001C68.7013 58.0863 68.703 58.0709 68.703 58.0554Z" fill="#8781F7"/>
<path d="M43.835 58.1894C43.6236 58.0107 43.4311 57.8252 43.2542 57.6362V60.8181C43.4329 61.0088 43.6287 61.1961 43.8418 61.3765V58.1946C43.84 58.1946 43.8384 58.1928 43.835 58.1894Z" fill="#8781F7"/>
<path d="M45.5823 59.3596V62.5433C45.7713 62.6447 45.9688 62.7409 46.1699 62.8371V59.6551C45.9688 59.5589 45.773 59.461 45.5823 59.3596Z" fill="#8781F7"/>
<path d="M47.9103 60.3491V63.5311C48.1027 63.5964 48.2986 63.6582 48.4979 63.7184V60.5347C48.2986 60.4745 48.1027 60.4127 47.9103 60.3491Z" fill="#8781F7"/>
<path d="M50.2366 60.9694V64.1548C50.4308 64.1943 50.6266 64.2321 50.8242 64.2682V61.0828C50.6266 61.0467 50.4308 61.0089 50.2366 60.9694Z" fill="#8781F7"/>
<path d="M52.5647 61.3286V64.5139C52.7588 64.5346 52.9548 64.5535 53.1523 64.5689V61.3835C52.9548 61.3664 52.7588 61.3492 52.5647 61.3286Z" fill="#8781F7"/>
<path d="M55.3206 61.4711C55.1762 61.4711 55.0336 61.4694 54.891 61.4677V64.6548C55.0491 64.6582 55.2055 64.6599 55.3653 64.6599C55.4031 64.6599 55.4409 64.6582 55.4787 64.6582V61.4694C55.4271 61.4711 55.3738 61.4711 55.3206 61.4711Z" fill="#8781F7"/>
<path d="M57.2191 61.4041V64.5964C57.4167 64.5826 57.6126 64.5672 57.8067 64.5483V61.3543C57.6126 61.3732 57.4167 61.3904 57.2191 61.4041Z" fill="#8781F7"/>
<path d="M59.5471 61.1292V64.3266C59.7447 64.294 59.9406 64.2596 60.1347 64.2235V61.0244C59.9406 61.0622 59.7447 61.0965 59.5471 61.1292Z" fill="#8781F7"/>
<path d="M61.8735 60.612V63.8198C62.0728 63.7648 62.2686 63.7064 62.4611 63.6462V60.4368C62.2686 60.4986 62.0728 60.557 61.8735 60.612Z" fill="#8781F7"/>
<path d="M64.2015 59.7788V63.002C64.4025 62.9127 64.5985 62.8216 64.7892 62.7271V59.4987C64.5985 59.5967 64.4025 59.6894 64.2015 59.7788Z" fill="#8781F7"/>
<path d="M66.8062 58.1896C66.7169 58.2651 66.6224 58.3408 66.5279 58.4146V61.6653C66.7375 61.5072 66.9334 61.344 67.1155 61.1756V57.9078C67.0176 58.004 66.9145 58.0985 66.8062 58.1896Z" fill="#8781F7"/>
<path opacity="0.3" d="M56.7552 51.3616C56.458 51.4664 56.1968 51.609 55.9752 51.7894C55.7535 51.9698 55.5697 52.1812 55.4271 52.4217C55.2828 52.6622 55.1849 52.9217 55.1299 53.2C55.0319 52.9801 54.9082 52.7842 54.7553 52.6141C54.6041 52.444 54.4323 52.3032 54.2399 52.1898C54.0474 52.0781 53.8378 51.9922 53.6093 51.9338C53.3808 51.8753 53.1438 51.8479 52.8946 51.8479C52.4771 51.8479 52.1025 51.9131 51.7727 52.0437C51.4428 52.1743 51.1627 52.3702 50.9359 52.6296C50.7091 52.889 50.5356 53.212 50.4154 53.6003C50.3655 53.7636 50.3277 53.9491 50.3003 54.1501H49.0855V55.236H50.2384V55.6964H49.0855V56.7823H50.2384V57.4025C50.2384 57.5228 50.2814 57.6379 50.3638 57.7444C50.448 57.8527 50.5957 57.9059 50.807 57.9059H60.1898C60.4011 57.9059 60.5489 57.8527 60.6331 57.7444C60.7173 57.6379 60.7585 57.5228 60.7585 57.4025V56.5607H61.8787V55.4748H60.7585V55.0143H61.8787V53.9285H60.7052C60.6949 53.8598 60.6846 53.7928 60.6726 53.7292C60.6159 53.4337 60.5299 53.1553 60.4165 52.8959C60.3031 52.6365 60.1623 52.4028 59.9939 52.1966C59.8255 51.9904 59.6313 51.8135 59.408 51.6657C59.1863 51.5197 58.9355 51.4046 58.6555 51.3238C58.3771 51.2431 58.0713 51.2018 57.7415 51.2018C57.3824 51.2053 57.0542 51.2568 56.7552 51.3616ZM52.3414 53.3426C52.5475 53.2739 52.7778 53.2413 53.0321 53.2413C53.2588 53.2413 53.4805 53.2739 53.6952 53.3392C53.91 53.4045 54.0956 53.5076 54.2554 53.6484C54.4152 53.7893 54.5423 53.968 54.6385 54.1811C54.733 54.3958 54.7811 54.6776 54.7811 55.0281V56.5658H51.3741V55.1707C51.3741 54.7841 51.4118 54.4731 51.4874 54.2378C51.563 54.0024 51.673 53.8117 51.8174 53.6656C51.96 53.5179 52.1352 53.4096 52.3414 53.3426ZM58.5936 52.7756C58.8153 52.8753 59.0008 53.0127 59.1503 53.188C59.2997 53.3632 59.4114 53.566 59.487 53.7962C59.5626 54.0264 59.6004 54.2962 59.6004 54.6037V56.5641H55.8927V54.9473C55.8927 54.5247 55.9357 54.1725 56.0181 53.8924C56.1023 53.6124 56.226 53.3804 56.3875 53.1949C56.5507 53.0093 56.75 52.8684 56.9889 52.7705C57.2277 52.6743 57.5043 52.6262 57.8187 52.6262C58.1142 52.6279 58.3703 52.6777 58.5936 52.7756Z" fill="white"/>
<defs>
<linearGradient id="paint0_linear_1_509" x1="43.9548" y1="38.7077" x2="-6.8032" y2="77.6339" gradientUnits="userSpaceOnUse">
<stop stop-color="#6A82FF"/>
<stop offset="1" stop-color="#84BBFD"/>
</linearGradient>
<linearGradient id="paint1_linear_1_509" x1="14.5188" y1="46.1345" x2="29.3917" y2="15.0816" gradientUnits="userSpaceOnUse">
<stop stop-color="#7B6EFF"/>
<stop offset="0.0834" stop-color="#7A6DFF"/>
<stop offset="0.3708" stop-color="#36B9DB"/>
<stop offset="0.6295" stop-color="#239AD3"/>
<stop offset="0.848" stop-color="#796CFF"/>
<stop offset="1" stop-color="#5647FF"/>
</linearGradient>
<linearGradient id="paint2_linear_1_509" x1="14.5172" y1="46.1306" x2="29.3886" y2="15.0788" gradientUnits="userSpaceOnUse">
<stop stop-color="#7B6EFF"/>
<stop offset="0.0834" stop-color="#7A6DFF"/>
<stop offset="0.3708" stop-color="#36B9DB"/>
<stop offset="0.6295" stop-color="#239AD3"/>
<stop offset="0.848" stop-color="#796CFF"/>
<stop offset="1" stop-color="#5647FF"/>
</linearGradient>
<linearGradient id="paint3_linear_1_509" x1="37.4569" y1="44.7535" x2="36.5197" y2="44.8116" gradientUnits="userSpaceOnUse">
<stop stop-color="#6A82FF"/>
<stop offset="1" stop-color="#84BBFD"/>
</linearGradient>
<linearGradient id="paint4_linear_1_509" x1="40.2333" y1="42.5442" x2="36.3971" y2="45.4898" gradientUnits="userSpaceOnUse">
<stop stop-color="#6A82FF"/>
<stop offset="1" stop-color="#84BBFD"/>
</linearGradient>
<linearGradient id="paint5_linear_1_509" x1="40.2333" y1="42.5442" x2="36.3971" y2="45.4898" gradientUnits="userSpaceOnUse">
<stop stop-color="#6A82FF"/>
<stop offset="1" stop-color="#84BBFD"/>
</linearGradient>
<linearGradient id="paint6_linear_1_509" x1="40.5859" y1="39.8772" x2="35.5096" y2="40.5177" gradientUnits="userSpaceOnUse">
<stop stop-color="#6A82FF"/>
<stop offset="1" stop-color="#84BBFD"/>
</linearGradient>
<linearGradient id="paint7_linear_1_509" x1="37.4569" y1="49.9634" x2="36.5179" y2="50.0039" gradientUnits="userSpaceOnUse">
<stop stop-color="#6A82FF"/>
<stop offset="1" stop-color="#84BBFD"/>
</linearGradient>
<linearGradient id="paint8_linear_1_509" x1="37.4569" y1="42.7972" x2="36.5168" y2="42.8222" gradientUnits="userSpaceOnUse">
<stop stop-color="#6A82FF"/>
<stop offset="1" stop-color="#84BBFD"/>
</linearGradient>
<linearGradient id="paint9_linear_1_509" x1="31.8867" y1="51.1894" x2="26.6846" y2="51.9037" gradientUnits="userSpaceOnUse">
<stop stop-color="#766AFF"/>
<stop offset="1" stop-color="#9C84FD"/>
</linearGradient>
<linearGradient id="paint10_linear_1_509" x1="27.0467" y1="51.1894" x2="21.8447" y2="51.9037" gradientUnits="userSpaceOnUse">
<stop stop-color="#766AFF"/>
<stop offset="1" stop-color="#9C84FD"/>
</linearGradient>
<linearGradient id="paint11_linear_1_509" x1="27.0467" y1="51.1894" x2="21.8447" y2="51.9037" gradientUnits="userSpaceOnUse">
<stop stop-color="#766AFF"/>
<stop offset="1" stop-color="#9C84FD"/>
</linearGradient>
<linearGradient id="paint12_linear_1_509" x1="57.229" y1="54.535" x2="45.1064" y2="67.2047" gradientUnits="userSpaceOnUse">
<stop stop-color="#6A82FF"/>
<stop offset="1" stop-color="#84BBFD"/>
</linearGradient>
<linearGradient id="paint13_linear_1_509" x1="57.3166" y1="50.8686" x2="45.194" y2="63.5384" gradientUnits="userSpaceOnUse">
<stop stop-color="#6A82FF"/>
<stop offset="1" stop-color="#84BBFD"/>
</linearGradient>
<linearGradient id="paint14_linear_1_509" x1="57.3166" y1="47.252" x2="45.194" y2="59.9218" gradientUnits="userSpaceOnUse">
<stop stop-color="#6A82FF"/>
<stop offset="1" stop-color="#84BBFD"/>
</linearGradient>
</defs>
</svg>
