<svg width="64" height="96" viewBox="0 0 64 96" fill="none" xmlns="http://www.w3.org/2000/svg">
<path d="M17.7395 87.6132L38.9742 74.4507L49.5122 80.9823L28.3569 94.1944L17.7395 87.6132Z" fill="url(#paint0_linear_1_748)"/>
<path opacity="0.4" d="M17.7395 87.6132L38.9742 74.4507L49.5122 80.9823L28.3569 94.1944L17.7395 87.6132Z" fill="url(#paint1_linear_1_748)"/>
<path d="M28.3569 95.7501V94.1946L49.5122 80.9825L49.5684 82.6108L28.3569 95.7501Z" fill="url(#paint2_linear_1_748)"/>
<path d="M17.7395 87.6133L28.3569 94.1946V95.7501L17.7395 89.1027V87.6133Z" fill="url(#paint3_linear_1_748)"/>
<path opacity="0.3" d="M17.7395 87.6133L28.3569 94.1946V95.7501L17.7395 89.1027V87.6133Z" fill="url(#paint4_linear_1_748)"/>
<path d="M26.9156 80.6515L41.8967 71.3646V80.6515L26.9156 89.9383V80.6515Z" fill="url(#paint5_linear_1_748)"/>
<path opacity="0.3" d="M26.9156 80.6515L41.8967 71.3646V80.6515L26.9156 89.9383V80.6515Z" fill="url(#paint6_linear_1_748)"/>
<path d="M25.3551 88.9702L26.9156 89.9383V80.6514L25.4312 79.7313L25.3551 88.9702Z" fill="url(#paint7_linear_1_748)"/>
<path d="M25.4312 79.7313L26.9156 80.6514L41.8967 71.3645L40.4935 70.4957L25.4312 79.7313Z" fill="url(#paint8_linear_1_748)"/>
<path d="M4.05908 39.1765L63.9853 2.03223V57.7502L4.05908 94.8961V39.1765Z" fill="url(#paint9_linear_1_748)"/>
<path d="M7.05586 40.176L60.9883 6.64594V56.3751L7.05586 89.9035V40.176Z" fill="#3E7BDE"/>
<path opacity="0.3" d="M7.05586 40.176L60.9883 6.64594V56.3751L7.05586 40.176Z" fill="#3E7BDE"/>
<path d="M1.30372 37.4703L61.1124 0.25L63.9852 2.03225L4.05903 39.1765L1.30372 37.4703Z" fill="url(#paint10_linear_1_748)"/>
<path d="M1.30372 93.1884L4.05903 94.8962V39.1766L1.30372 37.4705V93.1884Z" fill="url(#paint11_linear_1_748)"/>
<path opacity="0.3" d="M1.30372 37.4703L61.1124 0.25L63.9852 2.03225L4.05903 39.1765L1.30372 37.4703Z" fill="url(#paint12_linear_1_748)"/>
<path opacity="0.3" d="M1.30372 93.1884L4.05903 94.8962V39.1766L1.30372 37.4705V93.1884Z" fill="url(#paint13_linear_1_748)"/>
<path d="M17.5592 69.8108L22.3797 66.9959L30.998 39.6582L48.5739 50.5519V17.4753L45.203 19.9592L45.4645 44.7865L29.047 34.6871L17.5592 69.8108Z" fill="url(#paint14_linear_1_748)"/>
<path d="M26.9884 35.6831L29.047 34.687L17.5593 69.8106L16.2685 68.5579L26.9884 35.6831Z" fill="url(#paint15_linear_1_748)"/>
<path d="M46.6048 51.7715L48.5741 50.5519L30.9982 39.6581L30.3793 41.6191L46.6048 51.7715Z" fill="url(#paint16_linear_1_748)"/>
<path d="M43.6046 43.643L45.4646 44.7864L45.2032 19.9591L43.6046 20.9503V43.643Z" fill="url(#paint17_linear_1_748)"/>
<path opacity="0.3" d="M26.9884 35.6831L29.047 34.687L17.5593 69.8106L16.2685 68.5579L26.9884 35.6831Z" fill="url(#paint18_linear_1_748)"/>
<path opacity="0.3" d="M46.6048 51.7715L48.5741 50.5519L30.9982 39.6581L30.3793 41.6191L46.6048 51.7715Z" fill="url(#paint19_linear_1_748)"/>
<path opacity="0.3" d="M43.6046 43.643L45.4646 44.7864L45.2032 19.9591L43.6046 20.9503V43.643Z" fill="url(#paint20_linear_1_748)"/>
<path d="M40.6262 23.0719L52.713 15.5805L45.3738 4.22839L40.6262 23.0719Z" fill="url(#paint21_linear_1_748)"/>
<path d="M38.9465 22.0309L40.6261 23.0718L45.3738 4.22834L43.6131 3.13782L38.9465 22.0309Z" fill="url(#paint22_linear_1_748)"/>
<path opacity="0.3" d="M38.9465 22.0309L40.6261 23.0718L45.3738 4.22834L43.6131 3.13782L38.9465 22.0309Z" fill="url(#paint23_linear_1_748)"/>
<path d="M12.2188 75.571L17.3472 72.3921V78.75L12.2188 81.9289V75.571Z" fill="url(#paint24_linear_1_748)"/>
<path d="M11.2822 81.3497L12.2189 81.9289V75.5711L11.2822 74.9902V81.3497Z" fill="url(#paint25_linear_1_748)"/>
<path d="M11.2822 74.9903L16.4254 71.8196L17.3472 72.3921L12.2189 75.5711L11.2822 74.9903Z" fill="url(#paint26_linear_1_748)"/>
<path opacity="0.3" d="M11.2822 81.3497L12.2189 81.9289V75.5711L11.2822 74.9902V81.3497Z" fill="url(#paint27_linear_1_748)"/>
<path opacity="0.3" d="M11.2822 74.9903L16.4254 71.8196L17.3472 72.3921L12.2189 75.5711L11.2822 74.9903Z" fill="url(#paint28_linear_1_748)"/>
<path d="M22.0719 69.5111L27.2019 66.3322V72.6917L22.0719 75.8706V69.5111Z" fill="#5B88DF"/>
<path d="M21.137 75.2898L22.072 75.8707V69.5112L21.137 68.932V75.2898Z" fill="#5B88DF"/>
<path d="M21.1369 68.932L26.2801 65.7614L27.2018 66.3323L22.0719 69.5112L21.1369 68.932Z" fill="#5B88DF"/>
<path opacity="0.3" d="M21.137 75.2898L22.072 75.8707V69.5112L21.137 68.932V75.2898Z" fill="#5B88DF"/>
<path opacity="0.3" d="M21.1369 68.932L26.2801 65.7614L27.2018 66.3323L22.0719 69.5112L21.1369 68.932Z" fill="#5B88DF"/>
<path d="M31.9266 63.4526L37.0549 60.2737V66.6316L31.9266 69.8105V63.4526Z" fill="#7EE2F4"/>
<path d="M30.99 69.2314L31.9266 69.8106V63.4528L30.99 62.8719V69.2314Z" fill="#7EE2F4"/>
<path d="M30.99 62.8719L36.1332 59.7012L37.0549 60.2738L31.9266 63.4527L30.99 62.8719Z" fill="#7EE2F4"/>
<path opacity="0.3" d="M30.99 69.2314L31.9266 69.8106V63.4528L30.99 62.8719V69.2314Z" fill="#7EE2F4"/>
<path opacity="0.3" d="M30.99 62.8719L36.1332 59.7012L37.0549 60.2738L31.9266 63.4527L30.99 62.8719Z" fill="#7EE2F4"/>
<path d="M1.35656 26.1531L7.86831 22.1186V30.1892L1.35656 34.2236V26.1531Z" fill="url(#paint29_linear_1_748)"/>
<path d="M0.168442 33.4872L1.3566 34.2236V26.153L0.168442 25.4166V33.4872Z" fill="url(#paint30_linear_1_748)"/>
<path d="M0.168442 25.4166L6.69838 21.3921L7.86835 22.1186L1.3566 26.153L0.168442 25.4166Z" fill="url(#paint31_linear_1_748)"/>
<path opacity="0.3" d="M0.168442 33.4872L1.3566 34.2236V26.153L0.168442 25.4166V33.4872Z" fill="url(#paint32_linear_1_748)"/>
<path opacity="0.3" d="M0.168442 25.4166L6.69838 21.3921L7.86835 22.1186L1.3566 26.153L0.168442 25.4166Z" fill="url(#paint33_linear_1_748)"/>
<path d="M13.8641 18.463L20.3742 14.4269V22.4975L13.8641 26.5336V18.463Z" fill="#5B88DF"/>
<path d="M12.6759 25.7973L13.8641 26.5337V18.4631L12.6759 17.7267V25.7973Z" fill="#5B88DF"/>
<path d="M12.6758 17.7267L19.2041 13.7021L20.3741 14.427L13.864 18.4631L12.6758 17.7267Z" fill="#5B88DF"/>
<path opacity="0.3" d="M12.6759 25.7973L13.8641 26.5337V18.4631L12.6759 17.7267V25.7973Z" fill="#5B88DF"/>
<path opacity="0.3" d="M12.6758 17.7267L19.2041 13.7021L20.3741 14.427L13.864 18.4631L12.6758 17.7267Z" fill="#5B88DF"/>
<path d="M26.3709 10.7715L32.881 6.737V14.8076L26.3709 18.8421V10.7715Z" fill="#67DDF2"/>
<path d="M25.1828 18.1057L26.371 18.8422V10.7716L25.1828 10.0352V18.1057Z" fill="#67DDF2"/>
<path d="M25.1828 10.035L31.7111 6.01044L32.881 6.73691L26.371 10.7714L25.1828 10.035Z" fill="#67DDF2"/>
<path opacity="0.3" d="M25.1828 18.1057L26.371 18.8422V10.7716L25.1828 10.0352V18.1057Z" fill="#67DDF2"/>
<path opacity="0.3" d="M25.1828 10.035L31.7111 6.01044L32.881 6.73691L26.371 10.7714L25.1828 10.035Z" fill="#67DDF2"/>
<path d="M41.7795 57.3928L46.9078 54.2139V60.5734L41.7795 63.7523V57.3928Z" fill="#8781F7"/>
<path d="M40.8429 63.1714L41.7795 63.7523V57.3928L40.8429 56.8136V63.1714Z" fill="#8781F7"/>
<path d="M40.8429 56.8136L45.9861 53.6429L46.9078 54.2139L41.7795 57.3928L40.8429 56.8136Z" fill="#8781F7"/>
<path opacity="0.3" d="M40.8429 63.1714L41.7795 63.7523V57.3928L40.8429 56.8136V63.1714Z" fill="#8781F7"/>
<path opacity="0.3" d="M40.8429 56.8136L45.9861 53.6429L46.9078 54.2139L41.7795 57.3928L40.8429 56.8136Z" fill="#8781F7"/>
<path d="M51.6318 51.3345L56.7601 48.1555V54.5134L51.6318 57.6923V51.3345Z" fill="url(#paint34_linear_1_748)"/>
<path d="M50.6951 57.1131L51.6318 57.6923V51.3345L50.6951 50.7537V57.1131Z" fill="url(#paint35_linear_1_748)"/>
<path d="M50.6951 50.7537L55.8383 47.5831L56.7601 48.1556L51.6318 51.3346L50.6951 50.7537Z" fill="url(#paint36_linear_1_748)"/>
<path opacity="0.3" d="M50.6951 57.1131L51.6318 57.6923V51.3345L50.6951 50.7537V57.1131Z" fill="url(#paint37_linear_1_748)"/>
<path opacity="0.3" d="M50.6951 50.7537L55.8383 47.5831L56.7601 48.1556L51.6318 51.3346L50.6951 50.7537Z" fill="url(#paint38_linear_1_748)"/>
<path d="M54.116 17.3279L56.2408 16.0106V18.6451L54.116 19.9623V17.3279Z" fill="url(#paint39_linear_1_748)"/>
<path d="M53.7288 19.7224L54.116 19.9623V17.3279L53.7288 17.0879V19.7224Z" fill="url(#paint40_linear_1_748)"/>
<path d="M53.7287 17.0878L55.8585 15.7739L56.2408 16.0106L54.116 17.3278L53.7287 17.0878Z" fill="url(#paint41_linear_1_748)"/>
<path opacity="0.3" d="M53.7288 19.7224L54.116 19.9623V17.3279L53.7288 17.0879V19.7224Z" fill="url(#paint42_linear_1_748)"/>
<path opacity="0.3" d="M53.7287 17.0878L55.8585 15.7739L56.2408 16.0106L54.116 17.3278L53.7287 17.0878Z" fill="url(#paint43_linear_1_748)"/>
<path d="M54.116 22.9345L56.2408 21.6172V24.2517L54.116 25.5673V22.9345Z" fill="url(#paint44_linear_1_748)"/>
<path d="M53.7288 25.3274L54.116 25.5673V22.9345L53.7288 22.6945V25.3274Z" fill="url(#paint45_linear_1_748)"/>
<path d="M53.7287 22.6945L55.8585 21.3806L56.2408 21.6172L54.116 22.9344L53.7287 22.6945Z" fill="url(#paint46_linear_1_748)"/>
<path opacity="0.3" d="M53.7288 25.3274L54.116 25.5673V22.9345L53.7288 22.6945V25.3274Z" fill="url(#paint47_linear_1_748)"/>
<path opacity="0.3" d="M53.7287 22.6945L55.8585 21.3806L56.2408 21.6172L54.116 22.9344L53.7287 22.6945Z" fill="url(#paint48_linear_1_748)"/>
<path d="M54.116 28.5409L56.2408 27.2237V29.8582L54.116 31.1738V28.5409Z" fill="url(#paint49_linear_1_748)"/>
<path d="M53.7288 30.9338L54.116 31.1737V28.5409L53.7288 28.301V30.9338Z" fill="url(#paint50_linear_1_748)"/>
<path d="M53.7287 28.301L55.8585 26.9871L56.2408 27.2237L54.116 28.5409L53.7287 28.301Z" fill="url(#paint51_linear_1_748)"/>
<path opacity="0.3" d="M53.7288 30.9338L54.116 31.1737V28.5409L53.7288 28.301V30.9338Z" fill="url(#paint52_linear_1_748)"/>
<path opacity="0.3" d="M53.7287 28.301L55.8585 26.9871L56.2408 27.2237L54.116 28.5409L53.7287 28.301Z" fill="url(#paint53_linear_1_748)"/>
<path d="M54.116 34.1475L56.2408 32.8302V35.463L54.116 36.7803V34.1475Z" fill="url(#paint54_linear_1_748)"/>
<path d="M53.7288 36.5403L54.116 36.7803V34.1474L53.7288 33.9058V36.5403Z" fill="url(#paint55_linear_1_748)"/>
<path d="M53.7287 33.9058L55.8585 32.5935L56.2408 32.8301L54.116 34.1474L53.7287 33.9058Z" fill="url(#paint56_linear_1_748)"/>
<path opacity="0.3" d="M53.7288 36.5403L54.116 36.7803V34.1474L53.7288 33.9058V36.5403Z" fill="url(#paint57_linear_1_748)"/>
<path opacity="0.3" d="M53.7287 33.9058L55.8585 32.5935L56.2408 32.8301L54.116 34.1474L53.7287 33.9058Z" fill="url(#paint58_linear_1_748)"/>
<path d="M54.116 39.7525L56.2408 38.4352V41.0697L54.116 42.387V39.7525Z" fill="url(#paint59_linear_1_748)"/>
<path d="M53.7288 42.147L54.116 42.3869V39.7525L53.7288 39.5125V42.147Z" fill="url(#paint60_linear_1_748)"/>
<path d="M53.7287 39.5124L55.8585 38.2001L56.2408 38.4351L54.116 39.7524L53.7287 39.5124Z" fill="url(#paint61_linear_1_748)"/>
<path opacity="0.3" d="M53.7288 42.147L54.116 42.3869V39.7525L53.7288 39.5125V42.147Z" fill="url(#paint62_linear_1_748)"/>
<path opacity="0.3" d="M53.7287 39.5124L55.8585 38.2001L56.2408 38.4351L54.116 39.7524L53.7287 39.5124Z" fill="url(#paint63_linear_1_748)"/>
<defs>
<linearGradient id="paint0_linear_1_748" x1="16.0987" y1="99.8813" x2="22.8278" y2="75.3381" gradientUnits="userSpaceOnUse">
<stop stop-color="#7B6EFF"/>
<stop offset="0.0834" stop-color="#7A6DFF"/>
<stop offset="0.3708" stop-color="#36B9DB"/>
<stop offset="0.6295" stop-color="#239AD3"/>
<stop offset="0.848" stop-color="#796CFF"/>
<stop offset="1" stop-color="#5647FF"/>
</linearGradient>
<linearGradient id="paint1_linear_1_748" x1="16.0987" y1="99.8813" x2="22.8278" y2="75.3381" gradientUnits="userSpaceOnUse">
<stop stop-color="#7B6EFF"/>
<stop offset="0.0834" stop-color="#7A6DFF"/>
<stop offset="0.3708" stop-color="#36B9DB"/>
<stop offset="0.6295" stop-color="#239AD3"/>
<stop offset="0.848" stop-color="#796CFF"/>
<stop offset="1" stop-color="#5647FF"/>
</linearGradient>
<linearGradient id="paint2_linear_1_748" x1="27.2615" y1="100.004" x2="32.8017" y2="81.968" gradientUnits="userSpaceOnUse">
<stop stop-color="#7B6EFF"/>
<stop offset="0.0834" stop-color="#7A6DFF"/>
<stop offset="0.3708" stop-color="#36B9DB"/>
<stop offset="0.6295" stop-color="#239AD3"/>
<stop offset="0.848" stop-color="#796CFF"/>
<stop offset="1" stop-color="#5647FF"/>
</linearGradient>
<linearGradient id="paint3_linear_1_748" x1="17.1912" y1="98.0938" x2="20.4912" y2="88.3345" gradientUnits="userSpaceOnUse">
<stop stop-color="#7B6EFF"/>
<stop offset="0.0834" stop-color="#7A6DFF"/>
<stop offset="0.3708" stop-color="#36B9DB"/>
<stop offset="0.6295" stop-color="#239AD3"/>
<stop offset="0.848" stop-color="#796CFF"/>
<stop offset="1" stop-color="#5647FF"/>
</linearGradient>
<linearGradient id="paint4_linear_1_748" x1="17.1912" y1="98.0938" x2="20.4912" y2="88.3345" gradientUnits="userSpaceOnUse">
<stop stop-color="#7B6EFF"/>
<stop offset="0.0834" stop-color="#7A6DFF"/>
<stop offset="0.3708" stop-color="#36B9DB"/>
<stop offset="0.6295" stop-color="#239AD3"/>
<stop offset="0.848" stop-color="#796CFF"/>
<stop offset="1" stop-color="#5647FF"/>
</linearGradient>
<linearGradient id="paint5_linear_1_748" x1="26.1419" y1="95.2882" x2="36.5939" y2="76.1812" gradientUnits="userSpaceOnUse">
<stop stop-color="#7B6EFF"/>
<stop offset="0.0834" stop-color="#7A6DFF"/>
<stop offset="0.3708" stop-color="#36B9DB"/>
<stop offset="0.6295" stop-color="#239AD3"/>
<stop offset="0.848" stop-color="#796CFF"/>
<stop offset="1" stop-color="#5647FF"/>
</linearGradient>
<linearGradient id="paint6_linear_1_748" x1="26.1419" y1="95.2882" x2="36.5939" y2="76.1812" gradientUnits="userSpaceOnUse">
<stop stop-color="#7B6EFF"/>
<stop offset="0.0834" stop-color="#7A6DFF"/>
<stop offset="0.3708" stop-color="#36B9DB"/>
<stop offset="0.6295" stop-color="#239AD3"/>
<stop offset="0.848" stop-color="#796CFF"/>
<stop offset="1" stop-color="#5647FF"/>
</linearGradient>
<linearGradient id="paint7_linear_1_748" x1="25.2745" y1="92.8782" x2="29.4949" y2="91.4158" gradientUnits="userSpaceOnUse">
<stop stop-color="#7B6EFF"/>
<stop offset="0.0834" stop-color="#7A6DFF"/>
<stop offset="0.3708" stop-color="#36B9DB"/>
<stop offset="0.6295" stop-color="#239AD3"/>
<stop offset="0.848" stop-color="#796CFF"/>
<stop offset="1" stop-color="#5647FF"/>
</linearGradient>
<linearGradient id="paint8_linear_1_748" x1="24.5809" y1="83.5766" x2="28.02" y2="70.9391" gradientUnits="userSpaceOnUse">
<stop stop-color="#7B6EFF"/>
<stop offset="0.0834" stop-color="#7A6DFF"/>
<stop offset="0.3708" stop-color="#36B9DB"/>
<stop offset="0.6295" stop-color="#239AD3"/>
<stop offset="0.848" stop-color="#796CFF"/>
<stop offset="1" stop-color="#5647FF"/>
</linearGradient>
<linearGradient id="paint9_linear_1_748" x1="0.964445" y1="121.644" x2="58.7921" y2="37.0662" gradientUnits="userSpaceOnUse">
<stop stop-color="#7B6EFF"/>
<stop offset="0.0834" stop-color="#7A6DFF"/>
<stop offset="0.3708" stop-color="#36B9DB"/>
<stop offset="0.6295" stop-color="#239AD3"/>
<stop offset="0.848" stop-color="#796CFF"/>
<stop offset="1" stop-color="#5647FF"/>
</linearGradient>
<linearGradient id="paint10_linear_1_748" x1="-1.9332" y1="50.3886" x2="11.3267" y2="1.99526" gradientUnits="userSpaceOnUse">
<stop stop-color="#7B6EFF"/>
<stop offset="0.0834" stop-color="#7A6DFF"/>
<stop offset="0.3708" stop-color="#36B9DB"/>
<stop offset="0.6295" stop-color="#239AD3"/>
<stop offset="0.848" stop-color="#796CFF"/>
<stop offset="1" stop-color="#5647FF"/>
</linearGradient>
<linearGradient id="paint11_linear_1_748" x1="2.92812" y1="24.6341" x2="-0.0876098" y2="24.7028" gradientUnits="userSpaceOnUse">
<stop stop-color="#6A82FF"/>
<stop offset="1" stop-color="#84BBFD"/>
</linearGradient>
<linearGradient id="paint12_linear_1_748" x1="-1.9332" y1="50.3886" x2="11.3267" y2="1.99526" gradientUnits="userSpaceOnUse">
<stop stop-color="#7B6EFF"/>
<stop offset="0.0834" stop-color="#7A6DFF"/>
<stop offset="0.3708" stop-color="#36B9DB"/>
<stop offset="0.6295" stop-color="#239AD3"/>
<stop offset="0.848" stop-color="#796CFF"/>
<stop offset="1" stop-color="#5647FF"/>
</linearGradient>
<linearGradient id="paint13_linear_1_748" x1="2.92812" y1="24.6341" x2="-0.0876098" y2="24.7028" gradientUnits="userSpaceOnUse">
<stop stop-color="#6A82FF"/>
<stop offset="1" stop-color="#84BBFD"/>
</linearGradient>
<linearGradient id="paint14_linear_1_748" x1="35.844" y1="5.77675" x2="4.37172" y2="14.6317" gradientUnits="userSpaceOnUse">
<stop stop-color="#766AFF"/>
<stop offset="1" stop-color="#9C84FD"/>
</linearGradient>
<linearGradient id="paint15_linear_1_748" x1="23.8021" y1="26.8358" x2="10.2139" y2="29.1829" gradientUnits="userSpaceOnUse">
<stop stop-color="#766AFF"/>
<stop offset="1" stop-color="#9C84FD"/>
</linearGradient>
<linearGradient id="paint16_linear_1_748" x1="41.1061" y1="36.9505" x2="27.8982" y2="46.3694" gradientUnits="userSpaceOnUse">
<stop stop-color="#766AFF"/>
<stop offset="1" stop-color="#9C84FD"/>
</linearGradient>
<linearGradient id="paint17_linear_1_748" x1="44.7012" y1="14.4095" x2="42.6669" y2="14.4818" gradientUnits="userSpaceOnUse">
<stop stop-color="#766AFF"/>
<stop offset="1" stop-color="#9C84FD"/>
</linearGradient>
<linearGradient id="paint18_linear_1_748" x1="23.8021" y1="26.8358" x2="10.2139" y2="29.1829" gradientUnits="userSpaceOnUse">
<stop stop-color="#766AFF"/>
<stop offset="1" stop-color="#9C84FD"/>
</linearGradient>
<linearGradient id="paint19_linear_1_748" x1="41.1061" y1="36.9505" x2="27.8982" y2="46.3694" gradientUnits="userSpaceOnUse">
<stop stop-color="#766AFF"/>
<stop offset="1" stop-color="#9C84FD"/>
</linearGradient>
<linearGradient id="paint20_linear_1_748" x1="44.7012" y1="14.4095" x2="42.6669" y2="14.4818" gradientUnits="userSpaceOnUse">
<stop stop-color="#766AFF"/>
<stop offset="1" stop-color="#9C84FD"/>
</linearGradient>
<linearGradient id="paint21_linear_1_748" x1="47.752" y1="0.0163151" x2="35.6392" y2="3.70508" gradientUnits="userSpaceOnUse">
<stop stop-color="#766AFF"/>
<stop offset="1" stop-color="#9C84FD"/>
</linearGradient>
<linearGradient id="paint22_linear_1_748" x1="42.7357" y1="-1.31803" x2="35.8584" y2="-0.265244" gradientUnits="userSpaceOnUse">
<stop stop-color="#766AFF"/>
<stop offset="1" stop-color="#9C84FD"/>
</linearGradient>
<linearGradient id="paint23_linear_1_748" x1="42.7357" y1="-1.31803" x2="35.8584" y2="-0.265244" gradientUnits="userSpaceOnUse">
<stop stop-color="#766AFF"/>
<stop offset="1" stop-color="#9C84FD"/>
</linearGradient>
<linearGradient id="paint24_linear_1_748" x1="15.2423" y1="70.2603" x2="9.96998" y2="71.6064" gradientUnits="userSpaceOnUse">
<stop stop-color="#766AFF"/>
<stop offset="1" stop-color="#9C84FD"/>
</linearGradient>
<linearGradient id="paint25_linear_1_748" x1="11.8344" y1="73.4392" x2="10.8129" y2="73.5047" gradientUnits="userSpaceOnUse">
<stop stop-color="#766AFF"/>
<stop offset="1" stop-color="#9C84FD"/>
</linearGradient>
<linearGradient id="paint26_linear_1_748" x1="14.8578" y1="70.981" x2="10.6784" y2="74.1889" gradientUnits="userSpaceOnUse">
<stop stop-color="#766AFF"/>
<stop offset="1" stop-color="#9C84FD"/>
</linearGradient>
<linearGradient id="paint27_linear_1_748" x1="11.8344" y1="73.4392" x2="10.8129" y2="73.5047" gradientUnits="userSpaceOnUse">
<stop stop-color="#766AFF"/>
<stop offset="1" stop-color="#9C84FD"/>
</linearGradient>
<linearGradient id="paint28_linear_1_748" x1="14.8578" y1="70.981" x2="10.6784" y2="74.1889" gradientUnits="userSpaceOnUse">
<stop stop-color="#766AFF"/>
<stop offset="1" stop-color="#9C84FD"/>
</linearGradient>
<linearGradient id="paint29_linear_1_748" x1="5.19558" y1="19.4128" x2="-1.49868" y2="21.1225" gradientUnits="userSpaceOnUse">
<stop stop-color="#766AFF"/>
<stop offset="1" stop-color="#9C84FD"/>
</linearGradient>
<linearGradient id="paint30_linear_1_748" x1="0.86892" y1="23.448" x2="-0.42689" y2="23.531" gradientUnits="userSpaceOnUse">
<stop stop-color="#766AFF"/>
<stop offset="1" stop-color="#9C84FD"/>
</linearGradient>
<linearGradient id="paint31_linear_1_748" x1="4.70794" y1="20.3279" x2="-0.596556" y2="24.401" gradientUnits="userSpaceOnUse">
<stop stop-color="#766AFF"/>
<stop offset="1" stop-color="#9C84FD"/>
</linearGradient>
<linearGradient id="paint32_linear_1_748" x1="0.86892" y1="23.448" x2="-0.42689" y2="23.531" gradientUnits="userSpaceOnUse">
<stop stop-color="#766AFF"/>
<stop offset="1" stop-color="#9C84FD"/>
</linearGradient>
<linearGradient id="paint33_linear_1_748" x1="4.70794" y1="20.3279" x2="-0.596556" y2="24.401" gradientUnits="userSpaceOnUse">
<stop stop-color="#766AFF"/>
<stop offset="1" stop-color="#9C84FD"/>
</linearGradient>
<linearGradient id="paint34_linear_1_748" x1="54.6552" y1="46.0238" x2="49.3829" y2="47.3698" gradientUnits="userSpaceOnUse">
<stop stop-color="#766AFF"/>
<stop offset="1" stop-color="#9C84FD"/>
</linearGradient>
<linearGradient id="paint35_linear_1_748" x1="51.2473" y1="49.2027" x2="50.2259" y2="49.2681" gradientUnits="userSpaceOnUse">
<stop stop-color="#766AFF"/>
<stop offset="1" stop-color="#9C84FD"/>
</linearGradient>
<linearGradient id="paint36_linear_1_748" x1="54.2707" y1="46.7445" x2="50.0914" y2="49.9524" gradientUnits="userSpaceOnUse">
<stop stop-color="#766AFF"/>
<stop offset="1" stop-color="#9C84FD"/>
</linearGradient>
<linearGradient id="paint37_linear_1_748" x1="51.2473" y1="49.2027" x2="50.2259" y2="49.2681" gradientUnits="userSpaceOnUse">
<stop stop-color="#766AFF"/>
<stop offset="1" stop-color="#9C84FD"/>
</linearGradient>
<linearGradient id="paint38_linear_1_748" x1="54.2707" y1="46.7445" x2="50.0914" y2="49.9524" gradientUnits="userSpaceOnUse">
<stop stop-color="#766AFF"/>
<stop offset="1" stop-color="#9C84FD"/>
</linearGradient>
<linearGradient id="paint39_linear_1_748" x1="54.0062" y1="21.1006" x2="56.5962" y2="17.9442" gradientUnits="userSpaceOnUse">
<stop stop-color="#7B6EFF"/>
<stop offset="0.0834" stop-color="#7A6DFF"/>
<stop offset="0.3708" stop-color="#36B9DB"/>
<stop offset="0.6295" stop-color="#239AD3"/>
<stop offset="0.848" stop-color="#796CFF"/>
<stop offset="1" stop-color="#5647FF"/>
</linearGradient>
<linearGradient id="paint40_linear_1_748" x1="53.7088" y1="20.7903" x2="54.7818" y2="20.4626" gradientUnits="userSpaceOnUse">
<stop stop-color="#7B6EFF"/>
<stop offset="0.0834" stop-color="#7A6DFF"/>
<stop offset="0.3708" stop-color="#36B9DB"/>
<stop offset="0.6295" stop-color="#239AD3"/>
<stop offset="0.848" stop-color="#796CFF"/>
<stop offset="1" stop-color="#5647FF"/>
</linearGradient>
<linearGradient id="paint41_linear_1_748" x1="53.599" y1="17.7754" x2="54.1265" y2="15.8425" gradientUnits="userSpaceOnUse">
<stop stop-color="#7B6EFF"/>
<stop offset="0.0834" stop-color="#7A6DFF"/>
<stop offset="0.3708" stop-color="#36B9DB"/>
<stop offset="0.6295" stop-color="#239AD3"/>
<stop offset="0.848" stop-color="#796CFF"/>
<stop offset="1" stop-color="#5647FF"/>
</linearGradient>
<linearGradient id="paint42_linear_1_748" x1="53.7088" y1="20.7903" x2="54.7818" y2="20.4626" gradientUnits="userSpaceOnUse">
<stop stop-color="#7B6EFF"/>
<stop offset="0.0834" stop-color="#7A6DFF"/>
<stop offset="0.3708" stop-color="#36B9DB"/>
<stop offset="0.6295" stop-color="#239AD3"/>
<stop offset="0.848" stop-color="#796CFF"/>
<stop offset="1" stop-color="#5647FF"/>
</linearGradient>
<linearGradient id="paint43_linear_1_748" x1="53.599" y1="17.7754" x2="54.1265" y2="15.8425" gradientUnits="userSpaceOnUse">
<stop stop-color="#7B6EFF"/>
<stop offset="0.0834" stop-color="#7A6DFF"/>
<stop offset="0.3708" stop-color="#36B9DB"/>
<stop offset="0.6295" stop-color="#239AD3"/>
<stop offset="0.848" stop-color="#796CFF"/>
<stop offset="1" stop-color="#5647FF"/>
</linearGradient>
<linearGradient id="paint44_linear_1_748" x1="54.0062" y1="26.7051" x2="56.5949" y2="23.549" gradientUnits="userSpaceOnUse">
<stop stop-color="#7B6EFF"/>
<stop offset="0.0834" stop-color="#7A6DFF"/>
<stop offset="0.3708" stop-color="#36B9DB"/>
<stop offset="0.6295" stop-color="#239AD3"/>
<stop offset="0.848" stop-color="#796CFF"/>
<stop offset="1" stop-color="#5647FF"/>
</linearGradient>
<linearGradient id="paint45_linear_1_748" x1="53.7088" y1="26.3947" x2="54.7817" y2="26.067" gradientUnits="userSpaceOnUse">
<stop stop-color="#7B6EFF"/>
<stop offset="0.0834" stop-color="#7A6DFF"/>
<stop offset="0.3708" stop-color="#36B9DB"/>
<stop offset="0.6295" stop-color="#239AD3"/>
<stop offset="0.848" stop-color="#796CFF"/>
<stop offset="1" stop-color="#5647FF"/>
</linearGradient>
<linearGradient id="paint46_linear_1_748" x1="53.599" y1="23.382" x2="54.1265" y2="21.4492" gradientUnits="userSpaceOnUse">
<stop stop-color="#7B6EFF"/>
<stop offset="0.0834" stop-color="#7A6DFF"/>
<stop offset="0.3708" stop-color="#36B9DB"/>
<stop offset="0.6295" stop-color="#239AD3"/>
<stop offset="0.848" stop-color="#796CFF"/>
<stop offset="1" stop-color="#5647FF"/>
</linearGradient>
<linearGradient id="paint47_linear_1_748" x1="53.7088" y1="26.3947" x2="54.7817" y2="26.067" gradientUnits="userSpaceOnUse">
<stop stop-color="#7B6EFF"/>
<stop offset="0.0834" stop-color="#7A6DFF"/>
<stop offset="0.3708" stop-color="#36B9DB"/>
<stop offset="0.6295" stop-color="#239AD3"/>
<stop offset="0.848" stop-color="#796CFF"/>
<stop offset="1" stop-color="#5647FF"/>
</linearGradient>
<linearGradient id="paint48_linear_1_748" x1="53.599" y1="23.382" x2="54.1265" y2="21.4492" gradientUnits="userSpaceOnUse">
<stop stop-color="#7B6EFF"/>
<stop offset="0.0834" stop-color="#7A6DFF"/>
<stop offset="0.3708" stop-color="#36B9DB"/>
<stop offset="0.6295" stop-color="#239AD3"/>
<stop offset="0.848" stop-color="#796CFF"/>
<stop offset="1" stop-color="#5647FF"/>
</linearGradient>
<linearGradient id="paint49_linear_1_748" x1="54.0062" y1="32.3115" x2="56.5949" y2="29.1554" gradientUnits="userSpaceOnUse">
<stop stop-color="#7B6EFF"/>
<stop offset="0.0834" stop-color="#7A6DFF"/>
<stop offset="0.3708" stop-color="#36B9DB"/>
<stop offset="0.6295" stop-color="#239AD3"/>
<stop offset="0.848" stop-color="#796CFF"/>
<stop offset="1" stop-color="#5647FF"/>
</linearGradient>
<linearGradient id="paint50_linear_1_748" x1="53.7088" y1="32.0012" x2="54.7817" y2="31.6734" gradientUnits="userSpaceOnUse">
<stop stop-color="#7B6EFF"/>
<stop offset="0.0834" stop-color="#7A6DFF"/>
<stop offset="0.3708" stop-color="#36B9DB"/>
<stop offset="0.6295" stop-color="#239AD3"/>
<stop offset="0.848" stop-color="#796CFF"/>
<stop offset="1" stop-color="#5647FF"/>
</linearGradient>
<linearGradient id="paint51_linear_1_748" x1="53.599" y1="28.9885" x2="54.1265" y2="27.0557" gradientUnits="userSpaceOnUse">
<stop stop-color="#7B6EFF"/>
<stop offset="0.0834" stop-color="#7A6DFF"/>
<stop offset="0.3708" stop-color="#36B9DB"/>
<stop offset="0.6295" stop-color="#239AD3"/>
<stop offset="0.848" stop-color="#796CFF"/>
<stop offset="1" stop-color="#5647FF"/>
</linearGradient>
<linearGradient id="paint52_linear_1_748" x1="53.7088" y1="32.0012" x2="54.7817" y2="31.6734" gradientUnits="userSpaceOnUse">
<stop stop-color="#7B6EFF"/>
<stop offset="0.0834" stop-color="#7A6DFF"/>
<stop offset="0.3708" stop-color="#36B9DB"/>
<stop offset="0.6295" stop-color="#239AD3"/>
<stop offset="0.848" stop-color="#796CFF"/>
<stop offset="1" stop-color="#5647FF"/>
</linearGradient>
<linearGradient id="paint53_linear_1_748" x1="53.599" y1="28.9885" x2="54.1265" y2="27.0557" gradientUnits="userSpaceOnUse">
<stop stop-color="#7B6EFF"/>
<stop offset="0.0834" stop-color="#7A6DFF"/>
<stop offset="0.3708" stop-color="#36B9DB"/>
<stop offset="0.6295" stop-color="#239AD3"/>
<stop offset="0.848" stop-color="#796CFF"/>
<stop offset="1" stop-color="#5647FF"/>
</linearGradient>
<linearGradient id="paint54_linear_1_748" x1="54.0062" y1="37.918" x2="56.5949" y2="34.7619" gradientUnits="userSpaceOnUse">
<stop stop-color="#7B6EFF"/>
<stop offset="0.0834" stop-color="#7A6DFF"/>
<stop offset="0.3708" stop-color="#36B9DB"/>
<stop offset="0.6295" stop-color="#239AD3"/>
<stop offset="0.848" stop-color="#796CFF"/>
<stop offset="1" stop-color="#5647FF"/>
</linearGradient>
<linearGradient id="paint55_linear_1_748" x1="53.7088" y1="37.6082" x2="54.7818" y2="37.2806" gradientUnits="userSpaceOnUse">
<stop stop-color="#7B6EFF"/>
<stop offset="0.0834" stop-color="#7A6DFF"/>
<stop offset="0.3708" stop-color="#36B9DB"/>
<stop offset="0.6295" stop-color="#239AD3"/>
<stop offset="0.848" stop-color="#796CFF"/>
<stop offset="1" stop-color="#5647FF"/>
</linearGradient>
<linearGradient id="paint56_linear_1_748" x1="53.599" y1="34.595" x2="54.1265" y2="32.6621" gradientUnits="userSpaceOnUse">
<stop stop-color="#7B6EFF"/>
<stop offset="0.0834" stop-color="#7A6DFF"/>
<stop offset="0.3708" stop-color="#36B9DB"/>
<stop offset="0.6295" stop-color="#239AD3"/>
<stop offset="0.848" stop-color="#796CFF"/>
<stop offset="1" stop-color="#5647FF"/>
</linearGradient>
<linearGradient id="paint57_linear_1_748" x1="53.7088" y1="37.6082" x2="54.7818" y2="37.2806" gradientUnits="userSpaceOnUse">
<stop stop-color="#7B6EFF"/>
<stop offset="0.0834" stop-color="#7A6DFF"/>
<stop offset="0.3708" stop-color="#36B9DB"/>
<stop offset="0.6295" stop-color="#239AD3"/>
<stop offset="0.848" stop-color="#796CFF"/>
<stop offset="1" stop-color="#5647FF"/>
</linearGradient>
<linearGradient id="paint58_linear_1_748" x1="53.599" y1="34.595" x2="54.1265" y2="32.6621" gradientUnits="userSpaceOnUse">
<stop stop-color="#7B6EFF"/>
<stop offset="0.0834" stop-color="#7A6DFF"/>
<stop offset="0.3708" stop-color="#36B9DB"/>
<stop offset="0.6295" stop-color="#239AD3"/>
<stop offset="0.848" stop-color="#796CFF"/>
<stop offset="1" stop-color="#5647FF"/>
</linearGradient>
<linearGradient id="paint59_linear_1_748" x1="54.0062" y1="43.5252" x2="56.5962" y2="40.3689" gradientUnits="userSpaceOnUse">
<stop stop-color="#7B6EFF"/>
<stop offset="0.0834" stop-color="#7A6DFF"/>
<stop offset="0.3708" stop-color="#36B9DB"/>
<stop offset="0.6295" stop-color="#239AD3"/>
<stop offset="0.848" stop-color="#796CFF"/>
<stop offset="1" stop-color="#5647FF"/>
</linearGradient>
<linearGradient id="paint60_linear_1_748" x1="53.7088" y1="43.2149" x2="54.7818" y2="42.8872" gradientUnits="userSpaceOnUse">
<stop stop-color="#7B6EFF"/>
<stop offset="0.0834" stop-color="#7A6DFF"/>
<stop offset="0.3708" stop-color="#36B9DB"/>
<stop offset="0.6295" stop-color="#239AD3"/>
<stop offset="0.848" stop-color="#796CFF"/>
<stop offset="1" stop-color="#5647FF"/>
</linearGradient>
<linearGradient id="paint61_linear_1_748" x1="53.599" y1="40.1995" x2="54.1255" y2="38.2684" gradientUnits="userSpaceOnUse">
<stop stop-color="#7B6EFF"/>
<stop offset="0.0834" stop-color="#7A6DFF"/>
<stop offset="0.3708" stop-color="#36B9DB"/>
<stop offset="0.6295" stop-color="#239AD3"/>
<stop offset="0.848" stop-color="#796CFF"/>
<stop offset="1" stop-color="#5647FF"/>
</linearGradient>
<linearGradient id="paint62_linear_1_748" x1="53.7088" y1="43.2149" x2="54.7818" y2="42.8872" gradientUnits="userSpaceOnUse">
<stop stop-color="#7B6EFF"/>
<stop offset="0.0834" stop-color="#7A6DFF"/>
<stop offset="0.3708" stop-color="#36B9DB"/>
<stop offset="0.6295" stop-color="#239AD3"/>
<stop offset="0.848" stop-color="#796CFF"/>
<stop offset="1" stop-color="#5647FF"/>
</linearGradient>
<linearGradient id="paint63_linear_1_748" x1="53.599" y1="40.1995" x2="54.1255" y2="38.2684" gradientUnits="userSpaceOnUse">
<stop stop-color="#7B6EFF"/>
<stop offset="0.0834" stop-color="#7A6DFF"/>
<stop offset="0.3708" stop-color="#36B9DB"/>
<stop offset="0.6295" stop-color="#239AD3"/>
<stop offset="0.848" stop-color="#796CFF"/>
<stop offset="1" stop-color="#5647FF"/>
</linearGradient>
</defs>
</svg>
