<svg width="91" height="96" viewBox="0 0 91 96" fill="none" xmlns="http://www.w3.org/2000/svg">
<path d="M26.1779 41.404C26.7144 43.0474 27.7876 44.4049 29.2763 45.3283C31.6581 46.8052 34.6169 46.8052 36.9987 45.3283L54.9382 34.2097V16.965L29.2763 32.8708C26.3932 34.6572 25.1181 38.166 26.1779 41.404Z" fill="#4B80E7"/>
<path d="M61.1148 37.0726C61.3604 37.076 61.6043 37.145 61.8196 37.2812L89.2293 54.5697C90.0669 55.0962 90.0501 56.3123 89.2023 56.8237L30.6489 92.0416C30.4285 92.1745 30.1812 92.2401 29.934 92.2367C29.6884 92.2334 29.4445 92.1644 29.2292 92.0298L1.60592 74.6034C0.764876 74.0769 0.781698 72.8557 1.6362 72.346L60.405 37.2627C60.6237 37.1332 60.8693 37.0693 61.1148 37.0726Z" fill="url(#paint0_linear_1_861)"/>
<path d="M29.9205 92.235C29.68 92.23 29.4394 92.1627 29.2292 92.0298L1.60591 74.6034C1.2308 74.3679 1.02559 73.9945 0.990265 73.6076L1.28631 76.8675C1.32164 77.2544 1.52685 77.6278 1.90196 77.8633L29.5252 95.2897C29.7405 95.4243 29.9844 95.4949 30.23 95.4966C30.2401 95.4966 30.2502 95.4933 30.2603 95.4933L29.9205 92.235Z" fill="url(#paint1_linear_1_861)"/>
<path d="M90.1393 58.8221L89.8432 55.5623C89.8516 55.6598 89.8432 55.7557 89.8298 55.8533C89.8264 55.8852 89.8247 55.9189 89.818 55.9508C89.7961 56.0551 89.7658 56.156 89.7187 56.2536C89.7103 56.2721 89.6952 56.2906 89.6851 56.3091C89.6414 56.3899 89.5909 56.4689 89.5287 56.5396C89.5118 56.5597 89.4933 56.5799 89.4731 56.6001C89.3941 56.6825 89.3066 56.7599 89.2023 56.8221L30.6488 92.0417C30.4285 92.1746 30.1812 92.2402 29.934 92.2368C29.9289 92.2368 29.9255 92.2351 29.9205 92.2351L30.2603 95.4917C30.4975 95.4883 30.7346 95.4277 30.9449 95.2999L89.5001 60.0803C89.6044 60.0164 89.6918 59.9407 89.7709 59.8583C89.7894 59.8381 89.8079 59.8196 89.8264 59.7978C89.8432 59.7776 89.8634 59.7608 89.8785 59.7406C89.9206 59.6851 89.9509 59.6262 89.9828 59.5673C89.9929 59.5488 90.0064 59.532 90.0165 59.5118C90.0181 59.5067 90.0232 59.5017 90.0249 59.4967C90.0619 59.4176 90.0888 59.3352 90.109 59.2511C90.1123 59.2376 90.1123 59.2225 90.114 59.209C90.1207 59.1771 90.1224 59.1451 90.1258 59.1115C90.1325 59.0644 90.1426 59.019 90.1443 58.9719C90.146 58.9214 90.1443 58.8709 90.1393 58.8221Z" fill="url(#paint2_linear_1_861)"/>
<path opacity="0.4" d="M90.1309 58.8305L89.8348 55.5706C89.8432 55.6682 89.8348 55.7641 89.8214 55.8616C89.8163 55.8936 89.8146 55.9272 89.8096 55.9592C89.7877 56.0635 89.7575 56.1644 89.7104 56.262C89.7019 56.2821 89.6868 56.299 89.6767 56.3175C89.633 56.3982 89.5825 56.4773 89.5203 56.5479C89.5035 56.5681 89.4849 56.5883 89.4648 56.6085C89.3857 56.6909 89.2982 56.7683 89.194 56.8305L30.6388 92.0501C30.4184 92.1829 30.1712 92.2486 29.9239 92.2452C29.9188 92.2452 29.9155 92.2435 29.9104 92.2435L30.2502 95.5C30.4874 95.4967 30.7246 95.4361 30.9348 95.3083L89.49 60.0887C89.5943 60.0248 89.6818 59.9491 89.7608 59.8667C89.7793 59.8465 89.7978 59.828 89.8163 59.8061C89.8331 59.7859 89.8533 59.7691 89.8685 59.7489C89.9105 59.6934 89.9408 59.6345 89.9728 59.5757C89.9828 59.5572 89.9963 59.5403 90.0064 59.5202C90.0081 59.5151 90.0131 59.5101 90.0148 59.505C90.0518 59.426 90.0787 59.3435 90.0989 59.2594C90.1023 59.246 90.1023 59.2308 90.104 59.2174C90.1107 59.1854 90.1124 59.1535 90.1157 59.1198C90.1225 59.0727 90.1326 59.0273 90.1342 58.9802C90.1359 58.9314 90.1342 58.881 90.1309 58.8305Z" fill="url(#paint3_linear_1_861)"/>
<path d="M8.12906 70.3562L35.4596 87.2982L83.7288 58.8978L56.0164 41.7203L8.12906 70.3562Z" fill="#316DCD"/>
<path d="M16.6875 77.9574L20.0735 80.0567C20.8692 80.5495 20.8692 81.7085 20.0735 82.203L20.0534 82.2148C19.6446 82.4688 19.1265 82.4671 18.7178 82.2114L15.3519 80.1004C14.5613 79.6042 14.563 78.4503 15.357 77.9574C15.764 77.7051 16.2804 77.7051 16.6875 77.9574Z" fill="url(#paint4_linear_1_861)"/>
<path d="M36.1762 58.6858L54.4218 69.9945L36.1762 81.3031L17.9323 69.9945L36.1762 58.6858Z" fill="url(#paint5_linear_1_861)"/>
<path d="M56.6489 45.7589L74.8928 57.0676L56.6489 68.3763L38.4033 57.0676L56.6489 45.7589Z" fill="url(#paint6_linear_1_861)"/>
<path d="M37.2662 45.7589C34.738 47.3266 31.5403 47.3266 29.0105 45.7589C27.3419 44.7244 26.2384 43.2189 25.6968 41.5621L25.7018 66.6101C25.6396 69.2375 26.8709 71.8901 29.4024 73.4595C31.9306 75.0272 35.1299 75.0272 37.6581 73.4595L37.9323 73.2896V45.3451L37.2662 45.7589Z" fill="#4B80E7"/>
<path d="M37.9323 45.3452L59.0442 32.2586L59.061 32.2468L37.2662 45.759L37.9323 45.3452Z" fill="#88E4F5"/>
<path d="M54.9382 16.9634L32.9516 30.5916L32.6556 46.4184C34.1493 46.5176 35.6648 46.1543 36.9987 45.3267L62.8793 29.2813V2.22827L33.1383 20.664L32.9634 29.9895L54.4386 16.6791L54.9382 16.9634Z" fill="url(#paint7_linear_1_861)"/>
<path d="M70.3142 25.2728L59.0442 32.2585L37.9323 45.3452V48.6387V73.2897L70.7078 52.9734L70.3142 25.2728Z" fill="#4B80E7"/>
<path d="M69.8028 24.9918L62.8793 29.2845L36.9987 45.33C35.6648 46.1575 34.1493 46.5209 32.6556 46.4216C31.4832 46.3443 30.3242 45.9809 29.2763 45.33C27.7859 44.4065 26.7144 43.0491 26.1779 41.4057C25.1198 38.1676 26.3932 34.6588 29.2763 32.8724L32.9516 30.5949L32.9634 29.9927L29.0105 32.4435C25.7371 34.4738 24.6337 38.3123 25.6968 41.5654C26.2384 43.2223 27.3419 44.7278 29.0105 45.7622C30.1308 46.4569 31.3806 46.8421 32.6472 46.9212C34.2401 47.0204 35.8566 46.6352 37.2662 45.7622L59.061 32.25L70.3091 25.2761L69.8028 24.9918Z" fill="url(#paint8_linear_1_861)"/>
<path d="M54.9382 16.9633L54.4386 16.679L32.9634 29.9894L32.9516 30.5916L54.9382 16.9633Z" fill="url(#paint9_linear_1_861)"/>
<path opacity="0.3" d="M37.2662 45.7589C35.8566 46.6319 34.2401 47.0171 32.6472 46.9178C31.3805 46.8388 30.1308 46.4536 29.0105 45.7589C27.3419 44.7244 26.2384 43.2189 25.6968 41.5621L25.7018 66.6101C25.6396 69.2375 26.8709 71.8901 29.4024 73.4595C31.9306 75.0272 35.1299 75.0272 37.6581 73.4595L37.9323 73.2896V48.6386V45.3451L37.2662 45.7589Z" fill="#4B80E7"/>
<path d="M32.6556 20.3662L33.1383 20.6639L62.8793 2.22822L62.373 1.91534L32.6556 20.3662Z" fill="url(#paint10_linear_1_861)"/>
<path d="M32.262 46.383L32.6556 46.42L33.1383 20.6639L32.6556 20.3661L32.262 46.383Z" fill="url(#paint11_linear_1_861)"/>
<path d="M60.4992 40.5714L73.9307 32.2451V41.4629L63.7036 47.8027C61.6767 49.0592 59.0593 47.6008 59.0593 45.2173V43.1568C59.061 42.1038 59.6043 41.1265 60.4992 40.5714Z" fill="#4B80E7"/>
<path opacity="0.3" d="M60.4992 40.5714L73.9307 32.2451V41.4629L63.7036 47.8027C61.6767 49.0592 59.0593 47.6008 59.0593 45.2173V43.1568C59.061 42.1038 59.6043 41.1265 60.4992 40.5714Z" fill="#4B80E7"/>
<path d="M60.4992 40.5714C59.6043 41.1265 59.0593 42.1038 59.0593 43.1568V44.2804C59.0593 43.2274 59.5757 41.6277 60.4706 41.0743L73.9307 32.7901V32.2451L60.4992 40.5714Z" fill="url(#paint12_linear_1_861)"/>
<path d="M65.6161 42.2838C66.0736 43.0222 65.6363 44.1206 64.6388 44.738C63.6413 45.3553 62.4622 45.2594 62.0046 44.521C61.5471 43.7825 61.9844 42.6841 62.9819 42.0651C63.9794 41.4495 65.1586 41.5454 65.6161 42.2838Z" fill="url(#paint13_linear_1_861)"/>
<path d="M67.5286 8.01456C64.8827 6.48722 60.7229 8.73787 58.2367 13.0423C55.7506 17.3468 55.8818 22.0751 58.5277 23.6025L60.2771 24.6134C59.9777 24.4401 59.7136 24.2249 59.4781 23.9759C59.2275 23.7101 59.0139 23.404 58.8373 23.0642C57.7136 20.8994 58.0803 17.3518 59.9844 14.0532C61.8902 10.753 64.7784 8.66216 67.214 8.55283C67.5976 8.536 67.9693 8.56797 68.3242 8.65207C68.6573 8.73113 68.9769 8.85224 69.2763 9.02549L67.5286 8.01456Z" fill="#B0A8FB"/>
<path d="M69.278 9.02558C68.9785 8.85233 68.6606 8.73122 68.3259 8.65216C67.971 8.56806 67.5992 8.5361 67.2157 8.55292C64.7784 8.66225 61.8902 10.7531 59.9861 14.0533C58.0803 17.3536 57.7153 20.8994 58.8389 23.0643C59.0155 23.4041 59.2292 23.7102 59.4798 23.976C59.7136 24.2249 59.9794 24.4402 60.2788 24.6135C62.9247 26.1408 67.0845 23.8902 69.5706 19.5857C72.0551 15.2813 71.9239 10.5529 69.278 9.02558Z" fill="#B0A8FB"/>
<path opacity="0.3" d="M59.2594 11.5049L60.9869 12.5444C61.2376 12.2131 61.4983 11.8985 61.7674 11.6042L60.0551 10.5529C59.7826 10.8506 59.5151 11.1685 59.2594 11.5049Z" fill="#B0A8FB"/>
<path opacity="0.3" d="M56.4554 19.0339L58.2065 20.0869C58.2082 19.6495 58.2435 19.1954 58.3108 18.7294L56.5698 17.6613C56.4991 18.1323 56.4605 18.5915 56.4554 19.0339Z" fill="#B0A8FB"/>
<path opacity="0.3" d="M56.6892 21.0171L58.4571 22.0802C58.3226 21.5992 58.2418 21.0743 58.2166 20.5209L56.4622 19.4444C56.4823 20.0029 56.558 20.531 56.6892 21.0171Z" fill="#B0A8FB"/>
<path opacity="0.3" d="M60.304 10.2888L62.0282 11.3249C62.3259 11.0171 62.6303 10.7328 62.9415 10.4721L61.2359 9.42584C60.918 9.68825 60.6068 9.97757 60.304 10.2888Z" fill="#B0A8FB"/>
<path opacity="0.3" d="M56.632 17.2964L58.3747 18.3443C58.4487 17.9356 58.5479 17.5201 58.6707 17.0996L56.9365 16.0365C56.8104 16.4621 56.7077 16.8826 56.632 17.2964Z" fill="#B0A8FB"/>
<path opacity="0.3" d="M58.373 12.8136L60.1039 13.8548C60.3158 13.5015 60.5378 13.1617 60.77 12.8388L59.0525 11.7841C58.8154 12.1121 58.5883 12.4553 58.373 12.8136Z" fill="#B0A8FB"/>
<path opacity="0.3" d="M57.0424 15.7001L58.78 16.7463C58.9045 16.3611 59.0509 15.9742 59.2174 15.5874L57.4899 14.5276C57.32 14.9179 57.1703 15.3098 57.0424 15.7001Z" fill="#B0A8FB"/>
<path opacity="0.3" d="M67.5286 8.01463C66.7834 7.58401 65.9172 7.4545 65.0021 7.5857L66.6993 8.60673C66.8743 8.57981 67.0475 8.56131 67.2174 8.55458C67.6009 8.53776 67.9727 8.56972 68.3276 8.65382C68.6607 8.73288 68.9802 8.85399 69.2797 9.02725L67.5286 8.01463Z" fill="#B0A8FB"/>
<path opacity="0.3" d="M58.5278 23.6041L60.2771 24.6151C59.9777 24.4418 59.7136 24.2265 59.4781 23.9775C59.2275 23.7118 59.0139 23.4056 58.8373 23.0659C58.7649 22.9262 58.6993 22.7816 58.6405 22.6319L56.8575 21.5385C57.1989 22.4384 57.7557 23.1584 58.5278 23.6041Z" fill="#B0A8FB"/>
<path opacity="0.3" d="M63.0223 8.23828L64.7347 9.2694C65.2006 9.03055 65.6665 8.84888 66.124 8.72777L64.4453 7.69666C63.9777 7.8144 63.5 7.99774 63.0223 8.23828Z" fill="#B0A8FB"/>
<path opacity="0.3" d="M61.5353 9.18706L63.2561 10.2215C63.6144 9.94231 63.9777 9.69505 64.3444 9.48311L62.6472 8.44189C62.2721 8.65552 61.9003 8.90447 61.5353 9.18706Z" fill="#B0A8FB"/>
<path opacity="0.3" d="M57.6312 14.2114L59.3654 15.2542C59.532 14.8909 59.7187 14.5293 59.9222 14.1693L58.1997 13.1113C57.9912 13.4763 57.8011 13.843 57.6312 14.2114Z" fill="#B0A8FB"/>
<path d="M56.8574 21.537L58.6404 22.6303C58.5698 22.4537 58.5092 22.2704 58.4554 22.0803L56.6875 21.0172C56.738 21.1972 56.7935 21.3705 56.8574 21.537Z" fill="#B0A8FB"/>
<path d="M56.4621 19.4445L58.2165 20.521C58.2098 20.378 58.2064 20.2334 58.2081 20.087L56.4571 19.0341C56.4537 19.172 56.4571 19.3099 56.4621 19.4445Z" fill="#B0A8FB"/>
<path d="M56.5698 17.6614L58.3108 18.7295C58.3293 18.6017 58.3511 18.4738 58.373 18.3443L56.6304 17.2964C56.6085 17.4192 56.5883 17.5403 56.5698 17.6614Z" fill="#B0A8FB"/>
<path d="M56.9365 16.0365L58.6707 17.0996C58.706 16.9818 58.7431 16.864 58.7801 16.7446L57.0425 15.6984C57.0055 15.8127 56.9701 15.9254 56.9365 16.0365Z" fill="#B0A8FB"/>
<path d="M57.4899 14.526L59.2174 15.5857C59.2645 15.4747 59.3149 15.3636 59.3654 15.2543L57.6312 14.2114C57.5824 14.3157 57.5353 14.4217 57.4899 14.526Z" fill="#B0A8FB"/>
<path d="M58.2367 13.0424C58.2233 13.0643 58.2115 13.0878 58.198 13.1114L59.9205 14.1694C59.9424 14.1307 59.9625 14.092 59.9844 14.0533C60.0231 13.9861 60.0618 13.9205 60.1022 13.8549L58.3713 12.8137C58.3276 12.891 58.2805 12.9651 58.2367 13.0424Z" fill="#B0A8FB"/>
<path d="M59.0525 11.7859L60.7699 12.8405C60.8423 12.7413 60.9146 12.642 60.9886 12.5445L59.2611 11.5049C59.1888 11.5958 59.1198 11.69 59.0525 11.7859Z" fill="#B0A8FB"/>
<path d="M60.0551 10.5512L61.7674 11.6026C61.8532 11.5084 61.939 11.4158 62.0265 11.3267L60.3023 10.2905C60.2216 10.3763 60.1375 10.4621 60.0551 10.5512Z" fill="#B0A8FB"/>
<path d="M61.2359 9.4259L62.9415 10.4722C63.0458 10.3847 63.1501 10.3023 63.2544 10.2199L61.5336 9.18536C61.4344 9.26442 61.3351 9.34348 61.2359 9.4259Z" fill="#B0A8FB"/>
<path d="M62.6455 8.44182L64.3427 9.48303C64.4739 9.40734 64.6051 9.33669 64.7363 9.2694L63.0223 8.23828C62.8978 8.3022 62.7717 8.36949 62.6455 8.44182Z" fill="#B0A8FB"/>
<path d="M64.4453 7.69678L66.124 8.72789C66.3175 8.67743 66.5076 8.63706 66.6976 8.60678L65.0004 7.58575C64.8171 7.61099 64.632 7.64968 64.4453 7.69678Z" fill="#B0A8FB"/>
<path opacity="0.3" d="M66.5665 19.0474C66.622 18.8337 66.6405 18.6251 66.622 18.4267C66.6035 18.2265 66.5513 18.0381 66.4672 17.8598C66.3831 17.6815 66.2704 17.5234 66.1291 17.3838C66.2957 17.4124 66.4571 17.4157 66.6153 17.3939C66.7734 17.372 66.9231 17.3266 67.0644 17.2593C67.2057 17.1903 67.3369 17.1029 67.458 16.9918C67.5808 16.8825 67.6901 16.7547 67.7877 16.6083C67.9508 16.3661 68.0585 16.1222 68.1106 15.8783C68.1628 15.6344 68.1577 15.3955 68.0955 15.1617C68.0333 14.9279 67.9121 14.7008 67.7338 14.4805C67.6581 14.388 67.5639 14.2938 67.4597 14.1979L67.934 13.4897L67.3015 13.0658L66.8524 13.737L66.5833 13.557L67.0324 12.8859L66.3999 12.462L65.9508 13.1331L65.5892 12.8909C65.5185 12.8438 65.4361 12.8236 65.3402 12.8304C65.2443 12.8371 65.1552 12.9027 65.0728 13.0255L61.4142 18.4889C61.3318 18.6117 61.3049 18.7193 61.3352 18.8102C61.3655 18.901 61.4142 18.97 61.4849 19.0171L61.9744 19.3451L61.537 19.9977L62.1695 20.4216L62.6068 19.769L62.876 19.949L62.4386 20.6016L63.0711 21.0255L63.5286 20.3426C63.5723 20.3627 63.6161 20.3829 63.6581 20.4014C63.8533 20.4839 64.0484 20.5427 64.2435 20.5781C64.4386 20.6134 64.6304 20.6218 64.8154 20.605C65.0021 20.5882 65.1804 20.5427 65.352 20.4704C65.5236 20.3981 65.6884 20.2972 65.8449 20.1659C66.0013 20.0347 66.1443 19.8733 66.2721 19.6815C66.4134 19.4729 66.511 19.2627 66.5665 19.0474ZM67.1333 15.705C67.093 15.8514 67.0223 15.9994 66.9231 16.1474C66.8339 16.2803 66.7296 16.3964 66.6068 16.4956C66.4857 16.5949 66.3528 16.6638 66.2082 16.7009C66.0635 16.7395 65.9105 16.7446 65.749 16.716C65.5875 16.6874 65.4041 16.605 65.2006 16.4687L64.3057 15.8699L65.6346 13.8867L66.447 14.4317C66.6724 14.5831 66.839 14.7261 66.9466 14.8623C67.0543 14.9986 67.1216 15.1365 67.1518 15.2778C67.1804 15.414 67.1737 15.5587 67.1333 15.705ZM65.0257 19.5654C64.881 19.6563 64.7296 19.7101 64.5681 19.7286C64.4083 19.7471 64.2469 19.7336 64.082 19.6882C63.9189 19.6428 63.7473 19.5604 63.5673 19.4393L62.4252 18.6739L63.8701 16.5158L64.812 17.1466C65.0593 17.3114 65.2477 17.4729 65.3772 17.631C65.5067 17.7891 65.5942 17.9523 65.6396 18.1188C65.685 18.2854 65.6884 18.4569 65.6514 18.6336C65.6144 18.8102 65.5353 18.9902 65.4126 19.1735C65.2999 19.3451 65.1703 19.4746 65.0257 19.5654Z" fill="#B0A8FB"/>
<path opacity="0.3" d="M68.6488 10.0028C68.3864 9.84807 68.1072 9.74042 67.8145 9.66977C67.5034 9.59407 67.177 9.56716 66.8406 9.5823C64.7027 9.67986 62.1694 11.5487 60.4991 14.4974C58.8288 17.4461 58.5075 20.6168 59.4932 22.5512C59.648 22.8556 59.8347 23.1281 60.0551 23.367C60.2603 23.589 60.4941 23.7825 60.7548 23.9372C63.0761 25.3031 66.7245 23.2913 68.9045 19.4427C71.0845 15.5941 70.9701 11.3687 68.6488 10.0028Z" fill="white"/>
<path d="M49.9357 0.978425C47.2897 -0.548911 43.1299 1.70172 40.6438 6.00618C38.1577 10.3106 38.2889 15.039 40.9348 16.5663L42.6842 17.5773C42.3848 17.404 42.1207 17.1887 41.8852 16.9398C41.6346 16.674 41.4209 16.3679 41.2443 16.0281C40.1207 13.8632 40.4874 10.3157 42.3915 7.01712C44.2973 3.71686 47.1855 1.62602 49.6211 1.51669C50.0046 1.49986 50.3764 1.53183 50.7313 1.61593C51.0644 1.69499 51.384 1.8161 51.6834 1.98935L49.9357 0.978425Z" fill="#B0A8FB"/>
<path d="M51.6868 1.98939C51.3874 1.81613 51.0678 1.69503 50.7347 1.61597C50.3798 1.53187 50.008 1.4999 49.6245 1.51672C47.1872 1.62606 44.299 3.7169 42.3949 7.01715C40.4891 10.3174 40.1241 13.8633 41.2477 16.0281C41.4243 16.3679 41.638 16.674 41.8886 16.9398C42.1224 17.1887 42.3882 17.4041 42.6876 17.5773C45.3335 19.1046 49.4933 16.854 51.9795 12.5495C54.4622 8.24508 54.3327 3.51673 51.6868 1.98939Z" fill="#B0A8FB"/>
<path opacity="0.3" d="M41.6682 4.46708L43.3958 5.50661C43.6464 5.17524 43.9088 4.86069 44.1762 4.56632L42.4639 3.51501C42.1897 3.81274 41.9239 4.13066 41.6682 4.46708Z" fill="#B0A8FB"/>
<path opacity="0.3" d="M38.8642 11.9978L40.6153 13.0508C40.6169 12.6134 40.6523 12.1592 40.7195 11.6933L38.9786 10.6252C38.9079 11.0945 38.8692 11.5537 38.8642 11.9978Z" fill="#B0A8FB"/>
<path opacity="0.3" d="M39.098 13.9809L40.8659 15.044C40.7313 14.5629 40.6506 14.0381 40.6253 13.4847L38.8709 12.4081C38.8911 12.9666 38.9668 13.4948 39.098 13.9809Z" fill="#B0A8FB"/>
<path opacity="0.3" d="M42.7128 3.25262L44.437 4.28879C44.7347 3.98097 45.0392 3.6967 45.3503 3.43597L43.6447 2.38971C43.3268 2.65212 43.0156 2.94144 42.7128 3.25262Z" fill="#B0A8FB"/>
<path opacity="0.3" d="M39.0408 10.2601L40.7835 11.3081C40.8575 10.8993 40.9567 10.4838 41.0795 10.0633L39.3453 9.00024C39.2191 9.42581 39.1165 9.84633 39.0408 10.2601Z" fill="#B0A8FB"/>
<path opacity="0.3" d="M40.7818 5.77742L42.5127 6.81864C42.7246 6.4654 42.9466 6.12562 43.1788 5.80266L41.4614 4.74799C41.2242 5.07599 40.9971 5.41914 40.7818 5.77742Z" fill="#B0A8FB"/>
<path opacity="0.3" d="M39.4513 8.66382L41.1889 9.71007C41.3133 9.32487 41.4597 8.93799 41.6262 8.55111L39.8987 7.49139C39.7288 7.88164 39.5791 8.27357 39.4513 8.66382Z" fill="#B0A8FB"/>
<path opacity="0.3" d="M49.9357 0.978382C49.1905 0.547768 48.3243 0.418239 47.4092 0.549442L49.1064 1.57047C49.2814 1.54356 49.4546 1.52505 49.6245 1.51833C50.008 1.50151 50.3798 1.53347 50.7347 1.61757C51.0678 1.69663 51.3873 1.81774 51.6868 1.99099L49.9357 0.978382Z" fill="#B0A8FB"/>
<path opacity="0.3" d="M40.9365 16.568L42.6859 17.5789C42.3865 17.4056 42.1224 17.1903 41.8869 16.9414C41.6363 16.6756 41.4227 16.3695 41.2461 16.0297C41.1737 15.8901 41.1081 15.7454 41.0476 15.5957L39.2646 14.5007C39.6077 15.4006 40.1645 16.1205 40.9365 16.568Z" fill="#B0A8FB"/>
<path opacity="0.3" d="M45.4311 1.20215L47.1435 2.23327C47.6094 1.99441 48.0753 1.81275 48.5329 1.69164L46.8541 0.660522C46.3865 0.778269 45.9088 0.959929 45.4311 1.20215Z" fill="#B0A8FB"/>
<path opacity="0.3" d="M43.9424 2.14916L45.6632 3.18364C46.0215 2.90442 46.3848 2.65715 46.7515 2.4452L45.056 1.40399C44.6809 1.6193 44.3091 1.86656 43.9424 2.14916Z" fill="#B0A8FB"/>
<path opacity="0.3" d="M40.04 7.17357L41.7742 8.21647C41.9407 7.85313 42.1274 7.49148 42.331 7.13152L40.6085 6.07349C40.3983 6.4385 40.2099 6.80687 40.04 7.17357Z" fill="#B0A8FB"/>
<path d="M39.2662 14.5008L41.0492 15.5958C40.9786 15.4192 40.918 15.2359 40.8642 15.0458L39.0963 13.9827C39.1451 14.161 39.2023 14.3326 39.2662 14.5008Z" fill="#B0A8FB"/>
<path d="M38.8692 12.4082L40.6236 13.4847C40.6169 13.3417 40.6135 13.1971 40.6152 13.0507L38.8642 11.9977C38.8625 12.1357 38.8642 12.2719 38.8692 12.4082Z" fill="#B0A8FB"/>
<path d="M38.9785 10.6252L40.7195 11.6933C40.738 11.5655 40.7582 11.4377 40.7817 11.3081L39.0391 10.2602C39.0172 10.3813 38.997 10.5041 38.9785 10.6252Z" fill="#B0A8FB"/>
<path d="M39.3453 9.00033L41.0795 10.0634C41.1148 9.94566 41.1502 9.82791 41.1888 9.70849L39.4512 8.66223C39.4142 8.77661 39.3789 8.88763 39.3453 9.00033Z" fill="#B0A8FB"/>
<path d="M39.8987 7.48984L41.6262 8.54956C41.6733 8.43854 41.7237 8.32753 41.7742 8.21819L40.04 7.17529C39.9912 7.27958 39.9441 7.38387 39.8987 7.48984Z" fill="#B0A8FB"/>
<path d="M40.6455 6.0062C40.6321 6.02807 40.6203 6.05162 40.6068 6.07349L42.3293 7.13152C42.3512 7.09283 42.3714 7.05414 42.3932 7.01546C42.4319 6.94817 42.4706 6.88257 42.511 6.81697L40.7801 5.77576C40.7364 5.85313 40.6893 5.92883 40.6455 6.0062Z" fill="#B0A8FB"/>
<path d="M41.4613 4.74972L43.1787 5.80439C43.2511 5.70515 43.3234 5.6059 43.3974 5.50834L41.6699 4.46881C41.5976 4.55964 41.5286 4.65384 41.4613 4.74972Z" fill="#B0A8FB"/>
<path d="M42.4639 3.51506L44.1762 4.56636C44.262 4.47216 44.3478 4.37966 44.4353 4.29051L42.7111 3.25433C42.6304 3.33844 42.5463 3.4259 42.4639 3.51506Z" fill="#B0A8FB"/>
<path d="M43.6447 2.38965L45.3503 3.43591C45.4546 3.34844 45.5589 3.26602 45.6632 3.1836L43.9424 2.14911C43.8432 2.22648 43.7439 2.30722 43.6447 2.38965Z" fill="#B0A8FB"/>
<path d="M45.0543 1.40568L46.7498 2.4469C46.881 2.3712 47.0122 2.30055 47.1434 2.23327L45.431 1.20215C45.3066 1.26607 45.1804 1.33336 45.0543 1.40568Z" fill="#B0A8FB"/>
<path d="M46.8541 0.660462L48.5328 1.69158C48.7263 1.64112 48.9163 1.60074 49.1064 1.57047L47.4092 0.549438C47.2258 0.57467 47.0408 0.613364 46.8541 0.660462Z" fill="#B0A8FB"/>
<path opacity="0.3" d="M48.9735 12.0112C49.0291 11.7976 49.0476 11.589 49.029 11.3905C49.0105 11.1904 48.9584 11.002 48.8743 10.8237C48.7902 10.6454 48.6775 10.4872 48.5362 10.3476C48.7027 10.3762 48.8642 10.3796 49.0223 10.3577C49.1804 10.3358 49.3301 10.2904 49.4714 10.2232C49.6127 10.1559 49.7439 10.0667 49.865 9.9557C49.9878 9.84637 50.0972 9.71853 50.1947 9.57218C50.3579 9.32828 50.4656 9.08607 50.5177 8.84216C50.5698 8.59826 50.5648 8.3594 50.5026 8.12559C50.4403 7.89178 50.3192 7.6647 50.1409 7.44435C50.0652 7.35183 49.971 7.25763 49.8667 7.16175L50.3411 6.4536L49.7086 6.02971L49.2595 6.70086L48.9904 6.52087L49.4395 5.84972L48.807 5.42584L48.3579 6.09699L47.9962 5.85477C47.9256 5.80767 47.8432 5.78748 47.7473 5.79421C47.6514 5.80094 47.5623 5.86655 47.4798 5.98934L43.8213 11.4528C43.7389 11.5755 43.712 11.6832 43.7422 11.774C43.7725 11.8649 43.8213 11.9338 43.892 11.9809L44.3814 12.3089L43.9441 12.9616L44.5766 13.3855L45.0139 12.7328L45.283 12.9128L44.8457 13.5655L45.4782 13.9893L45.9357 13.3064C45.9794 13.3266 46.0232 13.3468 46.0652 13.3653C46.2603 13.4477 46.4555 13.5066 46.6506 13.5419C46.8457 13.5772 47.0375 13.5856 47.2225 13.5688C47.4092 13.552 47.5875 13.5066 47.7591 13.4343C47.9306 13.3619 48.0955 13.261 48.2519 13.1298C48.4084 12.9986 48.5513 12.8371 48.6792 12.6454C48.8222 12.4368 48.9197 12.2248 48.9735 12.0112ZM49.5421 8.66722C49.5017 8.81356 49.4311 8.96159 49.3318 9.10961C49.2427 9.24249 49.1384 9.35856 49.0156 9.4578C48.8945 9.55705 48.7616 9.62601 48.6169 9.66301C48.4723 9.7017 48.3192 9.70507 48.1577 9.67816C47.9962 9.64956 47.8129 9.56714 47.6094 9.43089L46.7145 8.83207L48.0433 6.84888L48.8558 7.39388C49.0812 7.54527 49.2477 7.68824 49.3554 7.82449C49.463 7.96074 49.5303 8.09868 49.5606 8.23997C49.5892 8.3779 49.5825 8.52088 49.5421 8.66722ZM47.4344 12.5293C47.2898 12.6201 47.1384 12.674 46.9769 12.6925C46.8171 12.711 46.6539 12.6975 46.4908 12.6521C46.3276 12.6067 46.156 12.5243 45.9761 12.4031L44.8339 11.6378L46.2788 9.47967L47.2208 10.1105C47.4681 10.2753 47.6565 10.4368 47.786 10.5949C47.9155 10.753 48.003 10.9162 48.0484 11.0827C48.0938 11.2492 48.0972 11.4208 48.0602 11.5974C48.0232 11.774 47.9441 11.954 47.8213 12.1374C47.7086 12.3089 47.5791 12.4385 47.4344 12.5293Z" fill="#B0A8FB"/>
<path opacity="0.3" d="M51.0577 2.96662C50.7953 2.81187 50.516 2.70254 50.2233 2.63357C49.9122 2.55788 49.5858 2.53096 49.2494 2.5461C47.1115 2.64366 44.5783 4.51247 42.9079 7.46117C41.2376 10.4099 40.9164 13.5806 41.9021 15.515C42.0568 15.8195 42.2435 16.092 42.4639 16.3308C42.6691 16.5529 42.9029 16.7463 43.1653 16.901C45.4866 18.2669 49.135 16.2551 51.315 12.4065C53.4933 8.5579 53.3789 4.3308 51.0577 2.96662Z" fill="white"/>
<path d="M47.2409 22.0534C44.595 20.526 40.4352 22.7767 37.9491 27.0811C35.463 31.3856 35.5942 36.114 38.2401 37.6413L39.9895 38.6522C39.69 38.479 39.426 38.2637 39.1905 38.0147C38.9398 37.7489 38.7262 37.4428 38.5496 37.103C37.426 34.9382 37.7926 31.3907 39.6968 28.0921C41.6026 24.7918 44.4907 22.701 46.9264 22.5916C47.3099 22.5748 47.6816 22.6068 48.0366 22.6909C48.3696 22.77 48.6892 22.8911 48.9869 23.0643L47.2409 22.0534Z" fill="#B0A8FB"/>
<path d="M48.992 23.0643C48.6926 22.891 48.3747 22.7699 48.0416 22.6909C47.6867 22.6068 47.315 22.5748 46.9315 22.5916C44.4941 22.7009 41.606 24.7918 39.7019 28.0921C37.796 31.3923 37.431 34.9381 38.5547 37.103C38.7313 37.4428 38.9449 37.7489 39.1955 38.0147C39.4294 38.2636 39.6951 38.479 39.9945 38.6522C42.6405 40.1795 46.8003 37.9289 49.2864 33.6244C51.7675 29.32 51.638 24.5916 48.992 23.0643Z" fill="#B0A8FB"/>
<path opacity="0.3" d="M38.9735 25.542L40.701 26.5815C40.9516 26.2501 41.2141 25.9356 41.4815 25.6412L39.7691 24.5899C39.495 24.8876 39.2292 25.2056 38.9735 25.542Z" fill="#B0A8FB"/>
<path opacity="0.3" d="M36.1695 33.071L37.9205 34.1239C37.9222 33.6866 37.9576 33.2324 38.0248 32.7665L36.2839 31.6984C36.2132 32.1693 36.1729 32.6286 36.1695 33.071Z" fill="#B0A8FB"/>
<path opacity="0.3" d="M36.4016 35.0559L38.1695 36.1189C38.0349 35.6379 37.9542 35.113 37.9289 34.5596L36.1745 33.4831C36.1964 34.0415 36.2704 34.5697 36.4016 35.0559Z" fill="#B0A8FB"/>
<path opacity="0.3" d="M40.0181 24.3275L41.7422 25.3636C42.04 25.0558 42.3444 24.7715 42.6556 24.5108L40.95 23.4645C40.6321 23.7269 40.3209 24.0163 40.0181 24.3275Z" fill="#B0A8FB"/>
<path opacity="0.3" d="M36.3444 31.3351L38.087 32.383C38.161 31.9743 38.2603 31.5588 38.3831 31.1383L36.6488 30.0752C36.5227 30.5008 36.4218 30.9213 36.3444 31.3351Z" fill="#B0A8FB"/>
<path opacity="0.3" d="M38.0871 26.8524L39.8179 27.8936C40.0299 27.5403 40.2519 27.2006 40.484 26.8776L38.7666 25.8229C38.5295 26.1509 38.3024 26.4941 38.0871 26.8524Z" fill="#B0A8FB"/>
<path opacity="0.3" d="M36.7565 29.7388L38.4941 30.785C38.6186 30.3998 38.7649 30.0129 38.9315 29.6261L37.204 28.5663C37.0341 28.9566 36.8844 29.3485 36.7565 29.7388Z" fill="#B0A8FB"/>
<path opacity="0.3" d="M47.241 22.0532C46.4958 21.6226 45.6295 21.4931 44.7145 21.6243L46.4117 22.6453C46.5866 22.6184 46.7599 22.5999 46.9298 22.5932C47.3133 22.5763 47.685 22.6083 48.04 22.6924C48.373 22.7715 48.6926 22.8926 48.9903 23.0658L47.241 22.0532Z" fill="#B0A8FB"/>
<path opacity="0.3" d="M38.2418 37.6412L39.9912 38.6522C39.6918 38.4789 39.4277 38.2636 39.1922 38.0147C38.9416 37.7489 38.7279 37.4427 38.5513 37.103C38.479 36.9633 38.4134 36.8187 38.3528 36.669L36.5698 35.5756C36.913 36.4755 37.4681 37.1955 38.2418 37.6412Z" fill="#B0A8FB"/>
<path opacity="0.3" d="M42.7364 22.277L44.4487 23.3081C44.9147 23.0692 45.3806 22.8876 45.8381 22.7665L44.1594 21.7354C43.6901 21.8531 43.2141 22.0348 42.7364 22.277Z" fill="#B0A8FB"/>
<path opacity="0.3" d="M41.2477 23.224L42.9685 24.2585C43.3268 23.9792 43.6901 23.732 44.0568 23.52L42.3613 22.4788C41.9861 22.6941 41.6144 22.9414 41.2477 23.224Z" fill="#B0A8FB"/>
<path opacity="0.3" d="M37.3436 28.2485L39.0778 29.2914C39.2443 28.9281 39.431 28.5664 39.6346 28.2065L37.9121 27.1484C37.7035 27.5135 37.5151 27.8818 37.3436 28.2485Z" fill="#B0A8FB"/>
<path d="M36.5715 35.5757L38.3545 36.669C38.2838 36.4924 38.2233 36.3091 38.1695 36.119L36.4016 35.0559C36.4504 35.2342 36.5076 35.4075 36.5715 35.5757Z" fill="#B0A8FB"/>
<path d="M36.1745 33.4831L37.9289 34.5597C37.9222 34.4167 37.9188 34.272 37.9205 34.1257L36.1695 33.0727C36.1678 33.2106 36.1695 33.3469 36.1745 33.4831Z" fill="#B0A8FB"/>
<path d="M36.2838 31.7001L38.0248 32.7682C38.0433 32.6404 38.0652 32.5125 38.087 32.383L36.3444 31.3351C36.3225 31.4562 36.3023 31.579 36.2838 31.7001Z" fill="#B0A8FB"/>
<path d="M36.6505 30.0751L38.3847 31.1382C38.4201 31.0205 38.4571 30.9027 38.4941 30.7833L36.7565 29.7371C36.7195 29.8514 36.6842 29.9624 36.6505 30.0751Z" fill="#B0A8FB"/>
<path d="M37.2039 28.5647L38.9315 29.6244C38.9786 29.5134 39.029 29.4024 39.0795 29.293L37.3452 28.2501C37.2948 28.3544 37.2494 28.4587 37.2039 28.5647Z" fill="#B0A8FB"/>
<path d="M37.9491 27.0811C37.9357 27.103 37.9239 27.1265 37.9104 27.1501L39.6329 28.2081C39.6548 28.1694 39.6749 28.1307 39.6968 28.0921C39.7355 28.0248 39.7742 27.9592 39.8146 27.8936L38.0837 26.8524C38.0416 26.928 37.9945 27.0037 37.9491 27.0811Z" fill="#B0A8FB"/>
<path d="M38.7649 25.8229L40.4823 26.8776C40.5547 26.7783 40.627 26.6791 40.701 26.5815L38.9735 25.542C38.9029 25.6345 38.8339 25.7287 38.7649 25.8229Z" fill="#B0A8FB"/>
<path d="M39.7691 24.5899L41.4815 25.6412C41.5673 25.547 41.6531 25.4545 41.7405 25.3654L40.0164 24.3292C39.934 24.4133 39.8516 24.5008 39.7691 24.5899Z" fill="#B0A8FB"/>
<path d="M40.9483 23.4646L42.6539 24.5109C42.7582 24.4234 42.8625 24.341 42.9668 24.2585L41.246 23.2241C41.1484 23.3014 41.0475 23.3822 40.9483 23.4646Z" fill="#B0A8FB"/>
<path d="M42.3596 22.4805L44.0551 23.5217C44.1863 23.446 44.3175 23.3754 44.4487 23.3081L42.7363 22.277C42.6102 22.3409 42.4857 22.4082 42.3596 22.4805Z" fill="#B0A8FB"/>
<path d="M44.1594 21.7337L45.8381 22.7648C46.0315 22.7144 46.2216 22.674 46.4117 22.6437L44.7145 21.6227C44.5311 21.6496 44.3461 21.6883 44.1594 21.7337Z" fill="#B0A8FB"/>
<path opacity="0.3" d="M46.2788 33.0862C46.3343 32.8725 46.3529 32.664 46.3343 32.4655C46.3158 32.2653 46.2637 32.0769 46.1796 31.8986C46.0955 31.7203 45.9828 31.5622 45.8415 31.4226C46.008 31.4512 46.1695 31.4546 46.3276 31.4327C46.4857 31.4108 46.6354 31.3654 46.7767 31.2981C46.918 31.2308 47.0492 31.1417 47.1703 31.0307C47.2931 30.9213 47.4025 30.7935 47.5 30.6471C47.6632 30.4049 47.7708 30.161 47.823 29.9171C47.8751 29.6732 47.8701 29.4344 47.8079 29.2006C47.7456 28.9667 47.6245 28.7397 47.4462 28.5193C47.3705 28.4268 47.2763 28.3326 47.172 28.2367L47.6464 27.5286L47.0139 27.1047L46.5648 27.7758L46.2957 27.5958L46.7448 26.9247L46.1123 26.5008L45.6632 27.172L45.3015 26.9297C45.2309 26.8826 45.1485 26.8625 45.0526 26.8692C44.9567 26.8759 44.8676 26.9415 44.7851 27.0643L41.1283 32.5294C41.0459 32.6522 41.0189 32.7598 41.0492 32.8507C41.0795 32.9415 41.1283 33.0105 41.1989 33.0576L41.6884 33.3856L41.2511 34.0382L41.8835 34.4621L42.3209 33.8095L42.59 33.9895L42.1527 34.6421L42.7851 35.066L43.2427 34.3831C43.2864 34.4033 43.3301 34.4234 43.3722 34.4419C43.5673 34.5244 43.7624 34.5832 43.9576 34.6186C44.1527 34.6539 44.3444 34.6623 44.5295 34.6455C44.7162 34.6287 44.8945 34.5832 45.0661 34.5109C45.2376 34.4386 45.4025 34.3377 45.5589 34.2064C45.7153 34.0752 45.8583 33.9138 45.9862 33.722C46.1274 33.5117 46.2233 33.2998 46.2788 33.0862ZM46.8474 29.7422C46.807 29.8885 46.7364 30.0365 46.6371 30.1846C46.548 30.3175 46.4437 30.4335 46.3209 30.5328C46.1998 30.632 46.0669 30.701 45.9222 30.738C45.7776 30.7767 45.6245 30.7817 45.463 30.7531C45.3015 30.7245 45.1182 30.6421 44.9147 30.5059L44.0198 29.907L45.3486 27.9239L46.1611 28.4688C46.3865 28.6202 46.553 28.7632 46.6607 28.8995C46.7683 29.0357 46.8356 29.1736 46.8659 29.3149C46.8945 29.4529 46.8878 29.5958 46.8474 29.7422ZM44.7397 33.6043C44.5951 33.6951 44.442 33.7489 44.2822 33.7674C44.1224 33.7859 43.9609 33.7725 43.7961 33.7271C43.6329 33.6816 43.4613 33.5992 43.2814 33.4781L42.1392 32.7128L43.5841 30.5546L44.5261 31.1854C44.7734 31.3503 44.9618 31.5118 45.0913 31.6699C45.2208 31.828 45.3083 31.9911 45.3537 32.1577C45.3991 32.3242 45.4025 32.4958 45.3655 32.6724C45.3285 32.849 45.2494 33.029 45.1266 33.2123C45.0122 33.3822 44.8844 33.5134 44.7397 33.6043Z" fill="#B0A8FB"/>
<path opacity="0.3" d="M48.3629 24.0415C48.1005 23.8868 47.8213 23.7774 47.5286 23.7085C47.2174 23.6328 46.8911 23.6059 46.5547 23.621C44.4168 23.7186 41.8835 25.5874 40.2132 28.5361C38.5429 31.4848 38.2216 34.6555 39.2073 36.5899C39.3621 36.8944 39.5488 37.1669 39.7691 37.4057C39.9744 37.6278 40.2082 37.8212 40.4706 37.9759C42.7919 39.3418 46.4403 37.33 48.6203 33.4814C50.7986 29.6311 50.6842 25.4057 48.3629 24.0415Z" fill="white"/>
<defs>
<linearGradient id="paint0_linear_1_861" x1="53.3744" y1="24.7417" x2="-8.0244" y2="71.6995" gradientUnits="userSpaceOnUse">
<stop stop-color="#6A82FF"/>
<stop offset="1" stop-color="#84BBFD"/>
</linearGradient>
<linearGradient id="paint1_linear_1_861" x1="18.2465" y1="68.7148" x2="-4.59872" y2="83.2184" gradientUnits="userSpaceOnUse">
<stop stop-color="#6A82FF"/>
<stop offset="1" stop-color="#84BBFD"/>
</linearGradient>
<linearGradient id="paint2_linear_1_861" x1="65.426" y1="46.6369" x2="21.8303" y2="77.8552" gradientUnits="userSpaceOnUse">
<stop stop-color="#6A82FF"/>
<stop offset="1" stop-color="#84BBFD"/>
</linearGradient>
<linearGradient id="paint3_linear_1_861" x1="65.4159" y1="46.6452" x2="21.8202" y2="77.8636" gradientUnits="userSpaceOnUse">
<stop stop-color="#6A82FF"/>
<stop offset="1" stop-color="#84BBFD"/>
</linearGradient>
<linearGradient id="paint4_linear_1_861" x1="18.2445" y1="76.7319" x2="13.5077" y2="79.5988" gradientUnits="userSpaceOnUse">
<stop stop-color="#6A82FF"/>
<stop offset="1" stop-color="#84BBFD"/>
</linearGradient>
<linearGradient id="paint5_linear_1_861" x1="39.4447" y1="53.6301" x2="14.2612" y2="72.92" gradientUnits="userSpaceOnUse">
<stop stop-color="#766AFF"/>
<stop offset="1" stop-color="#9C84FD"/>
</linearGradient>
<linearGradient id="paint6_linear_1_861" x1="59.9158" y1="40.7033" x2="34.7322" y2="59.9932" gradientUnits="userSpaceOnUse">
<stop stop-color="#766AFF"/>
<stop offset="1" stop-color="#9C84FD"/>
</linearGradient>
<linearGradient id="paint7_linear_1_861" x1="50.4741" y1="-7.6531" x2="20.5315" y2="2.06635" gradientUnits="userSpaceOnUse">
<stop stop-color="#766AFF"/>
<stop offset="1" stop-color="#9C84FD"/>
</linearGradient>
<linearGradient id="paint8_linear_1_861" x1="22.9816" y1="53.2572" x2="29.0126" y2="25.225" gradientUnits="userSpaceOnUse">
<stop stop-color="#7B6EFF"/>
<stop offset="0.0834" stop-color="#7A6DFF"/>
<stop offset="0.3708" stop-color="#36B9DB"/>
<stop offset="0.6295" stop-color="#239AD3"/>
<stop offset="0.848" stop-color="#796CFF"/>
<stop offset="1" stop-color="#5647FF"/>
</linearGradient>
<linearGradient id="paint9_linear_1_861" x1="45.9139" y1="13.5692" x2="30.509" y2="25.1275" gradientUnits="userSpaceOnUse">
<stop stop-color="#766AFF"/>
<stop offset="1" stop-color="#9C84FD"/>
</linearGradient>
<linearGradient id="paint10_linear_1_861" x1="50.4741" y1="-2.27551" x2="29.6026" y2="13.6987" gradientUnits="userSpaceOnUse">
<stop stop-color="#6A82FF"/>
<stop offset="1" stop-color="#84BBFD"/>
</linearGradient>
<linearGradient id="paint11_linear_1_861" x1="32.2167" y1="53.9244" x2="34.8561" y2="53.7232" gradientUnits="userSpaceOnUse">
<stop stop-color="#7B6EFF"/>
<stop offset="0.0834" stop-color="#7A6DFF"/>
<stop offset="0.3708" stop-color="#36B9DB"/>
<stop offset="0.6295" stop-color="#239AD3"/>
<stop offset="0.848" stop-color="#796CFF"/>
<stop offset="1" stop-color="#5647FF"/>
</linearGradient>
<linearGradient id="paint12_linear_1_861" x1="58.2914" y1="47.747" x2="63.3856" y2="33.4803" gradientUnits="userSpaceOnUse">
<stop stop-color="#7B6EFF"/>
<stop offset="0.0834" stop-color="#7A6DFF"/>
<stop offset="0.3708" stop-color="#36B9DB"/>
<stop offset="0.6295" stop-color="#239AD3"/>
<stop offset="0.848" stop-color="#796CFF"/>
<stop offset="1" stop-color="#5647FF"/>
</linearGradient>
<linearGradient id="paint13_linear_1_861" x1="61.6179" y1="46.1484" x2="63.1852" y2="42.0971" gradientUnits="userSpaceOnUse">
<stop stop-color="#7B6EFF"/>
<stop offset="0.0834" stop-color="#7A6DFF"/>
<stop offset="0.3708" stop-color="#36B9DB"/>
<stop offset="0.6295" stop-color="#239AD3"/>
<stop offset="0.848" stop-color="#796CFF"/>
<stop offset="1" stop-color="#5647FF"/>
</linearGradient>
</defs>
</svg>
